<svg width="106" height="159" viewBox="0 0 106 159" fill="none" xmlns="http://www.w3.org/2000/svg">
<g opacity="0.25">
<g filter="url(#filter0_f_8_27213)">
<path d="M53.3746 149C76.9157 149 95.9996 146.607 95.9996 143.655C95.9996 140.703 76.9157 138.31 53.3746 138.31C29.8335 138.31 10.7496 140.703 10.7496 143.655C10.7496 146.607 29.8335 149 53.3746 149Z" fill="#000072"/>
</g>
</g>
<path d="M37.947 117.392C45.0191 112.979 48.9565 101.124 49.235 100.261C46.9651 92.0798 48.3665 81.3039 48.6077 79.6195C41.9694 78.8199 37.375 74.4718 36.5876 73.6787C35.1227 74.511 32.1486 76.376 29.0487 79.3406C25.0478 83.1672 20.0135 89.6622 18.7528 98.8744C18.7464 98.9197 18.1675 103.007 18.0864 104.854C19.5926 104.05 25.8961 100.992 33.0793 101.874C34.1744 98.3831 35.8964 91.4346 35.0853 84.2228C35.0821 84.1941 35.0846 84.165 35.0925 84.1373C35.1005 84.1095 35.1138 84.0836 35.1318 84.061C35.1497 84.0385 35.1719 84.0197 35.1971 84.0057C35.2222 83.9917 35.2499 83.9829 35.2784 83.9797C35.307 83.9764 35.3359 83.9789 35.3636 83.9869C35.3912 83.9949 35.417 84.0083 35.4394 84.0263C35.4619 84.0443 35.4806 84.0666 35.4945 84.0919C35.5084 84.1171 35.5172 84.1449 35.5205 84.1736C36.3503 91.551 34.5597 98.6495 33.4548 102.138C33.4548 102.138 33.4548 102.141 33.4548 102.143C33.4509 102.17 33.4419 102.197 33.4281 102.221C33.1415 103.12 32.9042 103.77 32.7746 104.109C33.7487 104.296 34.957 105.265 35.3892 105.635C35.428 105.652 35.461 105.681 35.484 105.716L35.5097 105.739C35.8496 105.826 37.4875 106.306 37.6552 107.731C37.8698 109.564 36.8181 112.774 33.0789 113.593C29.4864 114.377 26.3209 113.243 25.7034 112.999C21.1906 115.671 16.6961 117.141 16.1422 117.317C11.407 122.466 14.1704 131.63 15.1037 134.257C15.3852 133.213 16.1906 131.291 18.4812 129.386C20.5409 127.675 24.6234 125.288 29.353 122.524C32.1983 120.862 35.1398 119.142 37.947 117.392Z" fill="white"/>
<path d="M32.3159 104.082C32.4146 103.829 32.648 103.211 32.9428 102.302C32.0787 102.2 31.2091 102.151 30.339 102.155L30.8059 104.581C31.2552 104.281 31.777 104.109 32.3159 104.082Z" fill="#001364"/>
<path d="M31.0874 122.022L29.5731 122.908C27.8725 123.901 26.2583 124.847 24.7907 125.727C25.8206 126.205 28.6548 127.634 30.4733 129.638L31.0874 122.022Z" fill="#000072"/>
<path d="M25.6704 112.533C25.7017 112.532 25.7329 112.537 25.7618 112.549C25.7644 112.549 25.7669 112.549 25.7691 112.549C25.803 112.564 29.2019 113.987 32.9836 113.161C36.8756 112.311 37.3605 108.99 37.218 107.782C37.0961 106.743 35.8963 106.308 35.4926 106.191C35.4741 106.395 35.4518 106.598 35.4222 106.801C35.3758 107.117 35.3155 107.43 35.2411 107.738C35.1648 108.046 35.0701 108.35 34.9575 108.646C34.8418 108.94 34.6981 109.222 34.5284 109.487C34.809 108.925 34.9472 108.311 35.0266 107.698C35.0635 107.39 35.0865 107.081 35.0956 106.772C35.1034 106.498 35.1004 106.221 35.0858 105.953C34.4906 105.446 33.2406 104.514 32.4657 104.514C31.973 104.515 31.491 104.659 31.0775 104.928C31.1522 105.585 31.1216 106.25 30.987 106.898C30.9158 107.243 30.8062 107.579 30.66 107.899C30.5139 108.215 30.3278 108.511 30.1065 108.779C30.2905 108.487 30.4553 108.184 30.5583 107.858C30.667 107.536 30.7389 107.202 30.7729 106.863C30.8064 106.527 30.8113 106.189 30.7874 105.852C30.7705 105.63 30.7419 105.409 30.7016 105.19C30.696 105.19 30.6905 105.19 30.6849 105.19H30.6707H30.66C30.656 105.19 30.652 105.189 30.648 105.188C30.6403 105.188 30.6325 105.188 30.6248 105.188C30.6201 105.188 30.6171 105.184 30.6124 105.183C30.587 105.177 30.5629 105.167 30.5411 105.153C30.5366 105.15 30.5321 105.148 30.5278 105.145C30.5034 105.126 30.4833 105.102 30.4691 105.075C30.4691 105.073 30.4656 105.072 30.4643 105.069C30.4446 105.032 29.9301 104.106 27.9451 104.617C25.9176 105.139 25.6245 107.694 25.6219 107.72C25.6189 107.749 25.6103 107.777 25.5966 107.802C25.5829 107.828 25.5644 107.85 25.542 107.868C25.4969 107.905 25.4391 107.922 25.3814 107.916C25.3236 107.91 25.2706 107.881 25.2341 107.836C25.1975 107.791 25.1803 107.733 25.1864 107.675C25.1984 107.557 25.5112 104.79 27.8365 104.192C29.1015 103.866 29.87 104.073 30.3163 104.343L29.8958 102.16C25.9454 102.258 22.4955 103.379 20.3366 104.279C19.6707 107.132 19.9316 109.298 21.1155 110.717C22.7418 112.669 25.6065 112.537 25.6704 112.533Z" fill="white"/>
<path d="M42.753 137.769C41.9377 137.987 41.1653 138.205 40.4225 138.415C37.5136 139.241 35.0017 139.954 31.7658 140.023C31.5839 140.027 31.4002 140.028 31.2174 140.028C27.9618 140.028 24.6045 139.448 23.6249 139.265C23.7038 140.145 23.9514 140.838 24.3698 141.317C25.0842 141.565 33.4024 144.271 42.653 139.464C42.6837 139.448 42.7176 139.439 42.7521 139.439C42.7866 139.439 42.8207 139.447 42.8515 139.463C42.8824 139.478 42.9091 139.501 42.9296 139.529C42.95 139.557 42.9636 139.589 42.9693 139.623L43.2229 141.151C45.9485 141.28 50.0688 141.314 50.7163 140.892C51.2441 140.548 51.3029 139.135 51.1454 137.29C50.2808 137.199 46.2622 136.833 42.753 137.769Z" fill="#898786"/>
<path d="M45.637 132.097C43.416 132.704 40.4509 132.416 36.3049 131.187C33.1222 130.244 30.8432 131.711 30.6682 131.829C30.5394 131.948 29.6671 132.705 27.9421 132.898C26.4059 133.07 24.4809 133.657 24.0329 135.484C23.7193 136.763 23.5764 137.878 23.5991 138.812C24.4371 138.973 28.2467 139.658 31.7564 139.582C34.9364 139.515 37.4235 138.809 40.3037 137.992C41.0495 137.78 41.8201 137.561 42.6406 137.343C46.1103 136.417 50.0538 136.736 51.1025 136.846C50.9639 135.466 50.7219 133.884 50.4708 132.345C49.9439 132.172 47.7315 131.522 45.637 132.097Z" fill="#606060"/>
<path d="M53.92 121.853C51.5796 122.423 51.0424 127.936 50.9201 130.665C51.6298 129.963 53.2051 128.657 55.2541 128.46C56.6002 128.33 57.9119 128.708 59.1619 129.58C57.5605 124.81 54.4431 122.256 53.92 121.853Z" fill="#000072"/>
<path d="M55.6965 74.8166C55.1446 74.8166 54.5881 74.8118 54.0268 74.8024C50.7438 75.9174 49.5084 78.3635 49.1724 79.1988C51.1849 79.1277 62.2888 78.532 68.3962 74.0084C64.5652 74.5235 60.2883 74.8162 55.6965 74.8166Z" fill="white"/>
<path d="M43.8609 74.1903C41.7131 73.9719 39.5778 73.6431 37.4634 73.205C37.3776 73.2481 37.2163 73.3313 36.9863 73.4563C37.944 74.3998 42.3162 78.3781 48.551 79.169C48.1442 78.3544 46.4386 75.8976 44.8457 74.2869C44.5179 74.2554 44.1905 74.2248 43.8609 74.1903Z" fill="white"/>
<path d="M52.9094 74.7821C50.5108 74.7213 48.0391 74.5813 45.5108 74.3511C46.6836 75.626 48.2726 77.7087 48.851 78.8212C49.2612 77.8811 50.373 75.9648 52.9094 74.7821Z" fill="#FC8026"/>
<path d="M71.8904 132.816C71.3622 130.61 70.5263 127.881 69.2334 125.284C67.8843 122.574 64.8239 119.701 61.5838 116.658C57.9308 113.227 53.7904 109.34 51.0991 104.805C50.4202 103.66 49.8795 102.369 49.4509 100.991C48.5227 103.642 44.6488 113.728 38.1779 117.766C36.0122 119.117 33.7676 120.448 31.5487 121.75L30.8673 130.198L30.7814 131.245C31.6014 130.802 33.6792 129.948 36.4276 130.762C40.4916 131.966 43.3791 132.255 45.5198 131.667C47.5795 131.102 49.6822 131.634 50.4447 131.871C50.4558 130.141 50.6807 121.997 53.9303 121.397C53.9589 121.392 53.9883 121.392 54.0167 121.399C54.0452 121.405 54.0721 121.417 54.0959 121.434C54.1453 121.468 58.9684 124.958 60.2424 132.032C60.8899 132.361 65.0252 134.228 71.8904 132.816ZM55.6003 120.742C53.9807 121.052 52.3254 121.129 50.6841 120.972C49.0426 120.815 47.4318 120.423 45.9009 119.808C44.3771 119.197 42.9229 118.385 41.6794 117.322C42.3494 117.783 43.0538 118.192 43.7863 118.545C44.5118 118.904 45.2579 119.218 46.0206 119.488C47.5404 120.029 49.1208 120.38 50.7262 120.533C51.1261 120.579 51.5282 120.595 51.9276 120.617C52.3297 120.62 52.7322 120.635 53.1343 120.614C53.9401 120.605 54.7417 120.511 55.5411 120.403C57.1441 120.15 58.7187 119.742 60.2428 119.182C58.7704 119.905 57.2094 120.43 55.6003 120.742Z" fill="#898786"/>
<path d="M67.2994 142.652C69.1257 142.323 70.6584 141.482 72.2813 140.591C74.7345 139.245 77.2739 137.859 81.0539 138.128C80.9786 137.681 80.8637 137.242 80.7106 136.815C80.413 136.977 80.0993 137.107 79.7747 137.203C78.242 137.65 76.762 137.778 75.5695 137.778C74.0248 137.778 72.9636 137.562 72.8872 137.548C72.8419 137.538 72.8008 137.514 72.77 137.479C72.7392 137.444 72.7201 137.4 72.7156 137.354C72.7126 137.321 72.5401 135.639 71.9912 133.242C70.0826 133.636 68.3838 133.788 66.9102 133.788C64.636 133.788 62.896 133.434 61.7211 133.079C61.6161 134.122 61.1866 135.105 60.4934 135.889C60.4548 135.932 60.4123 135.975 60.3728 136.019C61.6704 135.532 63.9009 135.164 66.4906 136.731C66.5315 136.756 66.5632 136.794 66.5808 136.838C66.5984 136.883 66.601 136.932 66.5881 136.978C66.5753 137.025 66.5478 137.066 66.5097 137.095C66.4716 137.124 66.4251 137.14 66.3773 137.14C66.3376 137.14 66.2987 137.129 66.2649 137.108C62.5317 134.848 59.6283 136.843 59.4421 136.978C58.5019 137.927 57.5798 138.93 57.3824 140.373C57.3249 140.794 57.2914 141.209 57.2743 141.603C58.1968 141.904 63.1221 143.405 67.2994 142.652Z" fill="#606060"/>
<path d="M84.5198 132.779L84.5017 132.804C85.2432 132.816 86.8773 132.781 88.195 132.33C89.9715 131.721 91.3022 130.124 91.5107 128.393C90.3431 128.412 88.8962 128.621 87.623 129.352C86.4606 130.017 85.5166 131.358 84.5198 132.779Z" fill="#000072"/>
<path d="M61.4992 98.5443C61.6374 98.7292 61.7859 98.9119 61.9373 99.0783C62.3763 99.2076 65.1809 99.9167 67.1767 97.6185C67.2235 94.6013 66.6918 90.0204 63.5932 86.711C63.2761 86.5882 61.0255 85.8059 57.2884 86.7391C53.3574 87.7196 50.9913 91.0096 50.4562 93.6518C50.2087 94.8754 50.3704 95.862 50.9192 96.5056C51.4016 97.0693 52.189 97.359 53.2017 97.3508C53.1573 96.9501 53.1354 96.5471 53.136 96.1439C53.1341 95.657 53.1731 95.1708 53.2527 94.6905C53.3385 94.2121 53.4673 93.7367 53.693 93.3039C53.9058 92.8666 54.2375 92.4989 54.6499 92.2432C54.2651 92.5233 53.9675 92.9075 53.7917 93.3509C53.6076 93.785 53.5166 94.2526 53.469 94.7203C53.4278 95.19 53.4261 95.6623 53.4638 96.1323C53.4971 96.5877 53.5609 97.0402 53.6548 97.487C53.808 97.7482 55.1742 99.9399 58.1084 100.284C60.723 100.592 61.4177 99.5973 61.5674 99.2904C61.4426 99.1025 61.3293 98.9145 61.222 98.7201C61.0948 98.4864 60.9802 98.246 60.8787 97.9999C60.6783 97.509 60.5316 96.9844 60.5436 96.4581C60.6054 96.9801 60.8178 97.4594 61.0748 97.9021C61.2046 98.1237 61.3463 98.3381 61.4992 98.5443Z" fill="white"/>
<path d="M87.4046 128.968C89.5931 127.712 92.1823 127.896 93.2911 128.054C90.9456 124.998 84.3374 119.623 84.2674 119.566C84.2662 119.565 84.2651 119.564 84.264 119.562C84.264 119.562 84.261 119.562 84.2597 119.56L84.2554 119.556C83.2157 118.547 82.2013 117.52 81.1972 116.48C80.1931 115.44 79.2045 114.386 78.2398 113.31C77.2752 112.234 76.3239 111.145 75.4206 110.016C74.5174 108.887 73.6407 107.735 72.8756 106.508C73.6712 107.715 74.5761 108.842 75.5052 109.946C76.4342 111.049 77.4108 112.112 78.4003 113.16C79.3898 114.209 80.4034 115.235 81.4302 116.248C82.2884 117.092 83.1576 117.926 84.0379 118.748C82.1751 110.402 79.6949 102.744 79.2272 101.326C77.8566 101.929 76.2055 102.138 74.5663 102.138C70.9035 102.138 67.3037 101.089 67.0488 101.013C66.9963 100.998 66.9515 100.963 66.9233 100.916C66.8951 100.868 66.8855 100.812 66.8965 100.758C66.9021 100.73 67.0904 99.7568 67.1561 98.2758C65.1891 100.157 62.6466 99.7063 61.9356 99.5309C61.7211 99.9313 61.0225 100.783 59.0306 100.783C58.7052 100.782 58.3801 100.762 58.057 100.723C55.0897 100.374 53.6488 98.3202 53.324 97.7917C52.1225 97.8271 51.1754 97.481 50.5863 96.7918C49.9426 96.0413 49.7504 94.9254 50.0284 93.5634C50.5901 90.7902 53.0686 87.3382 57.1842 86.3115C60.7457 85.4232 62.9805 86.027 63.6207 86.2511C63.8529 85.9063 64.5399 85.2598 66.4485 85.1783L63.5413 80.916C63.5251 80.8921 63.5136 80.8653 63.5077 80.8371C63.5018 80.8088 63.5014 80.7796 63.5067 80.7512C63.512 80.7228 63.5228 80.6958 63.5385 80.6716C63.5542 80.6474 63.5745 80.6265 63.5982 80.6102C63.6219 80.5938 63.6486 80.5824 63.6767 80.5764C63.7049 80.5704 63.7339 80.5701 63.7622 80.5754C63.7905 80.5807 63.8174 80.5915 63.8415 80.6073C63.8656 80.6231 63.8864 80.6434 63.9026 80.6673L66.9694 85.1632C67.6784 85.1172 68.3895 85.1124 69.0991 85.149C69.85 85.1834 70.5985 85.258 71.3416 85.3723C71.7136 85.4219 72.0813 85.5016 72.4495 85.5667C72.8151 85.6529 73.1833 85.7231 73.5433 85.8253C74.2702 86.0076 74.9769 86.2589 75.6751 86.5236C74.9641 86.2934 74.2492 86.0779 73.518 85.9322C73.1554 85.846 72.7885 85.7938 72.4208 85.7275C72.0517 85.6787 71.6849 85.6197 71.3141 85.5891C70.5757 85.5121 69.8337 85.4748 69.0914 85.4775C68.354 85.4744 67.6173 85.5176 66.8853 85.6068H66.8767C66.8736 85.607 66.8705 85.607 66.8673 85.6068H66.8583C64.805 85.6068 64.1635 86.2343 63.9885 86.4865C67.1243 89.9006 67.6612 94.5642 67.6127 97.6383C67.624 97.678 67.624 97.7201 67.6127 97.7598C67.5959 98.725 67.5129 99.6879 67.3642 100.642C68.7931 101.03 77.9202 103.336 81.0157 99.4697C84.5541 95.0487 82.5107 86.1223 80.9775 81.1944C79.4366 76.2407 73.4026 73.6515 72.5937 73.3244C71.5295 73.5304 70.4191 73.7172 69.2626 73.8847C63.0556 79.038 50.7137 79.5889 49.0488 79.6397C48.784 81.4677 46.772 96.6439 51.4775 104.574C54.138 109.057 58.2531 112.921 61.885 116.331C65.2968 119.535 68.243 122.302 69.6273 125.081C70.9764 127.792 71.8346 130.641 72.3663 132.91C72.3688 132.919 72.3744 132.925 72.3761 132.933C72.3766 132.94 72.3766 132.947 72.3761 132.954C72.8653 135.05 73.0756 136.64 73.1344 137.14C73.8209 137.256 76.6719 137.646 79.6567 136.776C81.5624 136.22 82.8853 134.338 84.1623 132.519C85.1887 131.064 86.1602 129.684 87.4046 128.968Z" fill="white"/>
<path d="M72.4911 140.977C70.8365 141.885 69.2729 142.745 67.3767 143.086C66.5224 143.234 65.6569 143.306 64.79 143.301C61.443 143.301 58.2183 142.365 57.2614 142.061C57.251 142.759 57.2854 143.456 57.3644 144.148C58.2458 144.418 63.3564 145.896 67.2449 145.235C70.0882 144.753 72.2363 143.986 73.8051 143.422C74.6255 143.128 75.2735 142.896 75.7725 142.795C77.0216 142.545 80.2021 141.977 80.8981 141.854C81.1627 140.782 81.2367 139.671 81.1165 138.573C77.4065 138.284 74.9087 139.651 72.4911 140.977Z" fill="#898786"/>
<path d="M88.3366 132.745C87.0807 133.176 85.5977 133.247 84.7528 133.247C84.5056 133.247 84.3129 133.241 84.1949 133.237C83.8675 133.698 83.5345 134.156 83.1861 134.591C84.4957 134.653 88.5203 134.7 90.5139 133.13C92.523 131.548 93.3095 129.251 93.5142 128.537C92.9965 128.452 92.4734 128.403 91.9488 128.392C91.7437 130.333 90.3178 132.065 88.3366 132.745Z" fill="white"/>
<g opacity="0.25">
<path d="M23.3258 109.489C21.4184 107.743 21.6806 103.761 21.6806 103.761C21.1901 103.937 20.74 104.114 20.3353 104.283C19.6694 107.135 19.9303 109.302 21.1142 110.721C22.7418 112.671 25.6065 112.537 25.6704 112.534C25.7017 112.532 25.7329 112.537 25.7618 112.549C25.7644 112.549 25.7669 112.549 25.7691 112.549C25.7996 112.562 28.5432 113.71 31.8405 113.346C33.0939 112.866 34.8317 111.83 36.6662 110.502C36.8784 110.086 37.0342 109.644 37.1296 109.187C36.5083 109.747 34.6631 111.259 32.4652 111.557C29.7546 111.93 25.2331 111.234 23.3258 109.489Z" fill="#001364"/>
</g>
<g opacity="0.25">
<path d="M49.4514 100.99L49.441 101.019L49.4627 101.026C49.459 101.014 49.455 101.002 49.4514 100.99Z" fill="#001364"/>
</g>
<g opacity="0.25">
<path d="M50.5811 93.1393C50.5322 93.3117 50.4906 93.4825 50.4562 93.6518C50.2087 94.8754 50.3704 95.862 50.9192 96.5056C51.4016 97.0693 52.189 97.359 53.2017 97.3508C53.1573 96.9501 53.1354 96.5471 53.136 96.1439C53.1352 95.7789 53.1566 95.4142 53.1999 95.0517C52.334 95.3698 51.2866 94.3849 50.5811 93.1393Z" fill="#001364"/>
</g>
<g opacity="0.25">
<path d="M61.4992 98.5443C61.6374 98.7292 61.7859 98.9119 61.9373 99.0783C62.3763 99.2076 65.1809 99.9166 67.1767 97.6184C67.1964 96.4711 67.1229 95.3241 66.957 94.1888C66.6596 94.8784 65.9512 96.0801 64.4841 96.6305C62.3647 97.4253 60.245 96.1482 60.245 96.1482C60.245 96.1482 59.3408 97.2835 56.8825 97.1697C55.0489 97.0835 53.9032 95.9508 53.4385 95.3789C53.4365 95.6312 53.4451 95.883 53.4643 96.1344C53.4976 96.5898 53.5614 97.0424 53.6552 97.4891C53.8084 97.7503 55.1747 99.9421 58.1089 100.286C60.7234 100.594 61.4181 99.5994 61.5679 99.2925C61.443 99.1046 61.3297 98.9167 61.2225 98.7223C61.0952 98.4886 60.9806 98.2481 60.8792 98.0021C60.6788 97.5111 60.532 96.9866 60.5441 96.4603C60.6058 96.9823 60.8182 97.4616 61.0753 97.9042C61.205 98.1251 61.3465 98.3388 61.4992 98.5443Z" fill="#000072"/>
</g>
<g opacity="0.25">
<path d="M74.374 136.199C74.374 136.199 77.1151 136.34 78.3587 135.83C83.4182 134.04 81.7211 131.43 84.7167 129.216C87.7123 127.002 90.7357 126.634 90.7357 126.634C90.7357 126.634 87.0339 125.612 84.0881 126.407C81.1423 127.202 77.3979 129.728 76.6646 129.671C75.9312 129.614 73.5562 123.54 70.5889 119.083C67.6217 114.626 54.9043 103.102 57.9561 103.186C61.0079 103.27 63.3396 102.505 63.3396 102.505C63.3396 102.505 66.476 103.74 72.283 103.684C77.1006 103.638 79.0963 102.857 79.6374 102.593C79.4503 102.005 79.3087 101.57 79.228 101.326C77.8575 101.929 76.2063 102.138 74.5671 102.138C70.9043 102.138 67.3046 101.089 67.0497 101.013C66.9972 100.998 66.9524 100.963 66.9242 100.916C66.896 100.868 66.8864 100.812 66.8973 100.758C66.9029 100.73 67.0913 99.7567 67.1569 98.2758C65.1899 100.157 62.6475 99.7063 61.9365 99.5309C61.7219 99.9313 61.0233 100.783 59.0314 100.783C58.706 100.782 58.3809 100.762 58.0578 100.723C55.0906 100.374 53.6496 98.3201 53.3248 97.7917C52.1233 97.8271 51.1763 97.4809 50.5871 96.7917C49.9435 96.0413 49.7512 94.9254 50.0293 93.5634C50.0979 93.2302 50.1887 92.9021 50.3009 92.5811C49.7431 91.2208 48.9093 85.8369 48.6068 83.796C48.2133 88.9541 48.0919 97.5965 50.8454 103.388C51.1321 103.899 51.4428 104.461 51.756 105.029C54.3276 109.173 58.1067 112.787 61.5241 115.997C62.6475 116.979 64.1537 118.371 65.7349 120.052C66.7536 121.096 67.6564 122.108 68.3928 123.107L68.4095 123.128C72.4718 128.224 74.374 136.199 74.374 136.199Z" fill="#000072"/>
</g>
<g opacity="0.25">
<path d="M30.7832 116.897C29.776 118.203 18.7481 124.731 16.9677 124.35C15.1874 123.968 14.5515 120.177 14.5515 120.177C14.448 120.214 14.3433 120.322 14.2404 120.485C12.36 125.604 14.3416 132.112 15.1037 134.258C15.3852 133.214 16.1906 131.292 18.4812 129.387C20.5409 127.677 24.6234 125.289 29.353 122.525C32.1983 120.862 35.1407 119.142 37.947 117.392C45.0191 112.979 48.9565 101.124 49.235 100.261C48.2481 96.6982 47.9546 92.6436 47.9593 89.0618C47.8919 91.7652 47.4688 98.7193 44.9483 102.506C43.3177 104.953 40.2784 107.796 37.3532 109.997C36.8039 111.517 35.508 113.061 33.0771 113.593C29.4847 114.377 26.3192 113.242 25.7017 112.998C25.5721 113.074 25.4427 113.15 25.3134 113.225L25.2881 113.42C26.1377 115.506 31.789 115.592 30.7832 116.897Z" fill="#000072"/>
</g>
<g opacity="0.25">
<path d="M32.9857 113.162C34.9927 112.724 36.092 111.629 36.6683 110.505C34.8339 111.832 33.096 112.868 31.8426 113.349C32.2267 113.307 32.6082 113.245 32.9857 113.162Z" fill="#001364"/>
</g>
<g opacity="0.25">
<path d="M32.9857 113.162C34.9927 112.724 36.092 111.629 36.6683 110.505C34.8339 111.832 33.096 112.868 31.8426 113.349C32.2267 113.307 32.6082 113.245 32.9857 113.162Z" fill="#001364"/>
</g>
<g opacity="0.25">
<path d="M40.813 138.306L40.4225 138.416C40.1333 138.499 39.8492 138.579 39.5643 138.658C39.5643 138.658 38.9091 139.434 37.2133 140.484C35.5175 141.535 29.698 142.26 29.698 142.26C32.6751 142.429 35.6584 142.061 38.5066 141.174C39.5656 140.186 40.4564 138.866 40.813 138.306Z" fill="#001364"/>
</g>
<g opacity="0.25">
<path d="M50.234 137.214C48.6386 137.103 45.5366 137.026 42.753 137.769L41.1074 140.148L40.8898 140.297C41.4725 140.049 42.0604 139.773 42.6526 139.465C42.6832 139.449 42.7172 139.441 42.7517 139.44C42.7862 139.44 42.8203 139.448 42.8511 139.464C42.8819 139.479 42.9087 139.502 42.9291 139.53C42.9496 139.558 42.9632 139.59 42.9688 139.624L43.2224 141.152C45.3812 141.255 48.4146 141.297 49.9031 141.102C50.3983 140.321 50.234 137.215 50.234 137.214Z" fill="#001364"/>
</g>
<g opacity="0.25">
<path d="M80.1566 138.538C77.7043 138.533 75.7935 139.262 74.0415 140.15C74.0256 140.186 72.7048 143.186 71.6158 144.17C72.4444 143.908 73.1726 143.648 73.8042 143.421C74.6246 143.127 75.2726 142.895 75.7716 142.795C76.6925 142.61 78.6621 142.253 79.9133 142.029C80.2309 141.136 80.1832 139.196 80.1566 138.538Z" fill="#001364"/>
</g>
<g opacity="0.25">
<path d="M71.3313 141.604C71.002 141.776 70.6707 141.941 70.3375 142.097C69.1038 144.045 66.7167 145.14 66.1975 145.361C66.5536 145.333 66.9042 145.293 67.2449 145.235C67.8946 145.125 68.5061 144.999 69.0845 144.865C70.2547 144.043 71.0558 142.276 71.3313 141.604Z" fill="#001364"/>
</g>
<g opacity="0.25">
<path d="M50.6841 120.972C49.0426 120.815 47.4318 120.423 45.9009 119.808C44.3772 119.197 42.9229 118.385 41.6794 117.322C42.3494 117.783 43.0538 118.192 43.7863 118.545C44.5118 118.904 45.2579 119.218 46.0206 119.488C47.5404 120.029 49.1208 120.38 50.7262 120.533C51.1261 120.579 51.5282 120.595 51.9277 120.617C52.3297 120.62 52.7322 120.635 53.1343 120.614C53.9401 120.605 54.7417 120.511 55.5411 120.403C56.9152 120.187 58.2688 119.856 59.5876 119.412C56.704 119.747 47.5843 119.247 45.9584 117.164C44.3055 115.046 48.9681 108.254 50.1207 108.339C51.2733 108.425 54.1804 111.49 57.2704 114.045C58.5938 115.138 60.8393 117.145 62.9775 119.083C62.9775 119.083 65.0089 120.339 66.7017 121.741C65.2487 120.104 63.4465 118.409 61.5829 116.659C57.93 113.228 53.7895 109.34 51.0982 104.806C50.4606 103.731 49.9465 102.526 49.5311 101.242H49.529C49.3719 101.272 49.4041 101.122 49.4041 101.122C48.403 103.95 44.5509 113.79 38.1775 117.767C36.0118 119.118 33.7671 120.45 31.5482 121.751L31.4654 122.776C34.6181 121.5 38.062 119.482 39.3335 119.189C40.6049 118.897 44.3072 120.816 44.6462 121.327C44.9852 121.838 45.0985 127.827 42.9225 128.905C40.7465 129.984 38.3311 128.969 36.2958 129.118C34.2606 129.267 32.8441 130.544 32.8441 130.544C33.8161 130.371 35.036 130.353 36.4293 130.766C40.4933 131.97 43.3808 132.259 45.5216 131.671C47.5813 131.106 49.6839 131.638 50.4464 131.875C50.4563 130.347 50.6339 123.822 52.9124 121.901C53.144 121.584 53.3957 121.281 53.666 120.996C52.6732 121.075 51.6754 121.067 50.6841 120.972Z" fill="#000072"/>
</g>
<g opacity="0.25">
<path d="M41.2134 133.843C40.111 134.992 35.2789 136.61 31.344 136.653C27.4091 136.695 25.3185 135.801 25.3185 135.801C24.5839 136.851 24.7912 139.021 24.7912 139.021C26.3896 139.278 29.1547 139.64 31.7564 139.582C34.9365 139.515 37.4235 138.809 40.3037 137.991C41.0495 137.78 41.8201 137.56 42.6406 137.342C46.0163 136.442 49.8392 136.719 51.0081 136.836L51.0815 136.663C50.9403 135.327 50.709 133.819 50.4691 132.344C49.9413 132.17 47.7297 131.52 45.6353 132.095C44.6634 132.36 43.5494 132.455 42.2565 132.374C42.2582 132.376 42.3153 132.693 41.2134 133.843Z" fill="#000072"/>
</g>
<g opacity="0.25">
<path d="M51.4754 104.579C51.5655 104.73 51.6608 104.879 51.7539 105.029C51.4406 104.462 51.1299 103.9 50.8433 103.389C51.0396 103.8 51.2502 104.197 51.4754 104.579Z" fill="#001364"/>
</g>
<g opacity="0.25">
<path d="M51.4754 104.579C51.5655 104.73 51.6608 104.879 51.7539 105.029C51.4406 104.462 51.1299 103.9 50.8433 103.389C51.0396 103.8 51.2502 104.197 51.4754 104.579Z" fill="#001364"/>
</g>
<g opacity="0.25">
<path d="M76.4114 137.312C76.0574 137.324 75.7909 137.332 75.7545 137.333C75.9656 137.331 76.1853 137.323 76.4114 137.312Z" fill="#001364"/>
</g>
<g opacity="0.25">
<path d="M63.4177 133.02C65.4084 133.393 68.2692 133.561 71.8913 132.816C71.363 130.61 70.5271 127.881 69.2342 125.284C69.0129 124.847 68.7644 124.425 68.4902 124.02V124.134C68.4902 124.134 65.8332 121.669 62.9801 119.082C65.9409 122.033 68.8648 129.3 67.0565 130.549C65.2483 131.798 60.4629 132.138 60.4629 132.138L61.8498 132.644C61.8498 132.644 62.5763 132.817 63.4177 133.02Z" fill="#000072"/>
</g>
<g opacity="0.25">
<path d="M66.0945 139.576C63.495 140.57 58.9027 139.718 58.9027 139.718C58.465 140.399 58.4226 141.705 58.4226 141.705C58.417 141.775 58.5277 141.89 58.741 142.025C60.7294 142.536 64.2172 143.208 67.2994 142.652C69.1257 142.323 70.6584 141.482 72.2813 140.591C74.5264 139.359 76.8465 138.098 80.121 138.098L80.0077 137.13C79.9314 137.156 79.8546 137.182 79.7765 137.205C78.2437 137.652 76.7637 137.78 75.5712 137.78C74.0265 137.78 72.9653 137.564 72.8889 137.55C72.8436 137.54 72.8026 137.515 72.7717 137.481C72.7409 137.446 72.7218 137.402 72.7173 137.356C72.7143 137.323 72.5418 135.641 71.993 133.244C70.5628 133.544 69.1097 133.722 67.6496 133.775C67.2067 134.465 66.0113 136.461 66.0113 136.461C66.17 136.544 66.3304 136.635 66.4923 136.733C66.5381 136.76 66.5722 136.803 66.5881 136.854C66.6039 136.905 66.6004 136.96 66.5781 137.009C67.1874 137.706 67.8611 138.901 66.0945 139.576Z" fill="#001364"/>
</g>
<g opacity="0.25">
<path d="M62.9792 119.083C65.8323 121.669 68.4893 124.135 68.4893 124.135V124.02C67.9911 123.272 67.387 122.511 66.7025 121.741C65.0097 120.338 62.9783 119.082 62.9783 119.082L62.9792 119.083Z" fill="#001364"/>
</g>
<g opacity="0.25">
<path d="M62.9792 119.083C65.8323 121.669 68.4893 124.135 68.4893 124.135V124.02C67.9911 123.272 67.387 122.511 66.7025 121.741C65.0097 120.338 62.9783 119.082 62.9783 119.082L62.9792 119.083Z" fill="#001364"/>
</g>
<g opacity="0.25">
<path d="M71.2661 97.2693C70.0792 96.5456 68.6275 92.6285 68.6275 92.6285C69.7183 98.4137 68.6275 100.951 68.6275 100.956C70.301 101.33 73.1666 101.831 75.8206 101.636C77.243 101.507 78.3338 101.22 79.1706 100.866C79.8975 100.532 80.5295 100.078 81.0157 99.4731C83.4234 96.465 83.2471 91.3725 82.4043 86.8718C82.4013 86.927 82.1086 92.1302 80.127 94.4147C78.1326 96.7159 72.4525 97.993 71.2661 97.2693Z" fill="#000072"/>
</g>
<g opacity="0.25">
<path d="M44.1939 76.7536C42.0197 75.8079 39.7501 74.0343 38.9185 73.4903C38.4236 73.4004 37.9384 73.3053 37.463 73.205C37.3772 73.2481 37.2158 73.3313 36.9858 73.4563C37.9436 74.3998 42.3157 78.3781 48.5506 79.169C48.4124 78.8919 48.1215 78.4216 47.7353 77.8617C47.7289 77.8622 46.8114 77.8915 44.1939 76.7536Z" fill="#000072"/>
</g>
<g opacity="0.25">
<path d="M67.4668 75.1601L67.4608 75.1634H67.4659L67.4668 75.1601Z" fill="#001364"/>
</g>
<g opacity="0.25">
<path d="M56.7272 76.7536C53.2514 77.6544 50.1241 77.7691 50.1241 77.7691C50.1241 77.7691 49.9031 77.9889 49.6658 78.2277C49.4939 78.5092 49.3423 78.8028 49.2123 79.1061C49.226 79.1371 49.2406 79.1677 49.2552 79.1975C51.4307 79.1147 61.9996 78.4975 68.0872 74.233L68.2216 74.0321C66.3605 74.277 64.397 74.4713 62.3428 74.605C61.3967 75.0907 59.2799 76.0924 56.7272 76.7536Z" fill="#000072"/>
</g>
<g opacity="0.25">
<path d="M26.5895 99.9106C22.6478 100.718 18.8339 99.6951 18.8339 99.6951C18.7524 99.7106 18.6803 99.7813 18.6159 99.8856C18.4378 101.228 18.1439 103.576 18.0877 104.853C19.5896 104.051 25.8699 101.006 33.0312 101.868C33.0741 101.768 33.1321 101.634 33.2029 101.473C34.2984 97.8684 35.8667 91.1687 35.0858 84.2219C35.0858 84.2219 34.4318 86.3261 33.5839 90.1579C32.736 93.9897 30.5317 99.0999 26.5895 99.9106Z" fill="#001364"/>
</g>
<g opacity="0.4">
<path d="M25.7854 141.649C25.7854 141.649 25.4601 139.855 25.5314 139.722C25.6026 139.588 25.2061 139.377 24.9662 139.363C24.7264 139.349 23.836 139.363 23.836 139.363C23.836 139.363 23.6905 139.756 23.7012 139.809C23.712 139.862 24.102 141.082 24.2887 141.217C24.4753 141.353 25.7854 141.649 25.7854 141.649Z" fill="white"/>
</g>
<g opacity="0.4">
<path d="M24.2582 136.284C24.2582 136.284 25.1486 134.85 26.5612 134.339C27.9738 133.828 29.8202 133.828 31.0874 133.132C32.3545 132.436 32.7497 132.116 34.3889 131.965C36.0281 131.813 37.9775 131.864 37.9775 131.864C37.9775 131.864 36.2568 130.802 34.4468 130.654C33.6273 130.588 32.8162 130.711 32.1644 130.87C31.3783 131.064 30.8278 131.312 30.7832 131.344C30.7012 131.401 30.5841 132.077 28.6376 132.555C26.6912 133.034 25.579 133.104 24.792 133.657C24.005 134.211 24.2582 136.284 24.2582 136.284Z" fill="white"/>
</g>
<g opacity="0.4">
<path d="M32.288 130.665C32.3545 130.585 32.8416 124.455 32.4167 123.773C31.9919 123.092 31.4783 122.947 31.344 123.092C31.2097 123.238 30.902 131.185 30.902 131.185L32.288 130.665Z" fill="white"/>
</g>
<g opacity="0.4">
<path d="M58.6547 144.572L58.4217 142.396L57.3335 142.3C57.3335 142.3 57.3558 144.039 57.4858 144.185C57.6158 144.331 58.6547 144.572 58.6547 144.572Z" fill="white"/>
</g>
<g opacity="0.4">
<path d="M57.73 140.981C57.73 140.981 58.6062 138.602 60.5985 137.556C62.5909 136.511 65.8263 136.921 65.8263 136.921C65.8263 136.921 65.1324 135.631 62.5334 135.603C62.5334 135.603 63.0852 133.64 63.071 133.564C63.0569 133.488 61.658 132.922 61.6297 133.02C61.6014 133.119 61.5271 134.497 60.9354 135.313C60.3437 136.128 59.1572 137.151 59.0726 137.214C58.9881 137.277 57.0378 139.565 57.73 140.981Z" fill="white"/>
</g>
<g opacity="0.4">
<path d="M61.522 132.392C61.522 132.392 61.2645 129.926 60.3724 127.399C59.4803 124.873 55.3 120.841 55.3 120.841L54.0285 121.052C54.0285 121.052 56.7482 123.121 58.1561 126.259C59.564 129.397 60.2441 132.035 60.2441 132.035L60.6831 132.391L61.522 132.392Z" fill="white"/>
</g>
<path d="M74.5367 102.664C70.7837 102.664 67.1561 101.608 66.8986 101.531C66.7174 101.477 66.5629 101.357 66.4656 101.194C66.3683 101.031 66.3353 100.838 66.373 100.652C66.3897 100.568 68.0066 92.1673 63.174 87.0477C63.0825 86.9507 63.0181 86.8313 62.9873 86.7013C62.9565 86.5714 62.9604 86.4356 62.9985 86.3076C63.0685 86.0736 63.4855 85.0576 65.4942 84.7322L63.0989 81.2211C62.9972 81.0553 62.9629 80.8565 63.003 80.6659C63.0432 80.4753 63.1547 80.3075 63.3146 80.1973C63.4745 80.087 63.6705 80.0427 63.8619 80.0736C64.0534 80.1044 64.2258 80.208 64.3433 80.363L67.4801 84.9615C67.5578 85.0756 67.6031 85.2087 67.611 85.3467C67.6189 85.4846 67.5892 85.6221 67.525 85.7444C67.4609 85.8666 67.3647 85.969 67.2469 86.0403C67.1291 86.1117 66.9942 86.1494 66.8566 86.1494C65.6937 86.1494 65.0689 86.3559 64.7445 86.5373C68.7991 91.354 68.2731 98.0611 67.9675 100.247C70.2456 100.821 77.9378 102.455 80.5948 99.1352C84.1031 94.7517 81.6709 85.243 80.4626 81.3586C78.8998 76.3347 72.3787 73.8218 72.3126 73.7968C72.2197 73.7619 72.1344 73.7088 72.0619 73.6408C71.9893 73.5728 71.9307 73.4911 71.8896 73.4003C71.8485 73.3095 71.8255 73.2115 71.8221 73.1119C71.8186 73.0122 71.8348 72.9129 71.8696 72.8195C71.9044 72.7261 71.9572 72.6405 72.0249 72.5676C72.0926 72.4947 72.174 72.4359 72.2643 72.3945C72.3547 72.3532 72.4522 72.3302 72.5515 72.3267C72.6507 72.3233 72.7496 72.3395 72.8426 72.3744C73.1391 72.4856 80.1197 75.1666 81.9048 80.9048C83.4955 86.0184 85.5951 95.3099 81.7722 100.085C80.176 102.083 77.3207 102.664 74.5367 102.664Z" fill="#000072"/>
<path d="M66.7648 84.6374C69.8367 84.6027 72.8785 85.2474 75.6747 86.5257C73.5291 85.9408 71.2939 85.7421 69.0819 85.8835C68.379 85.93 67.62 86.008 66.9454 86.1447C65.8726 86.3223 65.6783 84.7223 66.7648 84.6361V84.6374Z" fill="#000072"/>
<path d="M59.0152 101.321C58.6744 101.32 58.334 101.299 57.9956 101.259C57.0112 101.148 56.061 100.83 55.2071 100.326C54.3531 99.8217 53.6146 99.1424 53.0395 98.3322C51.5033 98.3003 50.6412 97.6827 50.1799 97.1435C49.426 96.262 49.193 94.9884 49.5015 93.4561C50.0954 90.5225 52.712 86.8722 57.0537 85.7891C61.4087 84.7033 63.9194 85.7852 64.0266 85.8322C64.21 85.9133 64.3539 86.0642 64.4264 86.2519C64.499 86.4395 64.4944 86.6484 64.4137 86.8326C64.333 87.0168 64.1827 87.1612 63.9959 87.2342C63.8091 87.3071 63.6011 87.3025 63.4178 87.2214C63.3748 87.2041 61.2066 86.3162 57.4159 87.2619C53.4596 88.2489 51.3999 91.688 50.9793 93.7591C50.83 94.4944 50.7691 95.5069 51.3226 96.1543C51.8375 96.7577 52.7387 96.8439 53.4068 96.8094C53.5492 96.8027 53.6906 96.8364 53.8148 96.9068C53.939 96.9772 54.0409 97.0813 54.1088 97.2072C54.1568 97.2935 55.357 99.4214 58.1677 99.7503C60.1338 99.9813 60.9302 99.399 61.0856 99.0447C61.1285 98.8382 61.2512 98.6895 61.4344 98.5818C61.6177 98.474 61.8387 98.4809 62.045 98.549C62.1592 98.5856 64.9363 99.4477 66.8205 97.2038C66.9512 97.0548 67.1347 96.9632 67.3318 96.9486C67.5289 96.9339 67.7239 96.9974 67.8749 97.1254C68.026 97.2535 68.1211 97.4359 68.1398 97.6335C68.1586 97.8311 68.0995 98.0283 67.9753 98.1826C65.9967 100.539 63.3294 100.359 62.1588 100.135C61.7275 100.665 60.8217 101.321 59.0152 101.321Z" fill="#000072"/>
<path d="M61.2319 99.7546C60.7496 98.7395 60.3604 97.5883 60.5419 96.4603C60.8586 97.4456 61.6061 98.1844 62.3952 98.7878C62.4836 98.8432 62.5602 98.9155 62.6207 99.0006C62.6813 99.0857 62.7245 99.1819 62.748 99.2838C62.7716 99.3857 62.7748 99.4913 62.7577 99.5945C62.7406 99.6976 62.7035 99.7964 62.6484 99.8852C62.3051 100.443 61.4748 100.352 61.2323 99.7559L61.2319 99.7546Z" fill="#000072"/>
<path d="M52.706 97.7124C52.6451 95.8849 52.8481 93.1867 54.6499 92.2445C54.2981 92.5532 54.0425 92.9573 53.9135 93.4082C53.5441 94.7155 53.7977 96.1495 54.1886 97.4193C54.519 98.5438 52.8249 98.8796 52.706 97.7111V97.7124Z" fill="#000072"/>
<path d="M17.8581 105.988C17.7589 105.988 17.6607 105.968 17.569 105.93C17.4773 105.892 17.394 105.836 17.3238 105.766C17.2537 105.696 17.198 105.612 17.16 105.52C17.122 105.428 17.1025 105.329 17.1025 105.229C17.1025 103.576 17.7603 98.9326 17.789 98.7356C19.0884 89.2407 24.2707 82.5547 28.3879 78.619C32.8416 74.3631 36.9395 72.3692 37.1116 72.286C37.2011 72.243 37.2981 72.2181 37.3972 72.2128C37.4962 72.2074 37.5954 72.2218 37.6889 72.2549C37.7825 72.288 37.8686 72.3394 37.9424 72.4059C38.0162 72.4725 38.0763 72.5531 38.1191 72.6429C38.1619 72.7328 38.1867 72.8303 38.192 72.9298C38.1974 73.0293 38.1831 73.1289 38.1501 73.2229C38.1171 73.3168 38.066 73.4034 37.9997 73.4775C37.9335 73.5517 37.8533 73.612 37.7638 73.655C37.7029 73.6847 33.6646 75.6605 29.392 79.7543C25.464 83.5185 20.5216 89.9032 19.2845 98.9464C19.2785 98.9869 18.8597 101.945 18.6867 103.938C21.1017 102.769 26.8152 100.498 33.3367 101.36C33.4368 101.371 33.5336 101.402 33.6215 101.451C33.7094 101.5 33.7867 101.566 33.8488 101.646C33.9109 101.725 33.9566 101.816 33.9831 101.914C34.0097 102.011 34.0166 102.113 34.0034 102.213C33.9903 102.314 33.9574 102.41 33.9066 102.497C33.8558 102.585 33.7882 102.661 33.7077 102.721C33.6272 102.782 33.5355 102.826 33.4379 102.85C33.3403 102.875 33.2388 102.88 33.1394 102.864C25.2087 101.814 18.3113 105.841 18.2426 105.882C18.1262 105.951 17.9935 105.988 17.8581 105.988Z" fill="#000072"/>
<path d="M75.5717 138.317C73.9668 138.317 72.8597 138.093 72.7799 138.077C72.6219 138.045 72.4783 137.962 72.3702 137.842C72.2621 137.722 72.1952 137.57 72.1792 137.409C72.1727 137.346 71.5355 131.116 68.7511 125.524C67.4453 122.902 64.4193 120.06 61.2152 117.051C57.536 113.597 53.3664 109.681 50.6365 105.08C45.4688 96.3736 47.9988 80.0026 48.1091 79.31C48.1371 79.1336 48.2262 78.9728 48.3606 78.8559C48.4951 78.7389 48.6663 78.6734 48.8441 78.6708C48.9788 78.6708 62.3772 78.4173 68.7094 73.0761C68.8631 72.9467 69.0616 72.8839 69.2613 72.9015C69.4611 72.9192 69.6457 73.0158 69.7745 73.1701C69.9033 73.3244 69.9658 73.5238 69.9483 73.7244C69.9307 73.9251 69.8346 74.1105 69.6809 74.2399C63.6881 79.2945 52.3679 80.0587 49.5131 80.1707C49.1046 83.2465 47.5898 96.9844 51.9337 104.304C54.5542 108.721 58.641 112.558 62.2463 115.942C65.6959 119.182 68.6751 121.978 70.1023 124.846C72.5371 129.737 73.3854 134.944 73.6128 136.673C74.6427 136.806 77.028 136.986 79.5018 136.264C81.2272 135.761 82.4948 133.957 83.7208 132.213C84.7832 130.701 85.7865 129.274 87.1369 128.499C88.8056 127.541 90.686 127.367 92.0497 127.409C89.3111 124.362 83.9911 120.035 83.9285 119.984C83.7949 119.876 83.7021 119.725 83.6654 119.556C81.6057 110.117 78.6689 101.351 78.6393 101.264C78.5771 101.074 78.5922 100.867 78.6812 100.688C78.7703 100.509 78.9262 100.372 79.115 100.308C79.3037 100.244 79.51 100.257 79.6891 100.345C79.8681 100.433 80.0053 100.588 80.0708 100.777C80.1 100.864 83.0115 109.547 85.0845 118.972C86.3211 119.986 92.508 125.121 94.4097 127.937C94.4949 128.063 94.5403 128.212 94.5402 128.364C94.5401 128.516 94.4944 128.665 94.409 128.791C94.3237 128.917 94.2027 129.014 94.0617 129.07C93.9208 129.126 93.7663 129.138 93.6185 129.104C93.5876 129.098 90.3573 128.399 87.8865 129.818C86.8275 130.426 85.9178 131.719 84.9553 133.089C83.5792 135.047 82.1567 137.07 79.9232 137.722C78.3407 138.185 76.8083 138.317 75.5717 138.317Z" fill="#000072"/>
<path d="M48.857 80.1884C48.6649 80.1883 48.4801 80.1148 48.3401 79.9828C48.2 79.8508 48.1153 79.6702 48.1031 79.4776C47.8537 78.8742 46.0198 76.2221 44.4149 74.6153C44.273 74.4733 44.1931 74.2804 44.1927 74.0792C44.1923 73.8779 44.2716 73.6848 44.413 73.5423C44.5544 73.3997 44.7464 73.3194 44.9467 73.3191C45.147 73.3187 45.3393 73.3983 45.4812 73.5403C46.3094 74.3692 47.3388 75.6118 48.2344 76.8639C48.4656 77.1872 48.6605 77.4704 48.8235 77.7178C49.5714 76.4764 51.0347 74.7799 53.7307 73.8692C53.9206 73.8051 54.1281 73.8193 54.3075 73.9089C54.4869 73.9984 54.6236 74.1558 54.6874 74.3466C54.7513 74.5373 54.7371 74.7457 54.648 74.9259C54.5588 75.1061 54.4021 75.2434 54.2122 75.3075C50.794 76.4626 49.771 79.0755 49.6071 79.563C49.5963 79.6043 49.5834 79.645 49.5684 79.685C49.516 79.8323 49.4195 79.9598 49.2922 80.05C49.1648 80.1401 49.0128 80.1884 48.857 80.1884Z" fill="#000072"/>
<path d="M48.8578 80.1884C48.8308 80.1884 48.8037 80.187 48.7767 80.1841C41.179 79.3686 36.2765 74.1412 36.0714 73.9192C35.9349 73.7717 35.8622 73.5757 35.8695 73.3744C35.8768 73.1731 35.9634 72.9829 36.1103 72.8457C36.2571 72.7086 36.4522 72.6356 36.6526 72.6429C36.8531 72.6502 37.0424 72.7372 37.1789 72.8848C37.2257 72.9347 41.9184 77.9195 48.9364 78.6729C49.1293 78.6926 49.3074 78.7861 49.4336 78.934C49.5598 79.082 49.6245 79.273 49.6143 79.4676C49.6041 79.6621 49.5198 79.8453 49.3788 79.9791C49.2378 80.1129 49.051 80.1871 48.857 80.1862L48.8578 80.1884Z" fill="#000072"/>
<path d="M15.1732 135.822C15.0245 135.822 14.8791 135.778 14.7553 135.695C14.6314 135.612 14.5345 135.495 14.4768 135.357C14.2682 134.859 9.43955 123.078 15.4697 116.605C15.56 116.509 15.6739 116.437 15.8001 116.398C15.8474 116.384 20.5799 114.912 25.3001 112.1C25.4021 112.039 25.517 112.004 25.6353 111.996C25.7537 111.988 25.8723 112.008 25.9815 112.055C26.0132 112.068 29.2684 113.422 32.872 112.636C36.3735 111.871 36.8133 108.919 36.6876 107.846C36.5885 107.004 35.2596 106.685 35.2463 106.682C35.117 106.654 34.9973 106.592 34.8987 106.503C34.255 105.919 33.0368 105.053 32.4674 105.053C32.0016 105.052 31.5502 105.215 31.1921 105.514C31.0106 105.696 30.7651 105.81 30.5141 105.755C30.2631 105.701 30.082 105.565 29.9889 105.334C29.9168 105.242 29.4778 104.783 28.0764 105.145C26.4179 105.572 26.1557 107.762 26.1531 107.784C26.1254 107.978 26.0236 108.154 25.8692 108.275C25.7149 108.396 25.52 108.451 25.3255 108.431C25.131 108.41 24.952 108.314 24.8263 108.164C24.7006 108.013 24.6378 107.82 24.6513 107.624C24.665 107.491 25.0194 104.366 27.7018 103.675C29.2594 103.273 30.2047 103.609 30.739 103.99C31.2666 103.692 31.862 103.536 32.4674 103.537C33.6822 103.537 35.2214 104.775 35.7676 105.251C36.6722 105.501 38.02 106.236 38.1882 107.67C38.4251 109.691 37.2789 113.23 33.193 114.12C29.8087 114.86 26.7813 113.961 25.7549 113.593C21.4849 116.087 17.3921 117.481 16.4434 117.788C12.6604 122.042 14.0983 129.142 15.1488 132.661C15.6761 131.587 16.5828 130.269 18.1409 128.973C20.2324 127.235 24.335 124.836 29.083 122.061C31.9254 120.4 34.8644 118.682 37.6651 116.935C44.8041 112.481 48.7016 100.177 48.7403 100.053C48.7699 99.9578 48.8179 99.8695 48.8814 99.793C48.945 99.7165 49.023 99.6534 49.1109 99.6072C49.1987 99.561 49.2948 99.5326 49.3936 99.5237C49.4924 99.5148 49.592 99.5255 49.6867 99.5552C49.7813 99.585 49.8692 99.6332 49.9454 99.697C50.0215 99.7609 50.0844 99.8392 50.1304 99.9275C50.1764 100.016 50.2046 100.112 50.2135 100.212C50.2223 100.311 50.2117 100.411 50.1821 100.506C50.0181 101.033 46.0734 113.475 38.4624 118.225C35.644 119.983 32.6957 121.706 29.8443 123.373C25.3473 126.002 21.0996 128.484 19.1038 130.143C16.113 132.629 15.9285 135.087 15.9285 135.111C15.918 135.282 15.8503 135.445 15.7363 135.572C15.6223 135.7 15.4688 135.785 15.3007 135.813C15.2585 135.82 15.2159 135.823 15.1732 135.822Z" fill="#000072"/>
<path d="M25.4915 113.516C24.6817 113.516 22.0427 113.354 20.3701 111.352C18.9652 109.671 18.6395 107.192 19.4033 103.982C19.453 103.789 19.5759 103.624 19.7455 103.522C19.915 103.419 20.1178 103.388 20.3103 103.434C20.5027 103.48 20.6695 103.6 20.7747 103.769C20.8799 103.937 20.9152 104.14 20.873 104.334C20.2294 107.044 20.4461 109.073 21.5205 110.368C22.9765 112.121 25.6159 111.997 25.6399 111.995C25.8373 111.988 26.0297 112.058 26.176 112.192C26.3222 112.325 26.4106 112.511 26.4223 112.709C26.434 112.907 26.368 113.102 26.2384 113.251C26.1089 113.401 25.9261 113.494 25.7292 113.51C25.7112 113.511 25.627 113.516 25.4915 113.516Z" fill="#000072"/>
<path d="M30.6579 105.735C30.4825 105.734 30.3127 105.673 30.1776 105.561C30.0424 105.448 29.9504 105.292 29.9172 105.12L29.3663 102.258C29.3282 102.06 29.3699 101.855 29.4822 101.689C29.5944 101.522 29.7679 101.407 29.9646 101.369C30.1614 101.33 30.3651 101.372 30.5311 101.485C30.6971 101.598 30.8117 101.772 30.8497 101.97L31.4006 104.832C31.4218 104.942 31.4184 105.055 31.3909 105.163C31.3633 105.272 31.3122 105.373 31.2412 105.459C31.1702 105.545 31.0811 105.615 30.9803 105.662C30.8794 105.71 30.7693 105.735 30.6579 105.735Z" fill="#001364"/>
<path d="M31.5839 104.652C31.6311 106.137 31.2067 107.744 30.1082 108.778C30.6918 107.595 30.6004 106.175 30.1082 104.985C30.0537 104.896 30.0171 104.797 30.0005 104.694C29.9839 104.591 29.9877 104.486 30.0116 104.385C30.0355 104.283 30.0791 104.188 30.1398 104.103C30.2006 104.018 30.2773 103.947 30.3656 103.892C30.9376 103.545 31.61 104 31.5809 104.651L31.5839 104.652Z" fill="#001364"/>
<path d="M36.0577 105.833C35.8002 107.145 35.3904 108.459 34.5301 109.489C34.9008 108.308 34.7906 107.041 34.5472 105.865C34.5222 105.766 34.5169 105.663 34.5316 105.562C34.5464 105.461 34.5809 105.363 34.6332 105.276C34.6854 105.188 34.7545 105.112 34.8363 105.051C34.9181 104.99 35.011 104.946 35.1098 104.921C35.6496 104.771 36.1826 105.289 36.0577 105.833Z" fill="#001364"/>
<path d="M32.467 105.053C32.3429 105.053 32.2209 105.022 32.1115 104.963C32.0022 104.905 31.9089 104.82 31.84 104.716C31.771 104.613 31.7285 104.494 31.7161 104.37C31.7038 104.246 31.722 104.121 31.7692 104.005C31.8087 103.91 35.6839 94.3474 34.552 84.2848C34.5407 84.1858 34.549 84.0855 34.5763 83.9896C34.6036 83.8938 34.6495 83.8043 34.7112 83.7262C34.773 83.6482 34.8494 83.5831 34.9362 83.5347C35.023 83.4864 35.1185 83.4557 35.2171 83.4443C35.3157 83.433 35.4156 83.4413 35.511 83.4688C35.6064 83.4962 35.6955 83.5423 35.7732 83.6043C35.8509 83.6663 35.9157 83.7431 35.9638 83.8303C36.012 83.9175 36.0426 84.0134 36.0538 84.1124C37.2304 94.5759 33.3316 104.181 33.1651 104.586C33.1078 104.724 33.0108 104.843 32.8866 104.926C32.7623 105.009 32.6163 105.053 32.467 105.053Z" fill="#001364"/>
<path d="M66.9278 134.325C62.3437 134.325 59.8137 132.921 59.676 132.841C59.5791 132.786 59.4957 132.71 59.4315 132.618C59.3673 132.527 59.3241 132.422 59.3048 132.312C58.305 126.57 54.837 123.309 53.8191 122.461C52.1027 123.297 51.3823 128.515 51.4226 132.173C51.424 132.296 51.3955 132.418 51.3394 132.528C51.2834 132.637 51.2016 132.732 51.1011 132.803C51.0006 132.873 50.8844 132.919 50.7626 132.934C50.6409 132.95 50.5171 132.935 50.4022 132.892C50.3799 132.884 47.9915 132.01 45.7795 132.616C43.4584 133.252 40.4002 132.961 36.1547 131.704C33.0943 130.796 30.9904 132.261 30.9694 132.276C30.8521 132.36 30.7133 132.409 30.5692 132.417C30.4251 132.424 30.2819 132.39 30.1564 132.319C30.0309 132.247 29.9284 132.141 29.861 132.013C29.7936 131.885 29.7641 131.74 29.776 131.596L30.5853 121.556C30.6013 121.355 30.6961 121.169 30.8488 121.038C31.0015 120.908 31.1996 120.843 31.3996 120.859C31.5995 120.875 31.7849 120.971 31.915 121.124C32.0451 121.277 32.1092 121.476 32.0932 121.677L31.3916 130.384C32.5343 129.955 34.3593 129.586 36.5838 130.245C40.4942 131.404 43.3726 131.699 45.3834 131.15C47.1131 130.676 48.8656 130.925 49.9267 131.175C49.9555 130.197 50.0417 128.632 50.2928 127.018C50.8772 123.265 52.0701 121.196 53.8376 120.869C53.9366 120.851 54.0382 120.852 54.1365 120.874C54.2348 120.896 54.3278 120.937 54.41 120.995C54.6143 121.14 59.3417 124.562 60.7238 131.664C61.803 132.144 65.7581 133.581 72.0054 132.241C72.2 132.203 72.4019 132.242 72.5674 132.352C72.733 132.462 72.849 132.633 72.8904 132.827C72.9318 133.022 72.8953 133.226 72.7887 133.394C72.6821 133.562 72.5141 133.681 72.3208 133.725C70.2916 134.162 68.4902 134.325 66.9278 134.325Z" fill="#000072"/>
<path d="M31.1037 143.307C26.9603 143.307 24.1827 142.294 23.9806 142.217C23.8695 142.175 23.7698 142.108 23.6896 142.02C22.5062 140.727 22.3041 138.451 23.0889 135.253C23.5433 133.4 25.2293 132.218 27.8365 131.927C29.2997 131.763 29.982 131.138 30.0095 131.111C30.155 130.975 30.3481 130.901 30.5471 130.906C30.7462 130.911 30.9354 130.994 31.0741 131.138C31.2121 131.28 31.2883 131.472 31.2861 131.671C31.284 131.87 31.2036 132.06 31.0625 132.2C30.9582 132.303 29.9863 133.214 28.0034 133.435C26.6372 133.588 24.9302 134.09 24.556 135.616C23.9505 138.087 23.9982 139.935 24.6895 140.858C25.9549 141.267 33.7659 143.479 42.4084 138.99C42.5142 138.934 42.6314 138.905 42.7505 138.904C42.8696 138.904 42.9872 138.931 43.0937 138.985C43.2002 139.038 43.2926 139.116 43.3633 139.213C43.434 139.309 43.481 139.421 43.5005 139.539L43.6829 140.636C46.6201 140.758 49.8825 140.72 50.4404 140.438C50.4404 140.438 50.7536 140.161 50.6721 138.279C50.6155 136.971 50.3842 135.129 49.9225 132.307C49.9064 132.208 49.9097 132.108 49.9323 132.011C49.9549 131.914 49.9963 131.822 50.0541 131.741C50.112 131.66 50.1851 131.591 50.2694 131.539C50.3537 131.486 50.4474 131.451 50.5453 131.435C50.6432 131.419 50.7433 131.422 50.8399 131.445C50.9364 131.467 51.0276 131.509 51.1082 131.567C51.1888 131.625 51.2572 131.699 51.3095 131.783C51.3619 131.868 51.3971 131.962 51.4132 132.06C52.4962 138.677 52.4576 140.933 51.2475 141.72C50.1958 142.404 45.1298 142.231 43.0006 142.125C42.8284 142.116 42.6643 142.049 42.5356 141.934C42.4069 141.818 42.3213 141.662 42.293 141.492L42.1771 140.794C38.0577 142.741 34.2001 143.307 31.1037 143.307Z" fill="#000072"/>
<path d="M31.2041 140.568C27.3181 140.568 23.4052 139.774 23.2327 139.739C23.0397 139.695 22.8715 139.578 22.7641 139.411C22.6567 139.244 22.6188 139.041 22.6584 138.847C22.698 138.652 22.812 138.481 22.9759 138.37C23.1398 138.258 23.3406 138.216 23.5352 138.252C23.5781 138.261 27.855 139.127 31.7448 139.045C34.8566 138.979 37.3137 138.281 40.1582 137.474C40.9057 137.262 41.6785 137.043 42.5028 136.823C46.6269 135.723 51.248 136.317 51.4428 136.343C51.6381 136.373 51.8138 136.479 51.9324 136.638C52.0509 136.797 52.1029 136.996 52.077 137.192C52.0512 137.389 51.9497 137.568 51.7943 137.69C51.6388 137.813 51.4418 137.869 51.2454 137.848C51.2025 137.842 46.7196 137.268 42.8907 138.29C42.078 138.506 41.3108 138.724 40.5693 138.937C37.6248 139.772 35.0815 140.494 31.777 140.564C31.5864 140.566 31.3951 140.568 31.2041 140.568Z" fill="#000072"/>
<path d="M65.0398 146.384C61.1255 146.384 57.1335 145.104 56.9323 145.038C56.7985 144.995 56.6793 144.915 56.5884 144.807C56.4974 144.699 56.4382 144.568 56.4174 144.429C56.4049 144.346 56.1221 142.395 56.4174 140.24C56.6722 138.372 57.8793 137.162 58.9448 136.094C59.237 135.8 59.5133 135.524 59.7682 135.238C60.7552 134.129 60.7629 132.801 60.7629 132.788C60.762 132.587 60.8399 132.395 60.9798 132.251C61.1197 132.108 61.3103 132.026 61.51 132.023H61.5185C61.7163 132.023 61.9064 132.1 62.0476 132.239C62.1889 132.379 62.27 132.568 62.2733 132.766C62.2733 132.844 62.2905 134.685 60.8933 136.251C60.6106 136.568 60.3063 136.873 60.012 137.168C59.0289 138.154 58.0999 139.085 57.9141 140.444C57.7308 141.791 57.7999 143.068 57.8604 143.731C59.2876 144.141 63.7323 145.283 67.1565 144.702C69.9534 144.228 72.0762 143.467 73.6261 142.912C74.4667 142.61 75.1306 142.373 75.6682 142.265C76.789 142.04 79.3761 141.576 80.4574 141.383C80.6291 140.555 80.8801 138.658 80.1296 136.776C80.0927 136.684 80.0743 136.585 80.0755 136.485C80.0767 136.386 80.0974 136.287 80.1364 136.196C80.1754 136.104 80.232 136.021 80.303 135.951C80.3739 135.882 80.4578 135.827 80.5499 135.79C80.642 135.753 80.7404 135.734 80.8396 135.736C80.9388 135.737 81.0368 135.757 81.128 135.797C81.2192 135.836 81.3018 135.893 81.3711 135.964C81.4404 136.035 81.495 136.12 81.5319 136.212C82.7334 139.225 81.8323 142.152 81.792 142.275C81.7503 142.407 81.6734 142.525 81.5697 142.616C81.466 142.707 81.3394 142.768 81.2037 142.792C81.165 142.799 77.3529 143.475 75.9647 143.754C75.5356 143.84 74.9164 144.062 74.1338 144.342C72.531 144.917 70.3358 145.703 67.408 146.199C66.625 146.326 65.8329 146.388 65.0398 146.384Z" fill="#000072"/>
<path d="M64.7531 143.843C60.7397 143.843 56.9906 142.543 56.7988 142.476C56.7052 142.443 56.619 142.392 56.545 142.325C56.4711 142.259 56.4109 142.178 56.3678 142.089C56.3248 141.999 56.2998 141.901 56.2943 141.802C56.2888 141.702 56.3028 141.603 56.3356 141.509C56.3684 141.415 56.4193 141.328 56.4855 141.254C56.5516 141.179 56.6316 141.119 56.721 141.076C56.8104 141.033 56.9074 141.007 57.0065 141.002C57.1055 140.996 57.2047 141.01 57.2983 141.043C57.3524 141.062 62.7428 142.928 67.2042 142.121C68.945 141.807 70.4405 140.986 72.0239 140.117C74.4882 138.765 77.2812 137.232 81.3839 137.608C81.5811 137.629 81.7621 137.728 81.8879 137.882C82.0136 138.036 82.074 138.233 82.056 138.432C82.038 138.63 81.943 138.814 81.7915 138.942C81.6401 139.071 81.4444 139.135 81.2466 139.12C77.6031 138.786 75.1344 140.139 72.7503 141.447C71.1305 142.336 69.4557 143.255 67.4724 143.613C66.5745 143.77 65.6645 143.847 64.7531 143.843Z" fill="#000072"/>
<path d="M66.3786 137.68C66.2414 137.68 66.1069 137.642 65.9894 137.571C62.4887 135.453 59.8626 137.337 59.7523 137.419C59.5916 137.535 59.3919 137.583 59.1962 137.553C59.0005 137.523 58.8244 137.417 58.7059 137.257C58.5873 137.098 58.5357 136.898 58.5621 136.701C58.5886 136.504 58.691 136.325 58.8474 136.203C58.989 136.097 62.3703 133.61 66.769 136.271C66.9105 136.357 67.02 136.487 67.081 136.641C67.142 136.795 67.1511 136.965 67.1068 137.125C67.0625 137.284 66.9673 137.425 66.8358 137.526C66.7043 137.626 66.5437 137.68 66.3786 137.68Z" fill="#000072"/>
<path d="M41.6794 117.324C45.9417 119.457 50.7305 120.486 55.4729 119.986C57.0486 119.83 58.6234 119.53 60.245 119.184C54.6765 122.919 46.3326 122.264 41.6794 117.324Z" fill="#001364"/>
<path d="M83.8903 119.95C81.8679 117.853 79.9228 115.714 78.0437 113.493C76.1849 111.275 74.3535 109.004 72.8765 106.51C73.7094 107.693 74.6478 108.79 75.609 109.862C77.54 111.998 79.6078 114.007 81.7164 115.965C82.7725 116.942 83.8452 117.912 84.9257 118.846C85.6886 119.554 84.6476 120.676 83.8903 119.952V119.95Z" fill="#000072"/>
<path d="M84.1966 135.596C83.3384 135.596 82.7514 135.547 82.6785 135.541C82.4816 135.52 82.3007 135.422 82.1748 135.268C82.049 135.115 81.9881 134.918 82.0054 134.72C82.0226 134.521 82.1166 134.338 82.2671 134.209C82.4177 134.08 82.6127 134.015 82.8102 134.029C82.8613 134.033 87.9642 134.455 90.1848 132.706C92.4161 130.949 93.0439 128.227 93.0499 128.2C93.0962 128.007 93.2161 127.84 93.3838 127.734C93.5516 127.629 93.7538 127.594 93.947 127.637C94.1403 127.679 94.3091 127.796 94.4173 127.963C94.5255 128.129 94.5643 128.332 94.5256 128.527C94.4968 128.659 93.7867 131.798 91.1172 133.9C89.2669 135.358 86.0821 135.596 84.1966 135.596Z" fill="#000072"/>
<path d="M84.7442 133.786C84.3378 133.786 84.0744 133.77 84.0422 133.768C83.9415 133.764 83.8427 133.74 83.7514 133.697C83.6602 133.654 83.5784 133.593 83.5109 133.518C83.4434 133.443 83.3916 133.355 83.3584 133.259C83.3252 133.164 83.3114 133.062 83.3177 132.961C83.3241 132.86 83.3505 132.762 83.3954 132.671C83.4402 132.581 83.5027 132.5 83.5791 132.434C83.6555 132.368 83.7442 132.318 83.8401 132.287C83.936 132.256 84.0371 132.244 84.1374 132.253C84.1593 132.255 86.3726 132.385 88.0243 131.819C89.6759 131.252 90.9053 129.729 91.0014 128.121C91.0054 128.02 91.0295 127.921 91.0721 127.83C91.1147 127.738 91.175 127.656 91.2496 127.589C91.3241 127.521 91.4113 127.469 91.5061 127.435C91.6009 127.402 91.7014 127.388 91.8017 127.394C91.902 127.4 92.0001 127.426 92.0902 127.471C92.1804 127.515 92.2607 127.577 92.3267 127.654C92.3926 127.73 92.4427 127.818 92.4742 127.914C92.5056 128.01 92.5177 128.111 92.5097 128.212C92.3758 130.453 90.7697 132.479 88.5126 133.255C87.1824 133.711 85.6247 133.786 84.7442 133.786Z" fill="#000072"/>
<path d="M30.6501 130.936C30.5374 130.936 30.4261 130.911 30.3244 130.862C30.2226 130.813 30.1331 130.742 30.0623 130.654C28.0811 128.193 24.0643 126.469 24.0239 126.452C23.8424 126.372 23.6995 126.223 23.6262 126.038C23.5529 125.853 23.555 125.646 23.632 125.463C23.7091 125.279 23.8549 125.133 24.0381 125.057C24.2212 124.98 24.427 124.979 24.6109 125.054C24.7899 125.13 29.0148 126.94 31.2371 129.7C31.3268 129.811 31.3832 129.946 31.3999 130.088C31.4166 130.23 31.3929 130.374 31.3315 130.504C31.2701 130.633 31.1735 130.742 31.053 130.819C30.9324 130.895 30.7927 130.936 30.6501 130.936Z" fill="#000072"/>
<path d="M50.6777 132.004C50.5346 132.003 50.3945 131.963 50.2737 131.886C50.1528 131.809 50.0563 131.699 49.9952 131.569C49.9342 131.439 49.9111 131.294 49.9288 131.151C49.9464 131.009 50.0041 130.874 50.0949 130.763C50.1808 130.659 52.2216 128.21 55.2013 127.924C56.8962 127.761 58.5316 128.322 60.0613 129.592C60.2157 129.72 60.3131 129.905 60.3321 130.105C60.351 130.305 60.29 130.505 60.1624 130.66C60.0347 130.815 59.851 130.913 59.6515 130.932C59.4521 130.951 59.2533 130.89 59.0988 130.762C54.9751 127.339 51.408 131.549 51.2578 131.729C51.1871 131.815 51.0984 131.884 50.9981 131.931C50.8979 131.979 50.7885 132.003 50.6777 132.004Z" fill="#000072"/>
<path d="M14.4296 104.667C14.4545 105.131 14.6703 106.352 16.1533 107.58C17.8839 107.556 46.4665 107.153 49.4041 107.027L49.0518 103.89C44.4647 103.99 17.1329 104.606 14.4296 104.667Z" fill="#8A56C7"/>
<path d="M51.4179 103.208C48.3219 94.7707 43.1963 81.4871 42.3286 80.9815C41.4369 80.6634 19.9462 80.816 5.65915 80.9974C4.96358 81.7302 3.93974 82.9961 3.97449 83.4883C4.09035 84.1822 10.2145 96.2245 14.3433 104.229C17.0467 104.168 49.4831 103.437 49.704 103.437C49.7766 103.432 50.4099 103.347 51.4179 103.208ZM24.4414 91.6135C21.9526 91.6135 19.9273 90.2545 19.9273 88.5834C19.9273 86.9123 21.9522 85.5533 24.4414 85.5533C26.9307 85.5533 28.9556 86.9123 28.9556 88.5834C28.9556 90.2545 26.9307 91.6148 24.4414 91.6148V91.6135ZM43.1872 89.1506L42.1235 86.3688L41.5798 84.9848L41.2975 84.2999C41.2481 84.1878 41.2014 84.0723 41.1499 83.9637C41.0984 83.8551 41.0456 83.7409 40.9971 83.6534C40.9952 83.6514 40.9938 83.649 40.9928 83.6465H40.9842C40.9392 83.6379 40.8757 83.6318 40.8186 83.6262C40.7002 83.6159 40.5787 83.6086 40.4569 83.6021C40.2127 83.5896 39.966 83.5823 39.7201 83.5749L38.2393 83.5491L35.2733 83.5344C31.317 83.5042 27.3593 83.5318 23.4017 83.5249L17.4651 83.5167L11.5271 83.4736C13.5057 83.3995 15.4843 83.3568 17.4629 83.3012L23.3991 83.187C25.3782 83.1439 27.3572 83.1379 29.3362 83.1198L35.2746 83.0943C36.2647 83.1004 37.2549 83.1116 38.2453 83.128L39.7321 83.1637C39.9806 83.1732 40.2286 83.1818 40.4787 83.1965C40.6036 83.2038 40.7289 83.212 40.8568 83.2245C40.9229 83.2314 40.9829 83.2366 41.0593 83.2512L41.116 83.2624C41.1569 83.2738 41.196 83.2912 41.2318 83.3142C41.2707 83.3534 41.3052 83.3967 41.3348 83.4435C41.3993 83.5597 41.4579 83.6791 41.5103 83.8012C41.5644 83.9172 41.6099 84.0322 41.6596 84.146L41.9403 84.84L42.4775 86.2343C42.8307 87.1636 43.1701 88.0981 43.5035 89.036C44.1726 90.9075 44.8329 92.7818 45.4842 94.6591C46.1227 96.5413 46.7716 98.4197 47.3873 100.309L43.1872 89.1506Z" fill="#8A56C7"/>
<path d="M24.4414 85.9947C22.1938 85.9947 20.365 87.1584 20.365 88.5847C20.365 90.0109 22.1938 91.1747 24.4414 91.1747C26.6891 91.1747 28.5179 90.0109 28.5179 88.5847C28.5179 87.1584 26.6891 85.9947 24.4414 85.9947Z" fill="white"/>
<path d="M49.704 103.876L49.4921 103.88L49.8409 106.99C52.776 106.666 67.3483 104.855 68.5902 104.289C68.5687 103.808 68.1611 102.33 67.8607 101.345C64.4575 101.827 49.9297 103.876 49.704 103.876Z" fill="#8A56C7"/>
<g opacity="0.25">
<path d="M32.6038 98.2762C24.3805 100.746 15.0269 101.346 15.0269 101.346C15.0269 101.346 15.5358 102.619 15.4792 102.846C15.4225 103.073 46.1678 101.881 46.1678 101.881L41.509 89.676C41.509 89.676 40.8267 95.8069 32.6038 98.2762Z" fill="#000072"/>
</g>
<g opacity="0.25">
<path d="M16.355 105.94C16.355 105.94 17.381 107.563 17.4565 107.561C23.421 107.475 46.7642 107.14 49.4024 107.027L49.2252 105.45H48.2447L16.355 105.94Z" fill="#6841B2"/>
</g>
<g opacity="0.25">
<path d="M49.6616 105.394L49.8409 106.991C51.3475 106.825 55.92 106.266 60.1823 105.686C63.9455 105.11 67.3445 104.591 67.4277 104.579H67.432L67.2771 103.003L49.6616 105.394Z" fill="#6841B2"/>
</g>
<g opacity="0.4">
<path d="M39.6682 85.5546C41.4202 85.8132 44.8084 93.4587 44.8084 93.4587V93.4561L43.1881 89.1519L42.1244 86.3701L41.5807 84.9861L41.2983 84.3012C41.249 84.1891 41.2022 84.0736 41.1507 83.965C41.0992 83.8564 41.0465 83.7422 40.998 83.6547C40.9961 83.6527 40.9946 83.6503 40.9937 83.6478H40.9851C40.94 83.6392 40.8765 83.6331 40.8195 83.6275C40.701 83.6172 40.5796 83.6098 40.4577 83.6034C40.2136 83.5909 39.9668 83.5836 39.721 83.5762L38.2401 83.5504L35.2742 83.5357C31.3178 83.5055 27.3602 83.5331 23.4026 83.5262L17.4659 83.518L11.528 83.4749C13.5066 83.4008 15.4852 83.3581 17.4638 83.3025L23.3991 83.187C25.3782 83.1439 27.3572 83.1379 29.3362 83.1198L35.2746 83.0943C36.2647 83.1004 37.2549 83.1116 38.2453 83.128L39.7321 83.1637C39.9806 83.1732 40.2286 83.1818 40.4787 83.1965C40.6036 83.2038 40.7289 83.212 40.8568 83.2245C40.9229 83.2314 40.9829 83.2366 41.0593 83.2512L41.116 83.2624C41.1569 83.2738 41.196 83.2912 41.2318 83.3142C41.2707 83.3534 41.3052 83.3967 41.3348 83.4435C41.3993 83.5597 41.4579 83.6791 41.5103 83.8012C41.5644 83.9172 41.6099 84.0322 41.6596 84.146L41.7386 84.3413L42.3526 84.0551L50.267 103.365C50.5558 103.326 50.945 103.273 51.4179 103.208C48.3219 94.7707 43.1963 81.4871 42.3286 80.9815C41.4369 80.6634 19.9462 80.816 5.65915 80.9974C4.96358 81.7302 3.93974 82.9961 3.97449 83.4883C4.00196 83.6508 4.36069 84.4365 4.94298 85.6481C4.94298 85.6481 37.9161 85.2934 39.6682 85.5546Z" fill="white"/>
</g>
<path d="M16.0769 108.56C15.9044 108.56 15.7371 108.5 15.6028 108.392C13.2766 106.51 13.4517 104.462 13.4603 104.376C13.4785 104.192 13.5633 104.02 13.6987 103.895C13.834 103.769 14.0105 103.697 14.1949 103.693C17.7436 103.613 48.4017 102.922 49.665 102.898C50.3747 102.822 63.0461 101.038 67.91 100.351C68.0877 100.326 68.2685 100.365 68.4202 100.461C68.572 100.557 68.6848 100.704 68.7386 100.876C69.0725 101.949 69.623 103.842 69.5608 104.47C69.4926 105.151 69.0682 105.313 66.0653 105.81C64.527 106.065 62.3888 106.377 59.7107 106.736C55.1373 107.351 50.3249 107.925 49.7289 107.986C48.6519 108.1 19.4192 108.512 16.0894 108.558L16.0769 108.56ZM15.0698 105.192C15.2153 105.666 15.5556 106.339 16.3473 107.038C25.5507 106.909 48.6502 106.569 49.5689 106.478C51.6037 106.263 65.2637 104.578 67.9937 103.907C67.8967 103.438 67.6968 102.682 67.4788 101.944C49.9765 104.415 49.771 104.415 49.7027 104.415C49.3105 104.42 20.4096 105.071 15.0698 105.192Z" fill="#9D6FD8"/>
<path d="M14.2125 105.212C14.0739 105.212 13.938 105.174 13.8196 105.102C13.7012 105.03 13.605 104.926 13.5414 104.802C13.5152 104.752 10.9105 99.7033 8.33204 94.622C3.04892 84.2081 3.02232 83.8335 3.00258 83.5581C2.93263 82.5715 4.23839 81.0621 5.0228 80.2505C5.09205 80.1787 5.17475 80.1214 5.26615 80.0819C5.35755 80.0424 5.45582 80.0215 5.55531 80.0203C16.3211 79.8828 41.4897 79.6134 42.6826 80.0699C43.1521 80.2496 43.7369 80.4733 48.2142 91.9773C50.3696 97.5159 52.4061 103.07 52.4267 103.126C52.4837 103.312 52.4677 103.512 52.382 103.686C52.2963 103.86 52.1474 103.995 51.9659 104.062C51.7845 104.129 51.5843 104.124 51.4066 104.047C51.2289 103.971 51.0872 103.829 51.0107 103.65C47.4062 93.8078 43.1152 82.89 42.0621 81.4836C39.8055 81.2138 19.5243 81.3616 5.89645 81.5336C5.22061 82.2707 4.61558 83.1038 4.52332 83.4327C5.03267 84.8503 10.9483 96.4719 14.8857 104.102C14.9459 104.218 14.9752 104.348 14.9709 104.478C14.9666 104.609 14.9287 104.736 14.861 104.848C14.7932 104.96 14.6979 105.052 14.5843 105.116C14.4707 105.179 14.3426 105.213 14.2125 105.212Z" fill="#000072"/>
<path d="M11.5271 83.4754C20.4216 82.7129 29.3328 82.4771 38.253 82.5892C39.1026 82.6323 40.3221 82.612 41.1563 82.7392C41.3468 82.7702 41.5549 82.8685 41.6712 83.0297C42.0175 83.5064 42.175 84.1322 42.4007 84.6542C44.2919 89.7977 45.9528 95.0155 47.3834 100.308C45.0521 95.1017 42.6633 88.8808 40.6324 84.0167C40.7066 84.0825 40.7946 84.1307 40.8898 84.1577C40.813 84.1525 40.5101 84.1309 40.4264 84.1279C30.7995 83.9921 21.1433 84.1184 11.5254 83.4754H11.5271Z" fill="#000072"/>
<path d="M49.6465 107.992C49.461 107.992 49.282 107.923 49.1438 107.799C49.0055 107.674 48.9177 107.503 48.8969 107.318L48.4965 103.751C48.4854 103.652 48.4939 103.552 48.5214 103.456C48.5488 103.36 48.5948 103.271 48.6567 103.193C48.7186 103.115 48.7951 103.05 48.882 103.002C48.9689 102.954 49.0643 102.923 49.1629 102.912C49.2616 102.901 49.3614 102.909 49.4567 102.937C49.5521 102.964 49.6411 103.011 49.7187 103.073C49.7963 103.135 49.8609 103.212 49.9089 103.299C49.9569 103.386 49.9873 103.482 49.9984 103.581L50.3988 107.148C50.4099 107.247 50.4014 107.348 50.374 107.443C50.3465 107.539 50.3006 107.628 50.2387 107.706C50.1769 107.784 50.1004 107.849 50.0136 107.897C49.9268 107.945 49.8313 107.976 49.7328 107.987C49.7042 107.991 49.6754 107.992 49.6465 107.992Z" fill="#000072"/>
<path d="M24.4414 92.1522C21.6094 92.1522 19.3905 90.5846 19.3905 88.5834C19.3905 86.5822 21.6094 85.0141 24.4414 85.0141C27.2735 85.0141 29.492 86.5822 29.492 88.5834C29.492 90.5846 27.2735 92.1522 24.4414 92.1522ZM24.4414 86.5322C22.5555 86.5322 20.9013 87.4908 20.9013 88.5834C20.9013 89.676 22.5555 90.6346 24.4414 90.6346C26.3273 90.6346 27.9811 89.676 27.9811 88.5834C27.9811 87.4908 26.3269 86.5335 24.4414 86.5335V86.5322Z" fill="#000072"/>
<path d="M68.9751 17.018C69.6316 15.4836 73.5768 6.67997 77.5481 6.84979C78.2244 6.87737 78.8702 7.29417 79.4679 8.0894C82.4369 12.0354 83.759 24.9186 82.7064 29.5439C82.8609 29.8215 83.0118 30.1019 83.1591 30.3852C84.0692 32.1473 84.8553 33.8511 85.5376 35.4933C88.0264 24.5759 85.4947 11.1281 81.6182 4.73434C80.3553 2.65035 78.9861 1.38229 77.6584 1.06764C72.2144 -0.228005 63.1298 12.7078 61.7112 14.7866C62.0316 14.8458 62.3517 14.9093 62.6715 14.9771C64.837 15.4379 66.9493 16.1218 68.9751 17.018Z" fill="#FAA327"/>
<path d="M85.7667 67.469C87.7518 65.1846 88.9983 61.0373 89.2197 56.1331C86.2739 50.9152 82.3279 48.3748 77.1585 48.3748H77.089C72.7121 48.3942 68.4541 50.2394 65.3453 51.5867C63.9558 52.1902 62.8565 52.6643 62.0725 52.8367C59.349 53.4401 56.5555 52.3195 53.3188 51.0195C51.8006 50.41 50.2395 49.7868 48.5648 49.2864C48.5897 49.4319 48.5875 49.5808 48.5583 49.7256C48.2678 51.2803 45.4229 54.0155 43.945 54.1604C43.8373 54.1711 43.7253 54.1763 43.6099 54.1763C43.5104 54.1763 43.4074 54.1716 43.3027 54.1638L43.5812 57.618C43.8158 57.7832 44.0612 57.9323 44.3158 58.0645C44.5996 58.2181 44.8919 58.3554 45.1912 58.4757C45.7896 58.7155 46.4164 58.8763 47.056 58.9542C47.2157 58.9662 47.3757 59.0016 47.5366 58.9973L48.0198 59.0029C48.1803 58.9947 48.3403 58.9731 48.5021 58.9598C48.5824 58.9511 48.6643 58.9494 48.7437 58.9348L48.9814 58.8848C49.6272 58.7822 50.2288 58.5111 50.833 58.2335C50.2868 58.6055 49.695 58.9499 49.0368 59.1167L48.793 59.1895C48.7115 59.2111 48.627 59.2205 48.5437 59.2365C48.3768 59.2641 48.2095 59.2986 48.0408 59.3158L47.5311 59.3404C47.3594 59.3537 47.1912 59.3296 47.0208 59.324C46.3411 59.2713 45.6725 59.1195 45.0362 58.8736C44.4504 58.6503 43.8943 58.3549 43.3808 57.9943C43.0255 58.2766 42.6436 58.5348 42.2063 58.6779C41.7262 58.8581 41.2121 58.9287 40.7014 58.8843C40.2018 58.842 39.7127 58.7158 39.2545 58.5111C38.8025 58.3136 38.3822 58.05 38.0071 57.7288C38.4199 57.9822 38.8609 58.1861 39.321 58.3361C39.7711 58.485 40.2409 58.5652 40.7147 58.574C40.8315 58.5697 40.9486 58.577 41.064 58.5637L41.4073 58.5167C41.5215 58.4981 41.6305 58.4568 41.7424 58.4305C41.7978 58.4145 41.8544 58.4038 41.9085 58.3844L42.0677 58.3163C42.4689 58.1714 42.8113 57.9085 43.1426 57.6391L42.8581 54.1086C41.2125 53.8444 39.2064 52.7828 38.3525 51.3264C38.1341 50.9544 38.0994 50.5807 38.2483 50.2156C38.3164 50.0559 38.41 49.9084 38.5255 49.779C37.2755 50.3889 36.2598 51.11 35.4462 51.688C32.7978 53.5698 29.7786 52.8087 27.4439 51.9315C24.9697 51.0057 22.492 53.5621 22.132 53.953C21.6493 57.7331 21.5523 60.2494 21.5506 60.289V60.2964C21.2682 64.3911 25.6592 71.8305 43.9047 73.7442C63.8623 75.845 81.6619 72.193 85.7667 67.469Z" fill="white"/>
<path d="M27.5988 52.4324C30.9612 53.6923 33.2329 53.6362 35.1939 52.2419C36.561 51.2704 38.4838 49.9062 41.1155 49.2946C41.1584 49.2821 41.1889 48.3674 41.2014 48.364C42.9062 47.8511 46.5411 48.8299 48.1052 49.6058C50.0237 50.1355 51.7779 50.8385 53.4806 51.5216C56.6482 52.7927 59.3842 53.8923 61.9768 53.3177C62.7222 53.1531 63.8563 52.6617 65.1698 52.0923C71.1794 49.4877 82.27 44.6826 89.2446 56.2181C89.2536 55.8073 89.2562 54.4858 89.2506 54.0664C89.185 48.9497 88.0054 40.7228 82.7703 30.5878C79.7366 24.7147 74.9731 20.2235 69.0296 17.524C69.021 17.5214 69.012 17.524 69.0034 17.5188C68.9914 17.5123 68.98 17.5047 68.9695 17.496C66.9194 16.5743 64.7776 15.8743 62.5801 15.4077C60.2655 14.9116 57.9053 14.6613 55.5386 14.6612C53.6073 14.661 51.6796 14.8294 49.7774 15.1646C49.767 15.1732 49.7558 15.1807 49.7439 15.187C49.7027 15.2022 49.6577 15.2043 49.6152 15.1931C44.6423 16.0982 39.9793 18.1391 36.1375 21.2067C29.1367 26.7961 25.5442 37.1178 23.7635 44.7921C23.0481 47.8743 22.562 51.6923 22.229 54.1453C23.1584 53.2638 25.3267 51.5803 27.5988 52.4324Z" fill="#FAA327"/>
<path d="M34.5953 9.24799H34.5691C31.6684 9.24799 31.0646 21.5088 30.8359 26.1332C30.8321 26.2147 30.8282 26.2944 30.8239 26.3729C32.2721 24.2859 33.9383 22.3984 35.8633 20.8614C37.6727 19.4224 39.6451 18.2033 41.7394 17.2296C41.7221 17.2132 41.7076 17.194 41.6965 17.1727C41.6566 17.0943 37.7741 9.32859 34.5953 9.24799Z" fill="#FEC7D7"/>
<path d="M30.3511 27.0754C30.3661 26.7841 30.3824 26.4617 30.3991 26.1108C30.8424 17.121 31.6551 8.80747 34.567 8.80747H34.6065C38.047 8.89368 41.9244 16.6464 42.0875 16.9766C42.101 17.0034 42.1087 17.0328 42.1098 17.0628C44.4225 16.0236 46.8497 15.2633 49.3406 14.7978C48.1867 12.3862 43.243 6.61056 38.9537 4.45589C36.9773 3.46454 35.4604 3.26066 34.1791 3.81884C32.179 4.69079 30.5321 7.50234 29.0037 12.6673C26.7028 20.4403 26.5608 30.9956 26.5788 34.3476C27.6129 31.8322 28.8578 29.3491 30.3511 27.0754Z" fill="#FAA327"/>
<path d="M47.9542 49.114C47.7126 49.0476 47.4697 48.9847 47.2247 48.923C44.8689 48.3485 42.8633 48.4299 41.1619 48.8342C40.4448 49.0497 38.9662 49.632 38.6568 50.3898C38.5615 50.6238 38.5864 50.8592 38.7331 51.11C39.6943 52.7479 42.3501 53.8785 43.9064 53.7276C45.1937 53.6013 47.8778 51.0096 48.1314 49.6493C48.194 49.3049 48.0743 49.1795 47.9542 49.114Z" fill="#000072"/>
<path d="M77.5301 7.28899C77.4992 7.28899 77.4674 7.28899 77.4365 7.28899C73.8183 7.28899 69.9903 15.7801 69.375 17.2025C74.8435 19.7222 79.3177 23.7492 82.3755 28.9646C83.2303 24.0596 81.9327 12.0957 79.1186 8.35533C78.6033 7.66958 78.069 7.3114 77.5301 7.28899Z" fill="#FEC7D7"/>
<g opacity="0.25">
<path d="M41.6953 17.1727C41.6566 17.0943 37.7741 9.32816 34.5953 9.24799H34.5691C33.0244 9.24799 32.1314 12.7242 31.5993 16.6732C31.5993 16.6732 32.8227 11.5729 34.9399 11.4134C36.4992 11.2958 39.651 17.0969 40.1483 18.0313C40.6696 17.7492 41.1999 17.4819 41.7395 17.2296C41.7216 17.2133 41.7067 17.1941 41.6953 17.1727Z" fill="#001364"/>
</g>
<path d="M37.7097 8.4118C34.7704 5.98472 32.2906 7.00667 31.1037 9.88072C29.9168 12.7548 27.6829 21.4829 28.0051 31.1904L28.0193 31.168C28.7142 29.7574 29.4929 28.3901 30.3511 27.0733C30.3661 26.7819 30.3824 26.4595 30.3991 26.1086C30.8424 17.1188 31.6551 8.80532 34.567 8.80532H34.6065C38.047 8.89152 41.9244 16.6443 42.0875 16.9745C42.0989 16.9987 42.1057 17.0249 42.1076 17.0516L42.1801 17.0301C42.6902 16.8002 43.2074 16.5847 43.7318 16.3835C43.2027 15.4603 40.3625 10.6031 37.7097 8.4118Z" fill="#EF7F25"/>
<g opacity="0.25">
<path d="M77.9064 10.285C79.8503 11.3729 81.6293 15.4879 81.6903 15.6297C81.0895 12.5548 80.2223 9.82124 79.1186 8.35404C78.6037 7.66915 78.0691 7.31097 77.531 7.28856C77.5001 7.28856 77.4683 7.28856 77.4374 7.28856C73.8192 7.28856 69.9912 15.7797 69.3758 17.202C70.542 17.7414 71.6724 18.3555 72.7602 19.0403C73.2721 17.4994 76.1123 9.28117 77.9064 10.285Z" fill="#001364"/>
</g>
<path d="M85.423 27.784C85.1493 20.8136 84.2928 14.1452 82.6338 10.0579C80.9749 5.9705 78.5269 3.67143 74.6839 6.25454C70.8408 8.83765 66.5013 16.0443 66.5013 16.0443L66.5116 16.0495C67.3518 16.3406 68.1725 16.6634 68.9738 17.018C69.6303 15.4836 73.5755 6.67996 77.5468 6.84978C78.2231 6.87737 78.8689 7.29416 79.4666 8.0894C82.3193 11.8824 83.6517 23.9208 82.8175 28.9616V28.9646C82.8175 28.9646 82.7746 29.3249 82.7437 29.6167C82.8844 29.871 83.0235 30.1266 83.1578 30.3861C84.0014 32.0197 84.7343 33.6002 85.381 35.1308C85.481 34.4618 85.6135 32.6283 85.423 27.784Z" fill="#EF7F25"/>
<g opacity="0.25">
<path d="M79.065 68.019C71.0176 70.6146 49.435 72.2335 37.2274 69.3814C21.9213 65.8039 22.2277 55.312 22.2277 55.312C22.041 56.0206 21.8883 56.6792 21.7651 57.299C21.5935 59.1524 21.5506 60.2705 21.5506 60.2981V60.3054C21.2682 64.4001 25.6592 71.8395 43.9047 73.7533C63.8606 75.8454 81.6602 72.1934 85.765 67.4694C86.9378 66.1199 87.85 64.1169 88.4482 61.6959C87.6702 62.9855 85.2634 66.0199 79.065 68.019Z" fill="#000072"/>
</g>
<g opacity="0.25">
<path d="M41.5099 57.0982C41.0074 58.0232 38.3345 57.8882 38.268 57.8848C38.6052 58.0692 38.9584 58.2226 39.3232 58.343C39.7733 58.4919 40.2431 58.5721 40.7169 58.5809C40.8336 58.5766 40.9508 58.5839 41.0662 58.5705L41.4095 58.5236C41.5236 58.505 41.6326 58.4637 41.7446 58.4374C41.8 58.4214 41.8566 58.4106 41.9107 58.3912L42.0699 58.3231C42.4711 58.1783 42.8135 57.9154 43.1448 57.646L42.8603 54.1155C42.5029 54.056 42.1509 53.9676 41.8077 53.8513C41.8519 54.5892 41.9081 56.365 41.5099 57.0982Z" fill="#001364"/>
</g>
<g opacity="0.25">
<path d="M45.4731 57.0982C44.7809 56.2844 44.6943 54.5939 44.6874 53.9388C44.4188 54.0634 44.1678 54.1435 43.9472 54.1651C43.8395 54.1759 43.7275 54.181 43.6121 54.181C43.5125 54.181 43.4095 54.1763 43.3048 54.1685L43.5833 57.6227C43.818 57.7879 44.0634 57.9371 44.3179 58.0693C44.6018 58.2228 44.894 58.3601 45.1933 58.4805C45.7917 58.7202 46.4186 58.881 47.0582 58.9589C47.2178 58.971 47.3779 59.0063 47.5388 59.002L48.022 59.0076C48.1824 58.9994 48.3425 58.9779 48.5043 58.9645C48.5845 58.9559 48.6665 58.9542 48.7459 58.9395L48.9836 58.8895C49.2248 58.8499 49.4623 58.7904 49.6937 58.7115C49.6937 58.7115 46.342 58.1201 45.4731 57.0982Z" fill="#001364"/>
</g>
<g opacity="0.4">
<path d="M76.4797 2.53613C80.0747 2.10123 83.2638 8.1394 83.3814 8.36482C82.839 6.9972 82.2468 5.7718 81.6182 4.73434C80.3553 2.65035 78.9861 1.38229 77.6584 1.06764C72.2144 -0.228005 63.1298 12.7078 61.7112 14.7866C62.0316 14.8458 62.3517 14.9093 62.6715 14.9771C62.9433 15.0346 63.2134 15.0961 63.4817 15.1616C63.4817 15.1616 72.8151 2.97922 76.4797 2.53613Z" fill="white"/>
</g>
<g opacity="0.4">
<path d="M77.2001 22.4596C75.9643 21.1623 74.4938 20.0632 72.9091 19.1313C74.4614 20.1186 75.9165 21.2523 77.2546 22.517C77.2349 22.4993 77.2181 22.4786 77.2001 22.4596Z" fill="white"/>
</g>
<g opacity="0.4">
<path d="M56.9769 14.2556H56.9709C56.1758 14.1608 55.179 14.1655 54.053 14.2582C55.0239 14.2151 55.9986 14.2142 56.9769 14.2556Z" fill="white"/>
</g>
<g opacity="0.4">
<path d="M37.1017 5.09078C39.9029 5.71188 44.4334 10.6393 47.5049 15.1986C48.1111 15.0478 48.723 14.9142 49.3406 14.7978C48.1867 12.3862 43.243 6.61056 38.9537 4.45589C36.9773 3.46454 35.4604 3.26066 34.1791 3.81884C33.178 4.25503 32.2666 5.17569 31.4139 6.6334C31.4139 6.6334 34.2194 4.45201 37.1017 5.09078Z" fill="white"/>
</g>
<g opacity="0.4">
<path d="M39.6025 21.5941C40.4886 22.3812 42.4569 22.5514 44.5346 21.9243C47.1041 21.1485 48.8686 19.4489 48.4712 18.1279C48.4262 17.9845 48.3576 17.8497 48.2683 17.7292C60.3158 14.9728 76.747 21.2204 83.9594 33.0093C83.5873 32.2154 83.193 31.4089 82.7695 30.5891C79.7357 24.716 74.9722 20.2248 69.0287 17.5253C69.0201 17.5227 69.0111 17.5253 69.0025 17.5201C68.9905 17.5136 68.9792 17.506 68.9686 17.4973C66.9186 16.5756 64.7767 15.8756 62.5793 15.409C60.2646 14.9128 57.9045 14.6626 55.5377 14.6625C53.6064 14.6623 51.6788 14.8307 49.7766 15.1659C49.7662 15.1745 49.755 15.182 49.7431 15.1883C49.7018 15.2035 49.6569 15.2056 49.6143 15.1943C44.6415 16.0995 39.9784 18.1404 36.1366 21.2079C31.2848 25.0807 28.0712 31.2275 25.9622 37.1911C26.0604 36.9949 30.8788 27.4526 39.6025 21.5941Z" fill="white"/>
</g>
<g opacity="0.4">
<path d="M52.2152 24.4014C53.1914 24.2721 53.911 23.6182 53.8217 22.9424C53.7325 22.2665 52.8687 21.8217 51.8908 21.9536C50.9128 22.0855 50.1949 22.7368 50.2842 23.4126C50.3734 24.0885 51.2385 24.5316 52.2152 24.4014Z" fill="white"/>
</g>
<g opacity="0.4">
<path d="M43.2967 50.1595C45.6981 49.9179 47.6107 49.3789 47.5685 48.9556C47.5263 48.5324 45.5453 48.3851 43.1438 48.6267C40.7424 48.8684 38.8298 49.4074 38.872 49.8306C38.9142 50.2539 40.8952 50.4012 43.2967 50.1595Z" fill="white"/>
</g>
<path d="M55.6111 75.3502C51.6677 75.3478 47.727 75.1396 43.8052 74.7265C20.5074 72.2822 20.4954 61.5338 20.5791 60.2502C20.5928 59.9054 20.897 52.8367 22.8126 44.5775C25.4537 33.1908 29.7327 25.0699 35.5295 20.4403C42.8435 14.5991 53.0317 12.36 62.7831 14.4491C72.0281 16.4318 79.4323 22.0015 83.6375 30.1357C93.3782 48.9928 90.565 63.4363 86.5031 68.1112C83.0844 72.0451 71.0678 75.3498 55.6111 75.3502ZM55.5364 15.1995C48.518 15.1995 41.7137 17.4408 36.4696 21.6286C23.2532 32.183 22.0985 60.0378 22.0887 60.3179V60.3429C22.0505 60.8938 22.0286 63.7954 25.331 66.794C29.0213 70.1465 35.2917 72.3076 43.9635 73.2162C53.3514 74.2007 62.9427 73.9847 70.9704 72.6089C78.0476 71.396 83.4281 69.3418 85.3638 67.1134C89.445 62.4153 91.191 48.0558 82.2953 30.8352C78.3046 23.1109 71.2643 17.8184 62.4707 15.9335C60.1913 15.4454 57.8671 15.1994 55.5364 15.1995Z" fill="#000072"/>
<path d="M26.3733 36.1803C26.1767 36.1804 25.9878 36.1034 25.8468 35.9658C25.7059 35.8281 25.6239 35.6407 25.6185 35.4433C25.603 34.8924 25.2696 21.8476 28.0695 12.388C29.7087 6.85022 31.4736 3.93048 33.7916 2.92103C35.357 2.24131 37.1356 2.44907 39.388 3.5805C44.0317 5.91275 49.429 12.3621 50.3623 14.7008C50.3991 14.7933 50.4175 14.8923 50.4163 14.9919C50.4151 15.0915 50.3944 15.19 50.3553 15.2816C50.3162 15.3731 50.2596 15.4561 50.1886 15.5257C50.1176 15.5953 50.0336 15.6502 49.9415 15.6872C49.8494 15.7242 49.751 15.7427 49.6518 15.7415C49.5526 15.7403 49.4546 15.7194 49.3634 15.6802C49.2722 15.641 49.1896 15.5841 49.1203 15.5128C49.051 15.4414 48.9964 15.3571 48.9595 15.2646C48.0876 13.0763 42.9092 7.04504 38.7121 4.93821C36.864 4.00979 35.5312 3.81756 34.3911 4.31323C32.5721 5.10588 30.9775 7.88769 29.5186 12.8207C26.7886 22.0446 27.1259 35.2678 27.1293 35.4002C27.135 35.6014 27.0609 35.7966 26.9233 35.9429C26.7857 36.0892 26.5959 36.1746 26.3956 36.1803H26.3733Z" fill="#000072"/>
<path d="M85.5964 36.9682C85.4815 36.9683 85.3682 36.942 85.265 36.8914C85.1617 36.8409 85.0713 36.7673 85.0006 36.6764C84.9299 36.5855 84.8808 36.4796 84.857 36.3667C84.8331 36.2539 84.8352 36.1371 84.863 36.0252C87.5801 25.1298 85.0566 11.4453 81.1599 5.0145C79.9734 3.05637 78.72 1.87279 77.5352 1.59176C72.9503 0.505588 64.7445 11.1634 61.9695 15.3646C61.8568 15.5278 61.685 15.64 61.4908 15.6774C61.2966 15.7147 61.0956 15.6742 60.9309 15.5643C60.7661 15.4545 60.6508 15.2843 60.6096 15.09C60.5684 14.8958 60.6047 14.6931 60.7105 14.5254C60.7363 14.4857 63.3465 10.5505 66.6751 6.84763C71.2918 1.71072 75.0628 -0.555154 77.8824 0.114653C79.4924 0.496537 81.029 1.88184 82.4506 4.2253C86.5052 10.9169 89.1408 25.1186 86.3284 36.3937C86.2876 36.5577 86.1934 36.7033 86.0608 36.8074C85.9281 36.9115 85.7647 36.9681 85.5964 36.9682Z" fill="#000072"/>
<path d="M82.4751 30.3357C82.3609 30.3356 82.2482 30.3095 82.1455 30.2594C82.0428 30.2093 81.9527 30.1364 81.882 30.0464C81.8113 29.9563 81.7618 29.8513 81.7373 29.7392C81.7128 29.6272 81.7139 29.5111 81.7405 29.3995C82.7656 25.1117 81.486 12.394 78.6913 8.67904C78.4068 8.30103 77.9708 7.84674 77.5086 7.82777C77.4855 7.82777 77.4619 7.82777 77.4387 7.82777C74.8074 7.82777 71.3566 13.8034 69.7852 17.6081C69.7471 17.7001 69.6913 17.7838 69.6211 17.8542C69.5508 17.9246 69.4674 17.9804 69.3757 18.0184C69.2839 18.0565 69.1856 18.076 69.0864 18.0759C68.9871 18.0758 68.8889 18.056 68.7972 18.0178C68.7055 17.9795 68.6223 17.9235 68.5522 17.8529C68.4821 17.7823 68.4265 17.6985 68.3886 17.6064C68.3508 17.5142 68.3313 17.4155 68.3315 17.3158C68.3316 17.2161 68.3512 17.1174 68.3893 17.0253C68.8498 15.909 73.0142 6.1205 77.5722 6.31144C78.4162 6.34592 79.1989 6.8347 79.8983 7.76441C83.0591 11.9656 84.3271 25.0871 83.2114 29.7538C83.1716 29.9198 83.0773 30.0675 82.9437 30.173C82.8101 30.2786 82.6451 30.3359 82.4751 30.3357Z" fill="#000072"/>
<path d="M30.5686 27.878H30.5283C30.4292 27.8727 30.3321 27.848 30.2426 27.805C30.1531 27.7621 30.0728 27.7019 30.0065 27.6278C29.9401 27.5537 29.889 27.4672 29.8559 27.3732C29.8228 27.2793 29.8085 27.1797 29.8138 27.0802C29.8293 26.7815 29.8456 26.4479 29.8636 26.0854C30.3905 15.3961 31.3938 8.26999 34.5657 8.26999H34.6202C38.3152 8.3618 42.1437 15.8801 42.568 16.737C42.6549 16.9169 42.6676 17.124 42.6033 17.3132C42.539 17.5024 42.403 17.6586 42.2248 17.7476C42.0465 17.8367 41.8405 17.8516 41.6515 17.789C41.4624 17.7263 41.3056 17.5913 41.2151 17.4132C39.7677 14.4926 36.6872 9.8402 34.582 9.78675H34.5743C34.3284 9.78675 33.1561 10.0932 32.279 15.6486C31.7147 19.2188 31.5006 23.5648 31.3727 26.1617C31.3547 26.5263 31.338 26.8612 31.3225 27.1616C31.3116 27.3551 31.2274 27.5371 31.0872 27.6703C30.9471 27.8034 30.7615 27.8777 30.5686 27.878Z" fill="#000072"/>
<path d="M43.6133 54.7198C41.7004 54.7198 38.9898 53.4763 37.8921 51.607C37.5883 51.0898 37.5402 50.5402 37.7535 50.0182C38.3113 48.6502 40.5766 47.9748 41.0576 47.8455C42.8809 47.3007 46.6832 47.3713 48.3747 48.2299C48.9531 48.5235 49.2192 49.1217 49.087 49.8299C48.7527 51.6199 45.7095 54.534 43.9991 54.7004C43.875 54.7134 43.7464 54.7198 43.6133 54.7198ZM41.4584 49.3088C40.6186 49.5346 39.3498 50.1066 39.1515 50.5945C39.1339 50.6376 39.1086 50.6945 39.1944 50.8359C40.0351 52.2677 42.4591 53.3281 43.8536 53.191C44.4432 53.1332 45.8546 52.1221 46.8604 50.8553C47.4075 50.1657 47.574 49.7252 47.6057 49.542C46.3184 48.9584 43.0688 48.8235 41.482 49.3023C41.4742 49.3049 41.4664 49.3071 41.4584 49.3088Z" fill="#000072"/>
<path d="M38.0093 57.7357C39.227 58.1822 40.5581 58.4425 41.7673 57.9451L41.8999 57.8762C42.2625 57.7197 42.5689 57.4495 42.8757 57.1866C43.0018 57.0785 43.1593 57.0143 43.3248 57.0038C43.4902 56.9934 43.6545 57.0371 43.7931 57.1284C44.9088 57.8753 46.2141 58.4025 47.5452 58.5757C48.6763 58.7231 49.7049 58.5507 50.8352 58.2408C48.7755 60.4683 45.1603 60.0865 42.9178 58.321L43.8695 58.2857C42.1046 59.8658 39.4669 59.5498 38.0093 57.7361V57.7357Z" fill="#000072"/>
<path d="M43.3718 58.4947C43.1821 58.4944 42.9994 58.4225 42.86 58.2933C42.7207 58.164 42.6348 57.9868 42.6195 57.7969L42.3127 53.9897C42.3029 53.8894 42.3131 53.7881 42.3426 53.6918C42.3722 53.5955 42.4205 53.506 42.4848 53.4287C42.5492 53.3513 42.6282 53.2876 42.7173 53.2413C42.8064 53.195 42.9038 53.1669 43.0038 53.1588C43.1038 53.1507 43.2044 53.1626 43.2998 53.194C43.3952 53.2253 43.4833 53.2754 43.5592 53.3414C43.6351 53.4073 43.6971 53.4878 43.7417 53.5781C43.7863 53.6684 43.8125 53.7667 43.8189 53.8672L44.1257 57.6745C44.1338 57.7739 44.1223 57.8739 44.0919 57.9689C44.0615 58.0639 44.0128 58.1519 43.9485 58.228C43.8842 58.304 43.8057 58.3666 43.7173 58.4121C43.629 58.4577 43.5325 58.4853 43.4335 58.4934C43.413 58.4943 43.3924 58.4947 43.3718 58.4947Z" fill="#000072"/>
<path d="M41.6794 65.5699C43.8069 65.4557 45.5645 65.8897 47.6701 66.1375C46.2051 67.997 42.9109 67.4362 41.6794 65.5699Z" fill="#000072"/>
<path d="M34.1087 47.8575C35.6304 47.8575 36.864 46.0658 36.864 43.8555C36.864 41.6452 35.6304 39.8535 34.1087 39.8535C32.587 39.8535 31.3534 41.6452 31.3534 43.8555C31.3534 46.0658 32.587 47.8575 34.1087 47.8575Z" fill="#001364"/>
<path d="M35.1235 44.2245C35.5449 44.2245 35.8865 43.6399 35.8865 42.9189C35.8865 42.1978 35.5449 41.6133 35.1235 41.6133C34.7022 41.6133 34.3606 42.1978 34.3606 42.9189C34.3606 43.6399 34.7022 44.2245 35.1235 44.2245Z" fill="white"/>
<path d="M57.3936 47.4037C59.0987 47.4037 60.481 45.3958 60.481 42.9189C60.481 40.442 59.0987 38.4341 57.3936 38.4341C55.6884 38.4341 54.3062 40.442 54.3062 42.9189C54.3062 45.3958 55.6884 47.4037 57.3936 47.4037Z" fill="#001364"/>
<path d="M56.5371 43.3327C57.0092 43.3327 57.3918 42.6775 57.3918 41.8694C57.3918 41.0612 57.0092 40.406 56.5371 40.406C56.065 40.406 55.6823 41.0612 55.6823 41.8694C55.6823 42.6775 56.065 43.3327 56.5371 43.3327Z" fill="white"/>
<path d="M39.2868 34.4079C39.4134 33.3911 37.9939 32.3755 36.1162 32.1396C34.2385 31.9036 32.6137 32.5367 32.487 33.5536C32.3604 34.5704 33.7799 35.586 35.6576 35.8219C37.5353 36.0579 39.1602 35.4248 39.2868 34.4079Z" fill="white"/>
<path d="M36.4602 36.5049C36.1657 36.5044 35.8714 36.4856 35.5792 36.4484C33.2848 36.1605 31.6868 34.8817 31.8619 33.4744C32.037 32.0671 33.9002 31.2236 36.1937 31.5115C37.2038 31.6382 38.1358 31.977 38.8181 32.4649C39.6145 33.0347 40.0029 33.7524 39.9115 34.4855C39.7591 35.7075 38.3345 36.5049 36.4602 36.5049ZM35.3334 32.7214C34.0263 32.7214 33.1638 33.2084 33.111 33.6313C33.0497 34.1261 34.0413 34.9808 35.7354 35.1933C37.4295 35.4058 38.6001 34.8235 38.6619 34.3287C38.6924 34.0856 38.4774 33.7739 38.0878 33.4951C37.5797 33.1317 36.8326 32.8662 36.0375 32.7662C35.804 32.7366 35.5688 32.7216 35.3334 32.7214Z" fill="#000072"/>
<path d="M54.8342 35.3479C56.7318 35.0477 58.1335 33.9331 57.9651 32.8585C57.7966 31.7839 56.1216 31.1561 54.224 31.4563C52.3264 31.7565 50.9246 32.871 51.0931 33.9456C51.2616 35.0202 52.9365 35.648 54.8342 35.3479Z" fill="white"/>
<path d="M53.8968 36.054C53.2446 36.054 52.6267 35.9527 52.0946 35.7523C51.166 35.4041 50.5893 34.7967 50.4708 34.0416C50.3524 33.2864 50.7154 32.5304 51.4925 31.9124C52.1675 31.3757 53.1025 30.9908 54.1255 30.8292C55.1485 30.6676 56.156 30.743 56.9623 31.0469C57.8913 31.3947 58.468 32.0024 58.5865 32.7576C58.7049 33.5127 58.3419 34.2687 57.5648 34.8868C56.8898 35.4234 55.9548 35.8084 54.9318 35.97C54.5895 36.0249 54.2434 36.053 53.8968 36.054ZM55.1592 32.0132C54.879 32.0136 54.5993 32.0358 54.3225 32.0796C53.5218 32.2063 52.7777 32.5072 52.2752 32.905C51.8757 33.2227 51.6719 33.5657 51.7174 33.8459C51.7629 34.1261 52.0607 34.3899 52.5374 34.5687C53.1356 34.7929 53.938 34.8485 54.7383 34.7222C55.5386 34.5959 56.283 34.2946 56.786 33.8963C57.185 33.5791 57.3893 33.236 57.3438 32.9554C57.3009 32.6753 57.0005 32.4119 56.5238 32.233C56.1359 32.0878 55.6626 32.0132 55.1592 32.0132Z" fill="#000072"/>
<path d="M35.078 48.2692C37.7913 46.6119 39.0837 42.9008 38.9224 40.2522C38.8173 38.5281 38.1431 37.3027 37.0232 36.7945C33.7315 35.3006 23.5171 35.7476 22.6817 35.7877C21.6227 36.4269 20.8983 37.5604 20.5855 39.0703C20.0165 41.8155 20.8734 45.0956 22.0303 46.6804C23.8029 49.1084 30.9187 50.8092 35.078 48.2692Z" fill="#000072"/>
<path d="M39.3648 41.0651C40.3783 40.4979 43.5644 39.0173 46.8029 40.653C46.7028 40.0116 46.677 39.3608 46.7261 38.7134C42.5582 36.879 39.7819 38.7996 39.2313 39.2393C39.2977 39.5635 39.3407 39.892 39.3601 40.2224C39.3763 40.503 39.3779 40.7843 39.3648 41.0651Z" fill="#898786"/>
<path d="M47.3169 41.019C47.6778 42.7155 48.5888 44.3141 50.0078 45.6796C52.9523 48.5144 57.5463 49.757 61.997 48.9222C71.8664 47.0714 72.4439 40.7168 72.3864 38.813C72.3435 37.3122 71.8968 36.1984 71.0283 35.4079C69.4878 34.0054 66.4403 33.4804 61.7129 33.8037C54.0749 34.3252 47.9962 37.841 47.2066 38.316C47.0902 39.2129 47.1266 40.1232 47.3144 41.0077C47.3154 41.0114 47.3163 41.0152 47.3169 41.019Z" fill="#000072"/>
<path d="M79.0684 36.7131C81.0668 36.6342 83.1925 36.8605 83.8641 39.1268C84.0126 39.6263 84.1173 40.1117 84.21 40.5401C84.5103 41.9388 84.6961 42.6042 85.5796 42.5047C85.8556 42.4732 86.0735 42.0263 86.1486 41.3383C86.3705 39.3125 85.3728 35.9234 82.9896 35.0972C79.9584 34.0459 73.3657 35.1808 71.7127 35.4915C72.1732 36.0372 72.4851 36.695 72.6606 37.4742C73.5502 37.3346 77.1812 36.7876 79.0684 36.7131Z" fill="#898786"/>
<g opacity="0.25">
<path d="M35.078 48.2691C36.8129 47.2093 37.9638 45.3102 38.5285 43.3853C36.2705 46.9403 29.5872 48.0778 25.8897 47.2287C21.9333 46.3205 20.7464 42.1762 20.7464 42.1762C20.6499 42.2513 20.5708 42.3466 20.5147 42.4555C20.7473 44.1538 21.333 45.7253 22.0303 46.6795C23.8029 49.1083 30.9187 50.8092 35.078 48.2691Z" fill="#001364"/>
</g>
<g opacity="0.25">
<path d="M59.8021 49.1618C60.5386 49.1363 61.2722 49.0562 61.997 48.9221C69.3819 47.5373 71.566 43.6296 72.171 40.953C71.0785 42.3754 66.8656 47.1705 59.7652 47.2287C51.4308 47.2972 47.6559 42.1767 47.6555 42.1762C48.1275 43.4409 48.9162 44.6292 50.0078 45.6796C51.6487 47.2593 53.802 48.3429 56.1569 48.8497C57.3588 49.0736 58.5798 49.1782 59.8021 49.1618Z" fill="#001364"/>
</g>
<g opacity="0.25">
<path d="M84.8219 39.0259C84.4404 37.9402 83.5079 36.4075 81.3676 35.9389C79.404 35.5079 73.3618 36.4225 72.374 36.5764C72.4965 36.8656 72.5924 37.1654 72.6606 37.4721C73.5502 37.3346 77.1812 36.7876 79.0684 36.713C81.0668 36.6342 83.1925 36.8605 83.8641 39.1268C84.0126 39.6263 84.1173 40.1116 84.21 40.5401C84.5103 41.9387 84.6961 42.6042 85.5796 42.5047C85.8556 42.4732 86.0735 42.0262 86.1486 41.3383C86.2079 40.797 86.1791 40.1582 86.0628 39.4974C85.735 39.6474 85.0995 39.816 84.8219 39.0259Z" fill="#001364"/>
</g>
<g opacity="0.4">
<path d="M23.2756 37.5734C23.5292 37.4639 24.3998 37.385 25.5841 37.3419L23.191 44.3051C23.191 44.3051 24.971 45.7102 27.4297 45.7955L29.9614 37.326C30.5017 37.3385 31.0415 37.3561 31.5676 37.3794L32.8978 37.5734L30.8209 45.7955H32.0074L34.6966 37.6109C35.4355 37.6971 36.0234 37.8066 36.3735 37.9354C37.6909 38.4208 38.4246 38.9324 38.7804 39.2337C38.5126 38.0458 37.9076 37.1941 37.021 36.7928C33.7315 35.3006 23.5172 35.7476 22.6817 35.7877C21.6227 36.4269 20.8983 37.5604 20.5855 39.0703C20.4379 39.8127 20.3802 40.5704 20.4139 41.3267C20.4469 41.2702 22.3097 37.9906 23.2756 37.5734Z" fill="white"/>
</g>
<g opacity="0.4">
<path d="M51.4097 43.6693C51.4097 43.6693 53.502 45.2055 56.392 45.2986L59.6691 35.704C60.2038 35.6097 60.7384 35.5316 61.2688 35.4722H61.2757C62.2536 35.4722 62.9736 35.4622 63.0191 35.4355C63.0487 35.4178 63.1783 35.3683 63.3663 35.3006L63.5958 35.2877L60.3776 45.2994H61.7726L65.5701 35.2441C68.8206 35.2635 70.8515 35.7463 71.4918 35.9243C71.353 35.738 71.1974 35.5648 71.027 35.4071C69.4866 34.0045 66.4391 33.4795 61.7116 33.8028C54.0736 34.3243 47.9949 37.8402 47.2054 38.3152C47.1254 38.9328 47.1182 39.5578 47.1839 40.1772C47.1839 40.1772 50.0087 38.6527 53.7548 37.3186L51.4097 43.6693Z" fill="white"/>
</g>
<path d="M29.9327 50.4863C26.3282 50.4863 22.6542 49.1902 21.2446 47.2593C19.9616 45.502 19.0073 41.8836 19.6316 38.8712C20.0067 37.0609 20.9073 35.6928 22.2363 34.9148C22.3409 34.8537 22.4586 34.8186 22.5796 34.8127C23.0357 34.789 33.7967 34.2545 37.4265 35.9006C38.8915 36.5652 39.769 38.0889 39.8969 40.1905C40.0758 43.1266 38.6259 47.2489 35.5865 49.1053C34.0109 50.0665 31.9834 50.4863 29.9327 50.4863ZM22.8469 36.3195C21.9685 36.8954 21.3849 37.8574 21.1107 39.1798C20.5795 41.7439 21.3991 44.9042 22.4633 46.3614C24.0887 48.5881 30.9299 50.1712 34.7991 47.8084C37.2407 46.3166 38.5409 42.8085 38.3869 40.2828C38.3337 39.4069 38.0569 37.8527 36.8022 37.2833C33.7491 35.8988 24.3123 36.2549 22.8469 36.3195Z" fill="#000072"/>
<path d="M59.2529 50.1557C55.4811 50.1557 51.853 48.8114 49.3333 46.3865C46.9522 44.0947 45.8305 41.0651 46.2558 38.0747C46.2712 37.9655 46.3102 37.8611 46.3699 37.7687C46.4296 37.6762 46.5087 37.5979 46.6016 37.5393C46.869 37.3708 53.2454 33.4015 61.6468 32.8265C66.7227 32.4817 69.9114 33.0692 71.6831 34.6825C72.758 35.6609 73.3069 37.0023 73.3605 38.7832C73.424 40.8836 72.8027 47.8912 62.1755 49.8842C61.2117 50.0648 60.2333 50.1557 59.2529 50.1557ZM47.71 38.644C47.4808 41.0577 48.4202 43.4051 50.379 45.2908C53.2012 48.0062 57.6158 49.1959 61.8987 48.3942C65.5555 47.7084 68.2692 46.3296 69.9659 44.296C71.6025 42.3318 71.8968 40.2401 71.8539 38.8311C71.811 37.4656 71.4373 36.5036 70.6717 35.8083C69.245 34.5092 66.3275 34.03 61.7524 34.3429C54.7396 34.8196 49.0587 37.8656 47.7096 38.644H47.71Z" fill="#000072"/>
<path d="M38.9893 39.9125C38.8369 39.912 38.6882 39.8651 38.5629 39.7781C38.4375 39.691 38.3413 39.5679 38.2869 39.4249C38.2325 39.2819 38.2225 39.1256 38.2582 38.9768C38.2939 38.828 38.3736 38.6935 38.4868 38.591C38.6293 38.4617 42.0355 35.4877 47.2736 37.8846C47.445 37.9745 47.5755 38.1271 47.6383 38.3108C47.7011 38.4945 47.6914 38.6954 47.6112 38.8722C47.531 39.0489 47.3863 39.188 47.2071 39.2609C47.0278 39.3338 46.8275 39.3348 46.6475 39.2638C42.3355 37.2919 39.6047 39.6237 39.4901 39.7237C39.3517 39.8459 39.1736 39.913 38.9893 39.9125Z" fill="#000072"/>
<path d="M39.1558 42.2056C38.9939 42.206 38.8361 42.1542 38.7057 42.0577C38.5752 41.9613 38.4791 41.8253 38.4315 41.6698C38.3839 41.5143 38.3872 41.3476 38.4411 41.1942C38.4949 41.0407 38.5964 40.9088 38.7306 40.8177C38.9091 40.6957 43.1568 37.8609 47.4869 40.4112C47.66 40.513 47.7858 40.6797 47.8366 40.8747C47.8874 41.0697 47.859 41.2769 47.7576 41.4508C47.6563 41.6248 47.4903 41.7511 47.2962 41.8021C47.1021 41.8531 46.8958 41.8246 46.7226 41.7228C43.2066 39.6513 39.6154 42.0508 39.5798 42.0754C39.4547 42.1606 39.3069 42.2059 39.1558 42.2056Z" fill="#000072"/>
<path d="M85.3904 43.4952C83.8508 43.4952 83.5238 41.9797 83.2578 40.7474C83.1647 40.3164 83.0681 39.8698 82.9304 39.4061C82.5369 38.079 81.4637 37.5958 79.1062 37.6915C77.0139 37.7738 72.6559 38.4634 72.6122 38.4703C72.4163 38.4972 72.2178 38.4459 72.0591 38.3275C71.9005 38.2091 71.7944 38.0329 71.7635 37.8368C71.7326 37.6407 71.7795 37.4403 71.894 37.2785C72.0085 37.1167 72.1816 37.0064 72.3761 36.9712C72.5585 36.9424 76.8659 36.2605 79.047 36.1747C81.1191 36.0937 83.5955 36.3372 84.3786 38.9729C84.5326 39.4901 84.6395 39.9879 84.7343 40.4259C85.0467 41.8728 85.1754 41.9952 85.4346 41.9775C85.596 41.7288 85.7968 40.7302 85.4595 39.2457C85.039 37.3954 84.0503 36.0346 82.8145 35.6062C79.4911 34.4536 71.5192 36.0764 71.4394 36.0932C71.3422 36.1133 71.242 36.1139 71.1446 36.0951C71.0471 36.0763 70.9543 36.0384 70.8715 35.9835C70.7886 35.9287 70.7173 35.858 70.6617 35.7754C70.606 35.6929 70.5671 35.6002 70.5471 35.5025C70.5271 35.4049 70.5265 35.3043 70.5452 35.2064C70.564 35.1085 70.6017 35.0153 70.6563 34.932C70.7109 34.8488 70.7813 34.7772 70.8635 34.7213C70.9457 34.6654 71.038 34.6263 71.1352 34.6062C71.4785 34.5355 79.5941 32.8821 83.3076 34.1718C86.2023 35.1756 87.3802 39.0423 87.1176 41.4448C86.9309 43.1525 86.0573 43.4348 85.6904 43.4771C85.5908 43.4886 85.4907 43.4946 85.3904 43.4952Z" fill="#000072"/>
<path d="M26.0536 112.658L25.9871 112.634L26.0536 112.658Z" fill="white"/>
<path d="M25.9635 112.626L25.9137 112.607L25.9635 112.626Z" fill="white"/>
<path d="M25.8915 112.599L25.8545 112.584L25.8915 112.599Z" fill="white"/>
<path d="M25.8357 112.577L25.8107 112.567L25.8357 112.577Z" fill="white"/>
<path d="M25.7955 112.561L25.782 112.555L25.7955 112.561Z" fill="white"/>
<path d="M32.4674 111.561C34.6652 111.262 36.5104 109.75 37.1317 109.19C37.1111 109.287 37.0888 109.387 37.0596 109.488C37.2446 108.801 37.2665 108.179 37.2201 107.784C37.0983 106.745 35.8985 106.31 35.4947 106.192C35.4763 106.397 35.4539 106.6 35.4243 106.803C35.378 107.119 35.3176 107.431 35.2433 107.74C35.1666 108.048 35.0719 108.351 34.9596 108.648C34.8439 108.942 34.7002 109.223 34.5305 109.489C34.8111 108.926 34.9489 108.313 35.0283 107.7C35.0655 107.392 35.0886 107.083 35.0978 106.774C35.1055 106.5 35.1025 106.222 35.0875 105.955C34.4923 105.448 33.2423 104.516 32.47 104.516C31.9773 104.517 31.4953 104.66 31.0818 104.929C31.1162 105.234 31.1282 105.541 31.1179 105.848C31.105 106.202 31.0619 106.554 30.9891 106.9C30.9178 107.245 30.8081 107.58 30.6621 107.9C30.516 108.217 30.3298 108.512 30.1082 108.781C30.2927 108.488 30.4575 108.186 30.5605 107.859C30.6691 107.537 30.7411 107.204 30.775 106.865C30.8087 106.529 30.8134 106.191 30.7892 105.854C30.7725 105.632 30.7438 105.411 30.7033 105.192C30.6978 105.192 30.6922 105.192 30.6866 105.192C30.681 105.192 30.6772 105.192 30.6724 105.192H30.6617C30.6574 105.192 30.6536 105.192 30.6497 105.192C30.642 105.192 30.6342 105.192 30.6265 105.192C30.6218 105.192 30.6184 105.188 30.6141 105.187C30.5886 105.181 30.5644 105.171 30.5424 105.157C30.538 105.154 30.5337 105.152 30.5296 105.149C30.505 105.13 30.4849 105.106 30.4708 105.079C30.4708 105.077 30.4669 105.076 30.466 105.073C30.4459 105.036 29.9318 104.11 27.9468 104.621C25.9193 105.143 25.6262 107.697 25.6236 107.724C25.6206 107.753 25.612 107.781 25.5983 107.806C25.5846 107.832 25.5661 107.854 25.5437 107.872C25.4986 107.909 25.4409 107.926 25.3831 107.92C25.3253 107.914 25.2724 107.885 25.2358 107.84C25.1992 107.795 25.182 107.736 25.1881 107.678C25.226 107.378 25.2915 107.081 25.3837 106.792C24.9649 107.463 24.4062 108.528 23.9711 109.978C26.1145 111.362 30.0241 111.893 32.4674 111.561Z" fill="white"/>
<path d="M26.1557 112.694L26.0699 112.664L26.1557 112.694Z" fill="white"/>
<path d="M37.0502 109.522C36.9564 109.862 36.8284 110.191 36.6683 110.504C36.8286 110.191 36.9566 109.862 37.0502 109.522Z" fill="white"/>
<path d="M26.1634 112.696C27.1632 113.041 29.9507 113.825 32.9862 113.162C34.9931 112.724 36.0925 111.629 36.6687 110.505C34.8339 111.832 33.0965 112.868 31.843 113.349C29.2714 113.631 27.0371 112.996 26.1634 112.696Z" fill="white"/>
<g opacity="0.25">
<path d="M26.1647 112.697L26.1557 112.694L26.1647 112.697Z" fill="#001364"/>
</g>
<g opacity="0.25">
<path d="M25.9885 112.634L25.9635 112.625L25.9885 112.634Z" fill="#001364"/>
</g>
<g opacity="0.25">
<path d="M25.8554 112.583L25.8343 112.575L25.8554 112.583Z" fill="#001364"/>
</g>
<g opacity="0.25">
<path d="M26.0716 112.664L26.0536 112.658L26.0716 112.664Z" fill="#001364"/>
</g>
<g opacity="0.25">
<path d="M25.9161 112.607L25.8922 112.599L25.9161 112.607Z" fill="#001364"/>
</g>
<g opacity="0.25">
<path d="M25.8123 112.567L25.7948 112.561L25.8123 112.567Z" fill="#001364"/>
</g>
<g opacity="0.25">
<path d="M37.0601 109.488C37.057 109.5 37.0534 109.512 37.0502 109.524C37.0534 109.512 37.057 109.5 37.0601 109.488Z" fill="#001364"/>
</g>
<g opacity="0.25">
<path d="M25.7815 112.555L25.7712 112.551L25.7815 112.555Z" fill="#001364"/>
</g>
<path d="M37.0502 109.522C37.0532 109.511 37.0566 109.499 37.0597 109.487C37.0867 109.387 37.1111 109.287 37.1317 109.189C36.5104 109.75 34.6653 111.262 32.4674 111.56C30.0241 111.892 26.1145 111.361 23.9681 109.977C23.7483 110.712 23.5824 111.463 23.4717 112.223C24.1834 112.443 24.9255 112.547 25.67 112.533H25.6721C25.7035 112.531 25.7349 112.537 25.7639 112.549C25.7639 112.549 25.7687 112.549 25.7712 112.549L25.782 112.553L25.7948 112.558L25.8107 112.565L25.8343 112.574L25.8545 112.582L25.8918 112.596L25.9137 112.605L25.9635 112.623L25.9871 112.632L26.0536 112.655L26.0699 112.662L26.1557 112.692L26.1634 112.694C27.0371 112.996 29.2714 113.629 31.8426 113.346C33.096 112.865 34.8335 111.83 36.6683 110.501C36.8282 110.188 36.9562 109.861 37.0502 109.522Z" fill="white"/>
<g opacity="0.25">
<path d="M37.0502 109.522C37.0532 109.511 37.0566 109.499 37.0597 109.487C37.0867 109.387 37.1111 109.287 37.1317 109.189C36.5104 109.75 34.6653 111.262 32.4674 111.56C30.0241 111.892 26.1145 111.361 23.9681 109.977C23.7483 110.712 23.5824 111.463 23.4717 112.223C24.1834 112.443 24.9255 112.547 25.67 112.533H25.6721C25.7035 112.531 25.7349 112.537 25.7639 112.549C25.7639 112.549 25.7687 112.549 25.7712 112.549L25.782 112.553L25.7948 112.558L25.8107 112.565L25.8343 112.574L25.8545 112.582L25.8918 112.596L25.9137 112.605L25.9635 112.623L25.9871 112.632L26.0536 112.655L26.0699 112.662L26.1557 112.692L26.1634 112.694C27.0371 112.996 29.2714 113.629 31.8426 113.346C33.096 112.865 34.8335 111.83 36.6683 110.501C36.8282 110.188 36.9562 109.861 37.0502 109.522Z" fill="#001364"/>
</g>
<g opacity="0.25">
<path d="M32.9857 113.162C34.9927 112.724 36.092 111.629 36.6683 110.505C34.8339 111.832 33.096 112.868 31.8426 113.349C32.2267 113.307 32.6082 113.245 32.9857 113.162Z" fill="#001364"/>
</g>
<g opacity="0.25">
<path d="M32.9857 113.162C34.9927 112.724 36.092 111.629 36.6683 110.505C34.8339 111.832 33.096 112.868 31.8426 113.349C32.2267 113.307 32.6082 113.245 32.9857 113.162Z" fill="#001364"/>
</g>
<path d="M30.5055 114.402C27.6528 114.402 25.5048 113.501 25.3893 113.451C25.205 113.372 25.0593 113.223 24.9844 113.037C24.9095 112.85 24.9114 112.641 24.9898 112.456C25.0682 112.271 25.2167 112.124 25.4025 112.049C25.5883 111.974 25.7963 111.976 25.9806 112.055C26.0128 112.068 29.2693 113.423 32.872 112.636C36.3731 111.871 36.8133 108.919 36.6876 107.846C36.5889 107.005 35.2626 106.686 35.2493 106.682C35.1187 106.655 34.9979 106.593 34.8991 106.503C34.2555 105.918 33.0368 105.053 32.4674 105.053C31.9987 105.049 31.5441 105.214 31.1861 105.518C31.0024 105.694 30.757 105.805 30.509 105.747C30.2609 105.69 30.0799 105.56 29.9902 105.332C29.9181 105.24 29.4782 104.782 28.0772 105.143C26.4187 105.569 26.1561 107.76 26.154 107.781C26.1501 107.815 26.1442 107.849 26.1364 107.881L25.8961 108.861C25.8742 108.959 25.8329 109.053 25.7746 109.135C25.7163 109.217 25.6422 109.287 25.5567 109.341C25.4712 109.394 25.3759 109.429 25.2765 109.445C25.1771 109.461 25.0756 109.457 24.9779 109.432C24.8802 109.408 24.7883 109.365 24.7075 109.304C24.6268 109.244 24.5589 109.168 24.5077 109.081C24.4566 108.994 24.4233 108.898 24.4098 108.797C24.3963 108.697 24.4028 108.595 24.429 108.498L24.6586 107.563C24.7186 107.106 25.1876 104.32 27.7018 103.673C29.2598 103.272 30.2047 103.607 30.739 103.988C31.2666 103.69 31.862 103.534 32.4674 103.535C33.6822 103.535 35.2214 104.773 35.7676 105.248C36.6722 105.499 38.0196 106.234 38.1882 107.668C38.4251 109.689 37.2785 113.228 33.193 114.118C32.3099 114.309 31.4089 114.404 30.5055 114.402Z" fill="#000072"/>
<path d="M25.4979 113.516C24.9092 113.516 23.3155 113.43 21.8505 112.585C21.6793 112.484 21.5549 112.319 21.5041 112.126C21.4533 111.933 21.4802 111.727 21.5791 111.554C21.678 111.381 21.8409 111.254 22.0324 111.2C22.2239 111.147 22.4286 111.171 22.6023 111.268C24.0033 112.076 25.627 111.996 25.6438 111.996C25.8411 111.988 26.0334 112.059 26.1794 112.193C26.3255 112.326 26.4138 112.512 26.4254 112.709C26.437 112.907 26.371 113.102 26.2415 113.252C26.1121 113.402 25.9294 113.494 25.7326 113.511C25.7154 113.511 25.6331 113.516 25.4979 113.516Z" fill="#000072"/>
<path d="M31.5839 104.652C31.6311 106.137 31.2067 107.744 30.1082 108.778C30.6918 107.595 30.6004 106.175 30.1082 104.985C30.0536 104.896 30.017 104.797 30.0004 104.694C29.9838 104.591 29.9875 104.486 30.0114 104.385C30.0354 104.283 30.0789 104.187 30.1397 104.103C30.2005 104.018 30.2773 103.947 30.3656 103.892C30.9376 103.545 31.61 104.001 31.5809 104.651L31.5839 104.652Z" fill="#000072"/>
<path d="M36.0577 105.833C35.8002 107.145 35.3904 108.459 34.5301 109.489C34.9004 108.308 34.7906 107.041 34.5472 105.865C34.5222 105.766 34.5169 105.663 34.5316 105.562C34.5464 105.461 34.5809 105.363 34.6332 105.276C34.6854 105.188 34.7545 105.112 34.8363 105.051C34.9181 104.99 35.011 104.946 35.1098 104.921C35.6496 104.771 36.1826 105.289 36.0577 105.833Z" fill="#000072"/>
<defs>
<filter id="filter0_f_8_27213" x="0.749603" y="128.31" width="105.25" height="30.6902" filterUnits="userSpaceOnUse" color-interpolation-filters="sRGB">
<feFlood flood-opacity="0" result="BackgroundImageFix"/>
<feBlend mode="normal" in="SourceGraphic" in2="BackgroundImageFix" result="shape"/>
<feGaussianBlur stdDeviation="5" result="effect1_foregroundBlur_8_27213"/>
</filter>
</defs>
</svg>
