<svg width="87" height="151" viewBox="0 0 87 151" fill="none" xmlns="http://www.w3.org/2000/svg">
<g filter="url(#filter0_d_8_26697)">
<path d="M61.4068 131.588C61.4068 131.588 65.4829 141.554 57.655 143.606C49.8271 145.657 45.9433 134.218 47.3211 129.246C48.699 124.273 47.9354 120.728 47.9354 120.728C47.9354 120.728 45.3663 122.414 41.4997 122.42H41.4796C40.9674 122.42 40.4555 122.39 39.9468 122.331C39.8406 122.319 39.7343 122.305 39.631 122.29C36.8064 121.896 35.0267 120.728 35.0267 120.728C35.0267 120.728 34.4899 123.197 35.1185 126.912C35.2518 127.697 35.4252 128.475 35.6381 129.243C37.0217 134.216 33.1321 145.655 25.3042 143.603C23.1054 143.027 21.8452 141.827 21.1735 140.397C19.833 137.56 20.8004 133.818 21.2998 132.287C21.4462 131.844 21.5525 131.585 21.5525 131.585C12.4816 120.644 21.5525 110.112 21.5525 110.112H61.4097C61.4097 110.112 70.4776 120.647 61.4068 131.588Z" fill="#F9A429"/>
<path d="M35.6352 129.246C37.0188 134.218 33.1293 145.657 25.3013 143.606C18.7365 141.885 20.5449 134.593 21.297 132.29C23.9752 133.988 28.9842 135.125 35.1157 126.915C35.2489 127.7 35.4224 128.478 35.6352 129.246Z" fill="white"/>
<path d="M47.324 129.246C45.9404 134.218 49.83 145.657 57.6579 143.606C64.2228 141.885 62.4143 134.593 61.6623 132.29C58.9841 133.988 53.975 135.125 47.8436 126.915C47.7103 127.7 47.5369 128.478 47.324 129.246Z" fill="white"/>
<g opacity="0.3">
<path d="M61.4097 140.066C61.4097 140.066 55.1663 143.657 51.2451 137.637C47.324 131.617 51.449 126.184 50.8347 121.228C50.2204 116.273 54.7587 114.897 54.7587 114.897H28.2006C28.2006 114.897 32.7389 116.267 32.1246 121.228C31.5103 126.19 35.6352 131.62 31.7141 137.637C27.793 143.655 21.5525 140.066 21.5525 140.066C21.5525 140.066 21.4089 140.19 21.1736 140.4C21.8453 141.83 23.1054 143.03 25.3042 143.606C33.1321 145.657 37.0217 134.218 35.6381 129.246C35.4253 128.478 35.2518 127.7 35.1186 126.915C34.4899 123.2 35.0267 120.73 35.0267 120.73C35.0267 120.73 36.8064 121.899 39.631 122.293C39.7343 122.307 39.8406 122.322 39.9468 122.333C40.4489 122.392 40.954 122.422 41.4595 122.422H41.4997C42.0053 122.422 42.5104 122.393 43.0125 122.333C43.1187 122.322 43.2249 122.307 43.3282 122.293C46.1528 121.899 47.9326 120.73 47.9326 120.73C47.9326 120.73 48.4693 123.2 47.8407 126.915C47.7074 127.7 47.534 128.478 47.3211 129.246C45.9375 134.218 49.8271 145.657 57.655 143.606C59.8538 143.03 61.114 141.83 61.7886 140.4C61.5532 140.189 61.4097 140.066 61.4097 140.066Z" fill="#03036B"/>
</g>
<g opacity="0.55">
<path d="M27.0237 143.606C24.8249 143.03 23.5647 141.83 22.893 140.4C21.5525 137.562 22.5198 133.821 23.0193 132.29C23.1657 131.847 23.2719 131.588 23.2719 131.588C14.201 120.647 23.2719 110.114 23.2719 110.114H21.5496C21.5496 110.114 12.4787 120.647 21.5496 131.588C21.5496 131.588 21.4434 131.847 21.297 132.29C20.7975 133.821 19.8301 137.562 21.1707 140.4C21.8424 141.83 23.1025 143.03 25.3014 143.606C26.1723 143.843 27.0814 143.906 27.9767 143.791C27.6554 143.75 27.3371 143.688 27.0237 143.606Z" fill="white"/>
</g>
<g opacity="0.55">
<path d="M41.6691 122.333C41.5629 122.322 41.4567 122.307 41.3533 122.293C38.5287 121.899 36.749 120.73 36.749 120.73C36.749 120.73 36.6916 121.01 36.6342 121.512C37.5996 121.888 38.6055 122.151 39.6316 122.293C39.7349 122.307 39.8411 122.322 39.9473 122.333C40.4561 122.393 40.9679 122.423 41.4802 122.423H41.5003C41.7873 122.423 42.0646 122.411 42.3368 122.393C42.1094 122.378 41.8861 122.359 41.6691 122.333Z" fill="white"/>
</g>
<path d="M22.068 131.028L22.153 131.097C22.1874 131.125 22.2236 131.155 22.2609 131.181C22.3355 131.238 22.4125 131.292 22.4905 131.345C22.649 131.452 22.8138 131.553 22.9826 131.647C23.3225 131.835 23.6785 131.992 24.0464 132.116C24.7903 132.367 25.5751 132.474 26.3589 132.431C26.7595 132.406 27.1574 132.347 27.5484 132.256C27.6477 132.233 27.7447 132.202 27.8429 132.176L27.991 132.134C28.0404 132.121 28.0881 132.103 28.1369 132.087C28.2345 132.054 28.3321 132.021 28.4308 131.989C28.5295 131.958 28.6237 131.915 28.7213 131.878C29.4992 131.58 30.2599 131.188 31.0361 130.762C31.0446 130.758 31.0539 130.755 31.0635 130.754C31.0731 130.753 31.0828 130.753 31.0921 130.756C31.1014 130.759 31.11 130.763 31.1176 130.77C31.1251 130.776 31.1314 130.783 31.136 130.792C31.1428 130.804 31.1458 130.819 31.1446 130.834C31.1434 130.848 31.138 130.862 31.1291 130.873C30.5657 131.582 29.881 132.185 29.1071 132.654C29.0089 132.712 28.9108 132.773 28.8103 132.827C28.7098 132.88 28.6048 132.931 28.5014 132.983C28.4492 133.008 28.3987 133.036 28.3453 133.059L28.1851 133.127C28.0772 133.17 27.9709 133.218 27.8613 133.258L27.53 133.374L27.4468 133.402L27.3618 133.426L27.1896 133.473L27.0174 133.52C26.9599 133.536 26.9025 133.546 26.8451 133.559C26.7303 133.583 26.6155 133.61 26.4961 133.628C26.0235 133.705 25.5443 133.733 25.066 133.712C24.5838 133.688 24.1055 133.614 23.6388 133.491C23.171 133.367 22.7173 133.195 22.285 132.977C22.068 132.868 21.8572 132.747 21.6535 132.614C21.5507 132.548 21.4491 132.478 21.3486 132.403C21.2987 132.366 21.2488 132.327 21.1982 132.287C21.1735 132.268 21.1471 132.246 21.1219 132.225L21.0817 132.19L21.0335 132.146C20.8845 132.014 20.7933 131.828 20.7795 131.629C20.7657 131.43 20.8305 131.234 20.9599 131.082C21.0892 130.93 21.2728 130.835 21.4712 130.818C21.6695 130.801 21.8667 130.862 22.0204 130.989L22.068 131.028Z" fill="#0F156D"/>
<path d="M35.0233 121.494C34.958 121.494 34.893 121.485 34.8298 121.469C34.6349 121.418 34.4683 121.291 34.3665 121.117C34.2647 120.942 34.236 120.735 34.2867 120.539C34.2941 120.51 35.0227 117.574 33.3681 115.436C32.1378 113.845 29.8827 113.039 26.6654 113.039C26.4637 113.039 26.2702 112.959 26.1276 112.815C25.9849 112.672 25.9048 112.479 25.9048 112.276C25.9048 112.074 25.9849 111.88 26.1276 111.737C26.2702 111.594 26.4637 111.514 26.6654 111.514C30.3856 111.514 33.0483 112.524 34.58 114.515C36.687 117.254 35.7954 120.777 35.7564 120.925C35.7139 121.088 35.6189 121.232 35.4863 121.335C35.3538 121.438 35.191 121.494 35.0233 121.494Z" fill="#0F156D"/>
<path d="M61.9235 132.146L61.8753 132.19L61.8351 132.225C61.8098 132.246 61.7834 132.268 61.7587 132.287C61.7082 132.328 61.6582 132.367 61.6083 132.403C61.5084 132.478 61.4068 132.548 61.304 132.614C61.1004 132.747 60.8896 132.868 60.6725 132.977C59.3732 133.638 57.8977 133.866 56.4603 133.628C56.3455 133.61 56.2272 133.583 56.1112 133.559C56.0538 133.546 55.9964 133.536 55.939 133.52L55.7668 133.473L55.5946 133.426L55.5102 133.402L55.4269 133.374L55.0951 133.258C54.9854 133.218 54.8792 133.17 54.7719 133.127L54.6111 133.059C54.5577 133.036 54.5072 133.008 54.455 132.983C54.3516 132.931 54.2483 132.88 54.1461 132.827C54.0439 132.773 53.948 132.712 53.8493 132.654C53.0745 132.186 52.3891 131.583 51.825 130.873C51.813 130.858 51.8075 130.838 51.8098 130.819C51.812 130.799 51.8218 130.782 51.837 130.769C51.8484 130.76 51.8621 130.755 51.8765 130.754C51.8909 130.752 51.9053 130.755 51.918 130.762C52.6942 131.186 53.4549 131.58 54.2328 131.878C54.3304 131.915 54.4263 131.955 54.5238 131.989C54.6214 132.023 54.7196 132.054 54.8172 132.087C54.866 132.103 54.9142 132.121 54.9636 132.134L55.1112 132.176C55.2093 132.202 55.3069 132.233 55.4057 132.256C55.7967 132.347 56.1945 132.406 56.5952 132.431C57.379 132.474 58.1638 132.367 58.9077 132.116C59.2756 131.992 59.6316 131.835 59.9715 131.647C60.1403 131.553 60.3051 131.452 60.4641 131.345C60.5428 131.292 60.6203 131.237 60.6937 131.181C60.7311 131.153 60.7672 131.123 60.8017 131.097L60.8872 131.028L60.932 130.99C61.0856 130.864 61.2824 130.803 61.4801 130.821C61.6779 130.838 61.861 130.933 61.9902 131.084C62.1193 131.235 62.1843 131.431 62.1712 131.629C62.1581 131.828 62.0679 132.014 61.92 132.146H61.9235Z" fill="#0F156D"/>
<path d="M47.9377 121.494C47.7697 121.494 47.6065 121.438 47.4736 121.335C47.3407 121.232 47.2455 121.088 47.2029 120.925C47.1638 120.777 46.2728 117.254 48.3798 114.515C49.9109 112.524 52.5742 111.514 56.2938 111.514C56.4956 111.514 56.689 111.594 56.8317 111.737C56.9744 111.88 57.0545 112.074 57.0545 112.276C57.0545 112.479 56.9744 112.672 56.8317 112.815C56.689 112.959 56.4956 113.039 56.2938 113.039C53.0702 113.039 50.8128 113.849 49.5843 115.446C47.9285 117.598 48.6657 120.511 48.6737 120.538C48.725 120.733 48.6967 120.941 48.595 121.116C48.4934 121.29 48.3268 121.417 48.1318 121.469C48.0684 121.485 48.0032 121.494 47.9377 121.494Z" fill="#0F156D"/>
<path d="M55.8288 144.612C53.8194 144.612 51.9605 143.782 50.3656 142.158C46.9572 138.687 45.6413 132.459 46.5886 129.041C47.4727 125.859 47.4405 123.272 47.3252 121.918C45.489 122.754 43.4958 123.186 41.4793 123.186C39.4628 123.186 37.4697 122.754 35.6335 121.918C35.5187 123.272 35.486 125.858 36.3695 129.041C37.3185 132.459 36.0009 138.687 32.5925 142.158C30.9982 143.782 29.1369 144.612 27.1293 144.612C26.4478 144.609 25.7694 144.519 25.1108 144.343C22.9521 143.777 21.4164 142.602 20.5443 140.852C18.8794 137.514 20.1958 133.117 20.6861 131.729C18.6934 129.227 17.4453 126.542 16.974 123.743C16.579 121.396 16.7283 118.972 17.4178 116.539C18.5843 112.424 20.8785 109.729 20.9772 109.616C21.0485 109.533 21.1366 109.467 21.2357 109.422C21.3347 109.376 21.4423 109.352 21.5513 109.352H61.4068C61.5158 109.352 61.6234 109.376 61.7224 109.422C61.8215 109.467 61.9096 109.533 61.9809 109.616C62.0779 109.731 64.372 112.424 65.5403 116.539C66.2293 118.972 66.3791 121.396 65.9841 123.743C65.5128 126.542 64.2647 129.227 62.2725 131.729C62.7622 133.117 64.0758 137.515 62.4138 140.852C61.5423 142.602 60.006 143.777 57.8479 144.343C57.1891 144.519 56.5105 144.609 55.8288 144.612ZM47.9377 119.97C48.1112 119.97 48.2794 120.029 48.4146 120.138C48.5498 120.247 48.6438 120.399 48.6812 120.569C48.7145 120.721 49.4723 124.351 48.0571 129.449C47.2212 132.46 48.4958 138.077 51.4524 141.088C53.1908 142.859 55.2145 143.458 57.4661 142.868C59.2051 142.412 60.3791 141.53 61.056 140.171C62.7071 136.855 60.7265 131.925 60.7064 131.876C60.6539 131.748 60.6372 131.608 60.6581 131.471C60.6791 131.334 60.7368 131.206 60.8252 131.1C64.4174 126.767 65.5128 122.006 64.0804 116.956C63.2043 113.865 61.6163 111.618 61.0457 110.877H21.9164C21.3423 111.625 19.7348 113.904 18.8656 117.01C17.4568 122.043 18.5574 126.784 22.138 131.1C22.2261 131.206 22.2837 131.335 22.3047 131.471C22.3256 131.608 22.3091 131.748 22.2569 131.876C22.2368 131.925 20.2596 136.869 21.909 140.175C22.5858 141.531 23.7593 142.412 25.4971 142.868C27.7488 143.458 29.7719 142.859 31.5103 141.088C34.4675 138.077 35.7414 132.46 34.9056 129.449C33.4904 124.351 34.2482 120.721 34.2815 120.569C34.3077 120.449 34.3629 120.336 34.4421 120.241C34.5214 120.147 34.6225 120.073 34.7366 120.026C34.8507 119.979 34.9744 119.961 35.0972 119.972C35.2199 119.984 35.338 120.026 35.4412 120.093C35.4636 120.108 37.8978 121.662 41.4808 121.662C45.0638 121.662 47.498 120.108 47.5221 120.093C47.6458 120.012 47.7902 119.969 47.9377 119.97Z" fill="#0F156D"/>
<path d="M61.4757 113.191H21.4836C21.4836 113.191 2.9974 111.277 8.86475 95.0035C14.7321 78.7298 26.3261 73.3254 26.3261 73.3254L33.5311 73.0002L41.4796 72.6405L49.474 73.0031L56.6331 73.3254C56.6331 73.3254 67.2282 78.2608 73.2879 92.9171C73.2879 92.9171 73.2936 92.9315 73.308 92.9631C73.3223 92.9948 73.3281 93.0149 73.3395 93.0408C73.3596 93.0898 73.3826 93.1502 73.4113 93.225C73.6494 93.8036 73.8771 94.3965 74.0945 95.0035C79.959 111.277 61.4757 113.191 61.4757 113.191Z" fill="#F9A429"/>
<g opacity="0.3">
<path d="M61.4757 113.191H49.7869C39.3009 109.487 31.8978 105.792 49.0406 107.165C78.3055 109.51 74.2552 95.5013 73.4113 93.225C73.6494 93.8036 73.8771 94.3965 74.0945 95.0035C79.959 111.277 61.4757 113.191 61.4757 113.191Z" fill="#03036B"/>
</g>
<path d="M58.2923 88.9976C58.2923 99.0323 50.7715 107.165 41.4997 107.165C32.2279 107.165 24.7072 99.0323 24.7072 88.9976C24.7072 82.0824 28.2781 76.0679 33.5311 72.9974L41.4796 72.6376L49.474 73.0002C54.7242 76.0731 58.2923 82.0853 58.2923 88.9976Z" fill="white"/>
<g opacity="0.55">
<path d="M10.8741 95.2912C16.7386 79.0147 28.3355 73.6132 28.3355 73.6132L35.5405 73.288L43.489 72.9283L51.4834 73.2909L57.0522 73.5418C56.7829 73.3968 56.6308 73.3254 56.6308 73.3254L49.4717 73.0031L41.4773 72.6405L33.5288 73.0002L26.3238 73.3254C26.3238 73.3254 14.7269 78.727 8.86244 95.0035C2.99796 111.28 21.4813 113.191 21.4813 113.191H21.8056C17.3867 112.246 6.11362 108.497 10.8741 95.2912Z" fill="white"/>
</g>
<path d="M54.7121 102.129L54.7696 102.062L54.827 102.004C54.8631 101.966 54.8993 101.926 54.9355 101.889C55.0078 101.814 55.0807 101.741 55.1536 101.669C55.2989 101.523 55.4476 101.381 55.5991 101.248C55.9017 100.978 56.2088 100.713 56.5298 100.468C56.6876 100.341 56.8518 100.224 57.0126 100.102C57.1733 99.9791 57.3404 99.8657 57.5075 99.7529C57.6745 99.6401 57.8427 99.5284 58.0138 99.422C58.1849 99.3155 58.3548 99.2061 58.5305 99.106L58.7923 98.954C58.879 98.9034 58.9645 98.8516 59.0552 98.805C59.2338 98.7106 59.4095 98.6127 59.5897 98.5224C59.77 98.432 59.9509 98.3422 60.1328 98.2553L60.6846 98.0078C61.056 97.8513 61.4309 97.6988 61.8104 97.5664L62.0974 97.4639L62.3845 97.3724L62.6715 97.2815L62.8156 97.2366L62.9614 97.1969L63.5447 97.0386C63.7405 96.992 63.9374 96.95 64.1338 96.9057C64.3301 96.8613 64.5282 96.8262 64.7263 96.7905L65.0231 96.7376C65.073 96.729 65.1218 96.7186 65.1718 96.7123L65.3216 96.6927L65.9192 96.615C66.1185 96.5931 66.3211 96.5799 66.5186 96.5621L66.8189 96.5373C66.9188 96.5327 67.0192 96.531 67.1191 96.5275C67.3195 96.5212 67.521 96.5154 67.7196 96.5131C67.9183 96.5108 68.1215 96.5235 68.3201 96.5321L68.6193 96.5436C68.7191 96.5517 68.8185 96.5626 68.9178 96.5718C69.1164 96.5908 69.3151 96.6104 69.5126 96.6328C69.7101 96.6553 69.907 96.695 70.1027 96.7278C70.4954 96.7854 70.8818 96.8884 71.2653 96.9839C71.4576 97.0288 71.6459 97.099 71.8342 97.1566C72.0225 97.2141 72.2091 97.2826 72.394 97.3511C72.4196 97.361 72.4409 97.3795 72.4545 97.4034C72.468 97.4273 72.4729 97.4551 72.4683 97.4822C72.4637 97.5093 72.4499 97.534 72.4293 97.5521C72.4086 97.5701 72.3824 97.5805 72.355 97.5813H72.3475C71.9542 97.5871 71.569 97.5624 71.1838 97.5624C70.7986 97.5624 70.4173 97.5485 70.0356 97.5658L69.4661 97.5756C69.2766 97.5871 69.0877 97.5963 68.8988 97.6049L68.6164 97.6176L68.3345 97.6412C68.1468 97.6585 67.9596 97.6711 67.7724 97.6849C67.5859 97.7085 67.3993 97.7293 67.2127 97.7494C67.1197 97.7598 67.0267 97.769 66.9337 97.7811L66.6558 97.8225C66.471 97.8519 66.2855 97.8755 66.1018 97.9083L65.5512 98.0159C65.3675 98.0481 65.1867 98.097 65.0053 98.1385C64.8238 98.1799 64.6413 98.2214 64.4627 98.2755L63.9242 98.4274L63.3926 98.6001L63.2594 98.6427L63.1279 98.6904L62.8656 98.7865L62.6032 98.8809L62.3443 98.9857C61.997 99.1209 61.6554 99.2735 61.3189 99.4277C60.6446 99.7441 59.9871 100.095 59.3492 100.48C59.1884 100.574 59.0334 100.678 58.875 100.776C58.7165 100.873 58.565 100.982 58.4094 101.084L57.9501 101.403C57.8014 101.513 57.6481 101.62 57.5023 101.735L57.2813 101.907L57.0631 102.08C56.9902 102.137 56.919 102.195 56.8472 102.252C56.7755 102.31 56.7043 102.368 56.6348 102.43C56.4947 102.551 56.3564 102.673 56.2209 102.795C56.1524 102.856 56.0858 102.918 56.0211 102.98L55.9252 103.072L55.8403 103.155L55.8098 103.184C55.6703 103.33 55.4786 103.415 55.277 103.419C55.0754 103.423 54.8804 103.347 54.7348 103.207C54.5893 103.067 54.5051 102.875 54.5008 102.673C54.4966 102.471 54.5726 102.275 54.7121 102.129Z" fill="#0F156D"/>
<path d="M27.1615 103.153L27.0765 103.07L26.9806 102.978C26.9159 102.916 26.8493 102.854 26.7808 102.792C26.6453 102.67 26.507 102.548 26.3669 102.428C26.2974 102.368 26.2257 102.309 26.1539 102.25C26.0821 102.191 26.0115 102.132 25.9386 102.078L25.7205 101.905L25.4994 101.732C25.3536 101.617 25.2003 101.511 25.0516 101.401L24.5923 101.082C24.4373 100.979 24.2846 100.872 24.1273 100.773C23.97 100.674 23.8139 100.572 23.6531 100.478C23.0152 100.093 22.3577 99.7417 21.6834 99.4254C21.3441 99.2729 21.0053 99.1186 20.658 98.9834L20.3991 98.8786L20.1367 98.7842L19.8744 98.6881L19.7429 98.6404L19.6097 98.5978L19.0775 98.4251L18.5396 98.2732C18.361 98.2191 18.1785 98.1799 17.997 98.1362C17.8156 98.0924 17.6348 98.0458 17.4511 98.0136L16.9005 97.906C16.7168 97.8731 16.5313 97.8484 16.3465 97.8202L16.0686 97.7788C15.9756 97.7667 15.8826 97.7575 15.7896 97.7471C15.603 97.727 15.4164 97.7062 15.2298 97.6826C15.0427 97.6688 14.8555 97.6562 14.6678 97.6389L14.3859 97.6153L14.1035 97.6026C13.9146 97.594 13.7257 97.5848 13.5362 97.5733L12.9667 97.5635C12.585 97.5462 12.2043 97.5635 11.8185 97.5601C11.4327 97.5566 11.0481 97.5848 10.6542 97.579H10.6479C10.6205 97.5783 10.5941 97.568 10.5734 97.55C10.5526 97.532 10.5387 97.5073 10.534 97.4802C10.5294 97.4531 10.5342 97.4252 10.5478 97.4012C10.5613 97.3773 10.5827 97.3588 10.6083 97.3488C10.7932 97.2801 10.9798 97.2153 11.1681 97.1543C11.3564 97.0933 11.5447 97.0259 11.737 96.9816C12.1205 96.8861 12.5063 96.7842 12.8996 96.7255C13.0953 96.6927 13.2922 96.6576 13.4897 96.6305C13.6872 96.6035 13.8859 96.5885 14.0845 96.5695C14.1838 96.5603 14.2832 96.5494 14.383 96.5413L14.6822 96.5298C14.8819 96.5212 15.084 96.516 15.2827 96.5108C15.4813 96.5056 15.6845 96.5189 15.8832 96.5252C15.9831 96.5287 16.0835 96.5304 16.1834 96.535L16.4831 96.5597C16.6829 96.5776 16.885 96.5908 17.0831 96.6127L17.6807 96.6904L17.8305 96.71C17.8805 96.7163 17.9293 96.7267 17.9792 96.7353L18.276 96.7882C18.4735 96.8239 18.6728 96.8562 18.8685 96.9034C19.0643 96.9506 19.2618 96.9897 19.4576 97.0363L20.0408 97.1946L20.1867 97.2343L20.3308 97.2792L20.6178 97.3701L20.9049 97.4616L21.1891 97.5641C21.5703 97.6965 21.9434 97.849 22.3149 98.0055L22.8666 98.253C23.0486 98.3399 23.2283 98.4309 23.4097 98.5201C23.5911 98.6093 23.7656 98.7083 23.9442 98.8027C24.0337 98.8493 24.1204 98.9011 24.2071 98.9517L24.4689 99.1037C24.6411 99.2038 24.8134 99.3149 24.9856 99.4197C25.1578 99.5244 25.3232 99.6407 25.492 99.7506C25.6608 99.8605 25.8221 99.9808 25.9863 100.099C26.1505 100.218 26.3118 100.339 26.4697 100.465C26.7906 100.711 27.0977 100.975 27.4003 101.246C27.5519 101.382 27.7005 101.521 27.8458 101.667C27.9187 101.739 27.9916 101.812 28.064 101.887C28.1001 101.924 28.1363 101.964 28.1725 102.002L28.227 102.06L28.2873 102.127C28.4174 102.274 28.4856 102.466 28.4777 102.663C28.4698 102.86 28.3863 103.045 28.2448 103.182C28.1033 103.318 27.9147 103.394 27.7184 103.394C27.5222 103.394 27.3335 103.318 27.1919 103.182L27.1615 103.153Z" fill="#0F156D"/>
<path d="M61.4751 113.955H21.483C21.4569 113.955 21.4308 113.953 21.4049 113.951C21.3131 113.941 19.1269 113.707 16.4676 112.745C12.8984 111.454 10.1852 109.453 8.62248 106.956C6.57005 103.679 6.4116 99.5699 8.15114 94.7433C9.51119 90.9706 11.2915 87.4632 13.4427 84.3184C15.1323 81.8382 17.0898 79.5525 19.2796 77.5027C22.9573 74.0748 25.8852 72.6912 26.0081 72.6342C26.0983 72.5922 26.1958 72.5683 26.2951 72.564L41.4515 71.8802C41.4743 71.8791 41.4971 71.8791 41.5198 71.8802L56.6641 72.5622C56.7634 72.5666 56.861 72.5905 56.9512 72.6325C57.074 72.69 60.0014 74.0713 63.6797 77.501C65.8691 79.551 67.8266 81.8367 69.5166 84.3167C71.6672 87.4615 73.4475 90.9689 74.8075 94.7416C76.5471 99.5681 76.3886 103.677 74.3362 106.955C72.7735 109.451 70.0608 111.452 66.4911 112.743C63.8295 113.705 61.6433 113.94 61.5538 113.949C61.5277 113.952 61.5014 113.954 61.4751 113.955ZM21.5289 112.43H61.4349C62.9982 112.217 64.5342 111.837 66.0168 111.297C68.2696 110.478 71.3199 108.918 73.0565 106.14C74.8437 103.281 74.9511 99.6211 73.3815 95.2625C70.4145 87.0321 65.9347 81.6945 62.6997 78.6677C59.6093 75.7773 57.0333 74.3821 56.4419 74.0805L41.479 73.4048L26.5196 74.08C25.9289 74.381 23.3523 75.7755 20.2619 78.6671C17.0268 81.6939 12.5471 87.0298 9.58008 95.2619C8.00876 99.6211 8.11841 103.281 9.9056 106.14C11.6417 108.917 14.6919 110.477 16.9453 111.296C18.4285 111.837 19.9651 112.217 21.5289 112.43Z" fill="#0F156D"/>
<path d="M66.8769 111.173V111.983C66.8765 112.873 66.5238 113.727 65.8962 114.356C65.2686 114.985 64.4175 115.339 63.5298 115.339H19.4702C18.5828 115.338 17.7322 114.984 17.1048 114.355C16.4774 113.726 16.1244 112.873 16.1231 111.983V111.173C16.1231 110.916 16.1738 110.661 16.2722 110.424C16.3705 110.186 16.5147 109.97 16.6965 109.788C16.8782 109.606 17.0939 109.462 17.3313 109.364C17.5686 109.266 17.823 109.216 18.0797 109.217H64.9203C65.177 109.216 65.4313 109.266 65.6687 109.364C65.906 109.462 66.1218 109.606 66.3035 109.788C66.4852 109.97 66.6294 110.186 66.7278 110.424C66.8262 110.661 66.8769 110.916 66.8769 111.173Z" fill="#C0C6D8"/>
<g opacity="0.3">
<path d="M64.2193 109.215C63.8301 112.107 62.7634 114.05 61.6359 115.339H30.1049C35.3327 113.906 39.561 111.434 42.5813 109.215H64.2193Z" fill="#03036B"/>
</g>
<path d="M63.5287 116.101H19.4713C18.3819 116.1 17.3374 115.665 16.5671 114.893C15.7968 114.121 15.3635 113.074 15.3625 111.982V111.176C15.3634 110.454 15.6498 109.762 16.1588 109.252C16.6679 108.741 17.3581 108.454 18.078 108.453H64.922C65.6419 108.454 66.3321 108.741 66.8412 109.252C67.3502 109.762 67.6366 110.454 67.6375 111.176V111.982C67.6363 113.074 67.203 114.121 66.4327 114.893C65.6624 115.665 64.618 116.1 63.5287 116.101ZM18.078 109.976C17.7613 109.977 17.4576 110.103 17.2337 110.328C17.0097 110.552 16.8837 110.857 16.8833 111.174V111.98C16.8833 112.668 17.1558 113.328 17.6411 113.815C18.1264 114.303 18.7847 114.577 19.4713 114.577H63.5287C64.2148 114.577 64.8727 114.303 65.3579 113.817C65.8431 113.33 66.116 112.671 66.1167 111.983V111.177C66.1163 110.859 65.9903 110.555 65.7663 110.331C65.5424 110.106 65.2387 109.98 64.922 109.979L18.078 109.976Z" fill="#0F156D"/>
<path d="M61.4487 110.114H21.5513C19.6326 110.114 17.9947 108.868 17.679 107.167L13.0241 82.1204C12.6223 79.9696 14.4697 78.0115 16.8965 78.0115H66.1035C68.5303 78.0115 70.3754 79.9684 69.9759 82.1204L65.321 107.167C65.0053 108.868 63.3673 110.114 61.4487 110.114Z" fill="#8A56C7"/>
<g opacity="0.3">
<path d="M67.5893 82.1192L62.9356 107.167C62.6193 108.868 60.9837 110.115 59.061 110.115H21.5519C20.6564 110.119 19.783 109.837 19.0585 109.309H50.7083C52.6293 109.309 54.2678 108.063 54.583 106.361L59.2367 81.3135C59.4784 80.011 58.8922 78.7776 57.8525 78.0087H63.7175C66.1426 78.0104 67.9889 79.9696 67.5893 82.1192Z" fill="#CAAAFF"/>
</g>
<g opacity="0.55">
<path d="M66.1035 78.0115H16.3224C13.8956 78.0115 12.0504 79.9684 12.45 82.1204L17.1049 107.167C17.4206 108.868 19.0568 110.114 20.9772 110.114H24.2582C22.3396 110.114 20.7022 108.868 20.3859 107.167L15.7305 82.1204C15.6298 81.5832 15.6704 81.029 15.8482 80.5123C16.0026 80.0622 16.4142 79.7388 16.8884 79.7382H66.103C67.9809 79.7382 69.5051 80.9123 69.9162 82.4392L69.9736 82.1204C70.3754 79.9696 68.5303 78.0115 66.1035 78.0115Z" fill="white"/>
</g>
<path d="M61.4487 110.877H21.5513C19.2583 110.877 17.3156 109.375 16.9309 107.308L12.2761 82.2602C12.0568 81.0769 12.3708 79.9005 13.1614 78.9468C14.0552 77.8677 15.417 77.2489 16.8965 77.2489H66.1035C67.583 77.2489 68.9448 77.8677 69.8387 78.9462C70.6292 79.9005 70.9432 81.0758 70.7234 82.2602L66.0691 107.307C65.6844 109.375 63.7417 110.877 61.4487 110.877ZM16.8982 78.7736C15.8723 78.7736 14.9371 79.192 14.3331 79.9212C13.8365 80.5198 13.6379 81.2513 13.7733 81.9811L18.4288 107.028C18.6791 108.375 19.9932 109.352 21.5536 109.352H61.451C63.0114 109.352 64.3255 108.373 64.5758 107.028L69.2307 81.9811C69.3662 81.2513 69.1675 80.5198 68.6709 79.9212C68.067 79.192 67.1318 78.7736 66.1058 78.7736H16.8982Z" fill="#0F156D"/>
<path d="M74.6008 64.4384C70.0763 71.0814 60.5255 76.434 41.4997 76.434H41.4785C22.6984 76.434 13.1556 71.2086 8.56621 64.6767C6.83414 62.215 5.81051 59.5675 5.25592 56.9436C3.36138 47.9455 7.04483 39.2225 7.04483 39.2225C4.46825 21.6366 8.14022 10.3144 10.366 5.40265C11.2668 3.40952 13.4983 2.36548 15.5904 2.98995C23.5193 5.34969 31.4701 16.2276 31.4701 16.2276C36.3752 14.7311 41.5009 14.829 41.5009 14.829C41.5009 14.829 46.627 14.7317 51.5322 16.2276C51.5322 16.2276 59.4829 5.34624 67.4119 2.98995C69.5028 2.36548 71.7343 3.40952 72.6363 5.40265C74.8621 10.3144 78.534 21.6366 75.9575 39.2225C75.954 39.2225 82.0091 53.5628 74.6008 64.4384Z" fill="#F9A429"/>
<path d="M76.1791 60.7359C75.7641 62.0147 75.236 63.2538 74.6008 64.4384C70.0763 71.0814 60.5255 76.434 41.4997 76.434H41.4785C22.6984 76.434 13.1556 71.2085 8.5662 64.6766C7.84929 63.4275 7.26436 62.1067 6.82093 60.7359C6.82093 60.7359 4.61924 53.3004 8.59606 48.6459C12.5729 43.9914 18.0843 45.9719 20.5805 49.584C23.0767 53.1962 28.8441 52.5193 31.9546 50.0445C35.0651 47.5696 37.5315 46.2418 41.4997 46.2418C45.4679 46.2418 47.9343 47.5696 51.0453 50.0445C54.1564 52.5193 59.9187 53.1956 62.4195 49.584C64.9203 45.9725 70.4242 43.9909 74.4039 48.6459C78.3836 53.3009 76.1791 60.7359 76.1791 60.7359Z" fill="white"/>
<g opacity="0.3">
<path d="M50.0699 53.9335C50.0969 53.4604 49.5033 53.225 49.2025 53.5881C48.3901 54.5729 47.5232 55.0679 45.7257 54.9695C43.5734 54.8544 43.8679 51.6595 43.8679 51.6595H39.1321C39.1321 51.6595 39.4266 54.8532 37.2743 54.9695C35.4768 55.0667 34.6099 54.5718 33.7975 53.5881C33.4967 53.2227 32.9031 53.4581 32.9301 53.9335C33.0018 55.1715 33.5288 56.8647 35.7541 57.4397C39.2182 58.3347 41.3924 57.7396 41.4997 52.5683C41.6076 57.7396 43.7818 58.3347 47.2459 57.4397C49.4712 56.8647 49.9982 55.1715 50.0699 53.9335Z" fill="#03036B"/>
</g>
<path d="M46.3756 50.5187C46.2866 49.302 44.8938 48.6896 43.6199 48.3829C42.2263 48.0485 40.7737 48.0485 39.3801 48.3829C38.1062 48.6896 36.7128 49.3037 36.6244 50.5187C36.5096 52.0998 38.9174 53.1991 40.3917 53.7205C41.1088 53.9749 41.8912 53.9749 42.6083 53.7205C44.0826 53.2014 46.4904 52.1021 46.3756 50.5187Z" fill="#03036B"/>
<path d="M41.5198 49.9852C42.9786 49.9852 44.1613 49.7801 44.1613 49.5271C44.1613 49.2741 42.9786 49.0689 41.5198 49.0689C40.061 49.0689 38.8784 49.2741 38.8784 49.5271C38.8784 49.7801 40.061 49.9852 41.5198 49.9852Z" fill="white"/>
<path d="M45.6005 58.8383C44.066 58.8383 42.8448 58.3445 41.9762 57.3712C40.3521 55.5559 40.6368 52.7444 40.65 52.6252C40.6791 52.4031 40.7937 52.2011 40.9694 52.0626C41.1451 51.9241 41.3679 51.86 41.5901 51.884C41.8123 51.9081 42.0163 52.0184 42.1584 52.1914C42.3005 52.3643 42.3695 52.5862 42.3505 52.8094C42.3465 52.8491 42.1439 54.9965 43.2542 56.2316C43.7938 56.8319 44.5614 57.1237 45.6005 57.1237C46.8291 57.1237 47.7494 56.8026 48.3356 56.17C49.1898 55.2492 49.1175 53.9151 49.1164 53.9018C49.1051 53.7879 49.1167 53.673 49.1505 53.5637C49.1842 53.4543 49.2395 53.3529 49.3129 53.2653C49.3864 53.1778 49.4766 53.1058 49.5782 53.0537C49.6799 53.0016 49.7909 52.9705 49.9047 52.9621C50.0186 52.9537 50.1329 52.9682 50.2411 53.0047C50.3492 53.0413 50.449 53.0992 50.5345 53.1751C50.6199 53.2509 50.6894 53.3431 50.7388 53.4463C50.7882 53.5494 50.8165 53.6615 50.822 53.7758C50.8283 53.8604 50.9581 55.8587 49.5888 57.3367C48.6657 58.333 47.324 58.8383 45.6005 58.8383Z" fill="#03036B"/>
<path d="M37.3995 58.8383C35.6772 58.8383 34.3343 58.333 33.4112 57.3367C32.0419 55.8587 32.1717 53.8604 32.178 53.7758C32.1835 53.6615 32.2118 53.5494 32.2612 53.4463C32.3106 53.3431 32.3801 53.2509 32.4655 53.1751C32.551 53.0992 32.6508 53.0413 32.7589 53.0048C32.8671 52.9682 32.9815 52.9537 33.0953 52.9621C33.2091 52.9705 33.3201 53.0016 33.4218 53.0537C33.5234 53.1058 33.6136 53.1778 33.6871 53.2653C33.7605 53.3529 33.8158 53.4543 33.8495 53.5637C33.8833 53.673 33.8949 53.7879 33.8837 53.9018C33.8837 53.9104 33.8107 55.2595 34.6742 56.181C35.2609 56.8066 36.1778 57.1237 37.3995 57.1237C38.4415 57.1237 39.2108 56.8302 39.7533 56.2265C40.8556 54.9942 40.6546 52.8307 40.6523 52.8117C40.6401 52.6998 40.65 52.5866 40.6815 52.4785C40.7129 52.3705 40.7652 52.2697 40.8355 52.1819C40.9058 52.0941 40.9927 52.0211 41.0911 51.9669C41.1896 51.9128 41.2977 51.8786 41.4093 51.8664C41.5209 51.8541 41.6339 51.8641 41.7416 51.8956C41.8494 51.9271 41.95 51.9796 42.0376 52.05C42.1251 52.1205 42.198 52.2076 42.252 52.3063C42.306 52.405 42.3401 52.5133 42.3523 52.6252C42.3655 52.7444 42.6502 55.5559 41.0261 57.3712C40.1534 58.3462 38.9341 58.8383 37.3995 58.8383Z" fill="#03036B"/>
<path d="M33.8295 32.068C34.163 30.8132 33.0917 29.4377 31.4366 28.9956C29.7815 28.5535 28.1695 29.2122 27.836 30.467C27.5025 31.7217 28.5739 33.0972 30.229 33.5393C31.884 33.9814 33.4961 33.3227 33.8295 32.068Z" fill="white"/>
<path d="M52.7729 33.5343C54.4279 33.0922 55.4993 31.7166 55.1658 30.4619C54.8323 29.2072 53.2203 28.5485 51.5652 28.9906C49.9102 29.4327 48.8388 30.8082 49.1723 32.0629C49.5058 33.3176 51.1178 33.9764 52.7729 33.5343Z" fill="white"/>
<path d="M14.2774 27.2815C16.2868 25.5474 19.7566 22.8078 24.0291 20.4481C24.2856 20.3056 24.4819 20.0748 24.5816 19.7984C24.6813 19.522 24.6778 19.2187 24.5717 18.9447C23.5647 16.3271 18.8943 10.2885 16.3505 9.36069C12.5729 7.9857 12.1463 20.9931 12.2703 26.386C12.2755 26.6167 12.346 26.8413 12.4736 27.0334C12.6011 27.2255 12.7805 27.3774 12.9909 27.4712C13.2012 27.5651 13.4338 27.5971 13.6616 27.5635C13.8893 27.5299 14.1029 27.4321 14.2774 27.2815Z" fill="#FEC7D7"/>
<path d="M68.7203 27.2815C66.7109 25.5474 63.241 22.8078 58.9686 20.4481C58.7119 20.3058 58.5154 20.075 58.4156 19.7986C58.3157 19.5221 58.3192 19.2188 58.4254 18.9447C59.4324 16.3271 64.1028 10.2885 66.6466 9.36069C70.4271 7.9857 70.8537 20.9931 70.7297 26.386C70.7248 26.6172 70.6545 26.8422 70.5268 27.0347C70.3991 27.2273 70.2194 27.3794 70.0086 27.4734C69.7979 27.5673 69.5648 27.5991 69.3366 27.5652C69.1085 27.5312 68.8947 27.4328 68.7203 27.2815Z" fill="#FEC7D7"/>
<g opacity="0.3">
<path d="M77.5707 44.7633C77.8641 49.3026 77.2302 54.684 74.0158 59.4023C69.5717 65.9273 60.1897 71.1855 41.4997 71.1855H41.479C23.0302 71.1855 13.6562 66.0522 9.14834 59.636C7.44669 57.2187 6.43971 54.6166 5.89661 52.0388C5.36786 49.5294 5.28175 47.0413 5.42929 44.7633C4.75127 48.0629 4.31438 52.4676 5.25706 56.9419C5.8105 59.5658 6.83527 62.2133 8.56735 64.6749C13.1567 71.2068 22.6995 76.4294 41.4796 76.4322H41.5008C60.5267 76.4322 70.0775 71.0796 74.602 64.4367C79.1047 57.8282 78.6328 49.9351 77.5707 44.7633Z" fill="#03036B"/>
</g>
<g opacity="0.6">
<path d="M67.4108 2.98994C59.4818 5.34969 51.531 16.2276 51.531 16.2276C46.6259 14.7311 41.4997 14.829 41.4997 14.829C41.4997 14.829 36.3741 14.7317 31.469 16.2276C31.469 16.2276 23.5182 5.34624 15.5892 2.98994C13.6528 2.41152 11.5969 3.26621 10.5894 4.97789C11.5247 4.64171 12.5426 4.61368 13.4949 4.89789C20.3233 6.929 27.166 14.8071 29.6657 17.926C29.9505 18.2778 30.3252 18.5453 30.75 18.7C31.1747 18.8547 31.6334 18.8907 32.0769 18.8043C32.2584 19.8339 34.2407 20.4009 36.5383 20.0705C38.7561 19.7522 40.4566 18.7139 40.4686 17.7073C41.1197 17.6895 41.498 17.6964 41.498 17.6964C41.498 17.6964 46.0099 17.6106 50.7859 18.7818C51.2478 18.8973 51.7331 18.8781 52.1846 18.7265C52.636 18.5749 53.0349 18.2972 53.3343 17.926C55.834 14.8071 62.6767 6.929 69.5051 4.89789C70.4574 4.61368 71.4753 4.64171 72.4106 4.97789C71.4014 3.26621 69.3472 2.41152 67.4108 2.98994Z" fill="white"/>
</g>
<path d="M41.4997 77.2449C32.4289 77.2449 24.865 76.0196 19.0195 73.6023C13.9634 71.5113 10.1106 68.5012 7.56899 64.6559C5.86907 62.0838 4.74612 59.122 4.2323 55.8535C3.82353 53.2566 3.79655 50.4623 4.15192 47.5483C4.67895 43.2271 5.87423 39.973 6.21123 39.12C5.10379 31.4249 5.06762 24.1298 6.10502 17.4351C6.99776 11.6692 8.51397 7.52814 9.6283 5.0671C10.6973 2.70735 13.36 1.47855 15.82 2.21065C19.24 3.22822 23.0273 5.82279 27.0776 9.923C28.7503 11.6179 30.32 13.4118 31.7784 15.2952C36.4861 13.9714 41.1409 14.0152 41.4997 14.0215C41.8591 14.0152 46.5151 13.9697 51.2216 15.2952C52.68 13.4122 54.2497 11.6187 55.9224 9.92415C59.9727 5.8251 63.76 3.23052 67.18 2.2118C69.6389 1.48201 72.3027 2.70677 73.3705 5.0671C74.4849 7.52814 76.0011 11.6715 76.8938 17.4351C77.9312 24.1298 77.8951 31.4249 76.7876 39.1206C77.1235 39.973 78.3199 43.2271 78.8469 47.5483C79.2023 50.4623 79.1753 53.2566 78.7665 55.8535C78.2499 59.122 77.1298 62.0838 75.4299 64.6559C72.8883 68.5012 69.0355 71.5113 63.9793 73.6023C58.135 76.0196 50.5711 77.2449 41.4997 77.2449ZM14.3681 3.62247C13.6789 3.62497 13.0049 3.82556 12.426 4.20046C11.8471 4.57535 11.3876 5.10883 11.102 5.73761C8.80561 10.8128 5.32482 21.8956 7.84456 39.1033C7.86544 39.2505 7.84558 39.4006 7.78715 39.5373C7.7728 39.5718 6.32031 43.0608 5.75023 47.7941C5.23353 52.1107 5.35926 58.3842 8.92215 63.7684C14.127 71.6339 25.0872 75.6247 41.4974 75.6247C57.9076 75.6247 68.8684 71.6362 74.0732 63.7684C77.6361 58.3842 77.7647 52.1096 77.2452 47.7941C76.6751 43.0608 75.2226 39.5718 75.2083 39.5373C75.1498 39.4006 75.13 39.2505 75.1508 39.1033C77.6706 21.8944 74.1915 10.8128 71.8934 5.73761C71.1562 4.11111 69.326 3.26275 67.6358 3.76693C60.0576 6.02136 52.2567 16.6017 52.1786 16.7081C52.0795 16.8437 51.9408 16.9451 51.7817 16.9982C51.6226 17.0513 51.4509 17.0535 51.2905 17.0046C46.5777 15.5674 41.5652 15.6405 41.5146 15.6405H41.4848C41.4348 15.6405 36.4223 15.5663 31.7049 17.0034C31.5445 17.0524 31.3728 17.0502 31.2137 16.9971C31.0546 16.944 30.9159 16.8426 30.8168 16.707C30.7387 16.6017 22.9309 6.01963 15.3596 3.76693C15.0378 3.67104 14.7038 3.62238 14.3681 3.62247Z" fill="#0F156D"/>
<path d="M28.607 36.13C25.6171 35.5574 22.599 38.2118 21.8653 42.0582C21.1316 45.9046 22.9642 49.4925 25.9495 50.0652C28.9349 50.6379 31.9592 47.9863 32.6929 44.1359C33.4267 40.2855 31.597 36.7056 28.607 36.13Z" fill="#000072"/>
<path d="M28.2637 37.7416C27.2751 38.0023 26.755 39.2846 27.1012 40.6061C27.4474 41.9275 28.5307 42.788 29.5193 42.5273C30.5079 42.2665 31.0281 40.9836 30.6819 39.6622C30.3357 38.3407 29.2524 37.4797 28.2637 37.7416Z" fill="white"/>
<path d="M24.357 45.7797C23.8782 46.0335 23.7639 46.7581 24.1015 47.3975C24.4391 48.037 25.1004 48.3501 25.5786 48.0968C26.0569 47.8436 26.1717 47.1184 25.8341 46.479C25.4966 45.8395 24.8352 45.5264 24.357 45.7797Z" fill="#B199C5"/>
<path d="M54.393 36.13C57.3829 35.5574 60.401 38.2118 61.1347 42.0582C61.8684 45.9046 60.0387 49.4891 57.0488 50.0618C54.0588 50.6344 51.0408 47.9863 50.3071 44.1359C49.5733 40.2855 51.403 36.7056 54.393 36.13Z" fill="#000072"/>
<path d="M54.7363 37.7416C55.7249 38.0023 56.245 39.2846 55.8988 40.6061C55.5526 41.9275 54.4693 42.788 53.4807 42.5273C52.4921 42.2665 51.9719 40.9836 52.3187 39.6622C52.6655 38.3407 53.7476 37.4797 54.7363 37.7416Z" fill="white"/>
<path d="M58.643 45.7797C59.1218 46.0335 59.2361 46.7581 58.8985 47.3975C58.5609 48.037 57.8996 48.3501 57.4213 48.0968C56.9431 47.8436 56.8283 47.1184 57.1659 46.479C57.5034 45.8395 58.1648 45.5264 58.643 45.7797Z" fill="#B199C5"/>
<path d="M50.4842 94.4778C50.4847 96.1717 49.9832 97.8278 49.0431 99.2365C48.1031 100.645 46.7667 101.743 45.203 102.392C43.6392 103.04 41.9184 103.21 40.2582 102.88C38.598 102.55 37.0729 101.735 35.8758 100.537C34.6787 99.3393 33.8634 97.8133 33.5329 96.152C33.2025 94.4906 33.3719 92.7686 34.0195 91.2035C34.6672 89.6385 35.7641 88.3008 37.1715 87.3597C38.5789 86.4185 40.2336 85.9162 41.9263 85.9162C44.1955 85.9162 46.3719 86.8181 47.9768 88.4237C49.5816 90.0292 50.4835 92.2069 50.4842 94.4778Z" fill="#ECD759"/>
<path d="M49.1115 94.4778C49.1115 95.9004 48.69 97.291 47.9002 98.4738C47.1104 99.6566 45.9879 100.578 44.6746 101.123C43.3613 101.667 41.9161 101.81 40.5219 101.532C39.1277 101.255 37.847 100.57 36.8419 99.5637C35.8367 98.5578 35.1522 97.2762 34.8748 95.881C34.5975 94.4858 34.7398 93.0396 35.2838 91.7253C35.8278 90.4111 36.7491 89.2877 37.931 88.4974C39.113 87.7071 40.5026 87.2852 41.9241 87.2852C43.8303 87.2852 45.6585 88.043 47.0064 89.3919C48.3542 90.7408 49.1115 92.5702 49.1115 94.4778Z" fill="#ECC559"/>
<g style="mix-blend-mode:multiply" opacity="0.8">
<g style="mix-blend-mode:multiply">
<path d="M45.379 94.0438C45.6812 93.6572 45.8453 93.1804 45.8449 92.6896V92.5656C45.8412 92.0019 45.6244 91.4605 45.2383 91.0501C44.8521 90.6398 44.3251 90.3908 43.7631 90.3532V89.5149H42.2934V90.3483H41.6762V89.5149H40.1892V90.3483H39.121V91.8364H39.8645V96.6852H39.121V98.1733H40.1991V98.8529H41.6862V98.1659H42.2934V98.8454H43.7804V98.1659H43.8349C44.4454 98.1652 45.0306 97.9222 45.4623 97.4903C45.8939 97.0583 46.1367 96.4726 46.1374 95.8618V95.7328C46.1353 95.414 46.0668 95.099 45.9362 94.8082C45.8056 94.5174 45.6158 94.257 45.379 94.0438ZM41.3317 91.8265H43.6267C43.8239 91.8265 44.0131 91.9049 44.1525 92.0444C44.2919 92.1839 44.3703 92.3732 44.3703 92.5705V92.6945C44.3703 92.8919 44.2919 93.0811 44.1525 93.2207C44.0131 93.3602 43.8239 93.4386 43.6267 93.4386H41.3317V91.8265ZM44.6429 95.8618C44.6422 96.0804 44.555 96.2898 44.4003 96.4442C44.2456 96.5985 44.036 96.6852 43.8176 96.6852H41.3392V94.9069H43.8176C44.0363 94.9075 44.2458 94.9948 44.4004 95.1495C44.5551 95.3043 44.6422 95.5139 44.6429 95.7328V95.8618Z" fill="#ECC559"/>
</g>
</g>
<path d="M44.98 94.4456C45.2812 94.0575 45.4451 93.5803 45.4459 93.0889V92.9674C45.4421 92.4033 45.225 91.8616 44.8384 91.4511C44.4517 91.0407 43.924 90.792 43.3616 90.755V89.9143H41.8745V90.7476H41.2772V89.9143H39.7902V90.7476H38.7195V92.2357H39.463V97.0771H38.7195V98.5652H39.7976V99.2447H41.2847V98.5652H41.8919V99.2447H43.3789V98.5652H43.4359C44.0464 98.5645 44.6316 98.3216 45.0633 97.8896C45.4949 97.4576 45.7377 96.872 45.7384 96.2611V96.1321C45.736 95.8137 45.6673 95.4993 45.5367 95.2089C45.4061 94.9185 45.2165 94.6585 44.98 94.4456ZM40.9327 92.2283H43.2277C43.4249 92.2283 43.614 92.3067 43.7535 92.4462C43.8929 92.5857 43.9713 92.775 43.9713 92.9723V93.0939C43.9713 93.2912 43.8929 93.4805 43.7535 93.62C43.614 93.7595 43.4249 93.8379 43.2277 93.8379H40.9327V92.2283ZM44.2439 96.2611C44.2406 96.4782 44.1523 96.6853 43.998 96.838C43.8436 96.9906 43.6356 97.0764 43.4186 97.0771H40.9402V95.3087H43.4186C43.637 95.3087 43.8466 95.3954 44.0013 95.5497C44.156 95.7041 44.2432 95.9135 44.2439 96.1321V96.2611Z" fill="#DBC125"/>
<g style="mix-blend-mode:screen">
<g style="mix-blend-mode:screen">
<path d="M42.3082 89.9143H41.8844V90.3235H42.3082V89.9143Z" fill="#ECD759"/>
</g>
<g style="mix-blend-mode:screen">
<path d="M43.9167 93.3568C44.0556 93.3026 44.175 93.2078 44.2594 93.0849C44.3438 92.9619 44.3894 92.8164 44.3901 92.6673V92.5457C44.3901 92.3484 44.3118 92.1591 44.1723 92.0196C44.0329 91.8801 43.8438 91.8017 43.6466 91.8017H41.3565V92.2283H43.2277C43.4249 92.2283 43.614 92.3067 43.7535 92.4462C43.8929 92.5857 43.9713 92.775 43.9713 92.9723V93.0939C43.9682 93.184 43.9498 93.2729 43.9167 93.3568Z" fill="#ECD759"/>
</g>
<g style="mix-blend-mode:screen">
<path d="M44.172 96.581C44.3175 96.518 44.4416 96.4142 44.5296 96.2822C44.6175 96.1502 44.6655 95.9956 44.6677 95.837V95.708C44.6677 95.4896 44.581 95.2802 44.4267 95.1257C44.2724 94.9713 44.0631 94.8846 43.8449 94.8846H41.3665V95.3087H43.4285C43.6469 95.3087 43.8565 95.3954 44.0112 95.5497C44.1659 95.7041 44.2531 95.9135 44.2538 96.1321V96.2611C44.249 96.3722 44.2211 96.4812 44.172 96.581Z" fill="#ECD759"/>
</g>
<g style="mix-blend-mode:screen">
<path d="M39.8769 90.3235H40.2214V89.9143H39.7976V90.3235H39.8769Z" fill="#ECD759"/>
</g>
<g style="mix-blend-mode:screen">
<path d="M43.8424 98.1411H43.7804V98.5329C44.3595 98.4398 44.881 98.1283 45.2377 97.6624C44.8384 97.9721 44.3476 98.1404 43.8424 98.1411Z" fill="#ECD759"/>
</g>
<g style="mix-blend-mode:screen">
<path d="M39.4531 93.828V95.3087V96.6629H39.8769V94.8846V93.4039V91.8017H39.1433V90.7476H38.7195V92.2283H39.4531V93.828Z" fill="#ECD759"/>
</g>
<g style="mix-blend-mode:screen">
<path d="M42.3058 98.8206V98.1411H41.701V98.5677H41.8845V99.2447H43.3616V98.8206H42.3058Z" fill="#ECD759"/>
</g>
<g style="mix-blend-mode:screen">
<path d="M40.2214 98.8206V98.1411H39.8769H39.1433V97.087H38.7195V98.5677H39.4531H39.7976V99.2447H41.2772V98.8206H40.2214Z" fill="#ECD759"/>
</g>
</g>
</g>
<defs>
<filter id="filter0_d_8_26697" x="-1" y="-9.15527e-05" width="91" height="151" filterUnits="userSpaceOnUse" color-interpolation-filters="sRGB">
<feFlood flood-opacity="0" result="BackgroundImageFix"/>
<feColorMatrix in="SourceAlpha" type="matrix" values="0 0 0 0 0 0 0 0 0 0 0 0 0 0 0 0 0 0 127 0" result="hardAlpha"/>
<feOffset dx="3" dy="2"/>
<feGaussianBlur stdDeviation="2"/>
<feComposite in2="hardAlpha" operator="out"/>
<feColorMatrix type="matrix" values="0 0 0 0 0 0 0 0 0 0 0 0 0 0 0 0 0 0 0.25 0"/>
<feBlend mode="normal" in2="BackgroundImageFix" result="effect1_dropShadow_8_26697"/>
<feBlend mode="normal" in="SourceGraphic" in2="effect1_dropShadow_8_26697" result="shape"/>
</filter>
</defs>
</svg>
