<svg width="136" height="177" viewBox="0 0 136 177" fill="none" xmlns="http://www.w3.org/2000/svg">
<path d="M30.5 156.5L57.9308 130.155C58.2938 129.802 58.7745 129.593 59.2828 129.565C59.791 129.538 60.2918 129.695 60.6912 130.007L66.8425 134.81C67.2586 135.135 67.7842 135.291 68.3127 135.247C68.8413 135.203 69.3332 134.963 69.6887 134.574L109.161 91.405L112.408 94.1778L116.123 69.7588L91.4797 78.1747L95.2752 81.3964L64.2968 115.515L57.3193 110.234L22.5 147.5L30.5 156.5Z" fill="#00FF67"/>
<path d="M19.0303 150.156C19.7446 149.236 20.49 148.348 21.2466 147.467C22.0031 146.587 22.7738 145.721 23.5543 144.864C23.945 144.436 24.3378 144.009 24.7329 143.586L25.9226 142.319L28.3036 139.784C31.4811 136.406 34.6638 133.033 37.8518 129.666C41.0398 126.298 44.2369 122.939 47.4431 119.588C50.6485 116.236 53.8662 112.896 57.0961 109.567L57.1003 109.562C57.2152 109.445 57.3702 109.372 57.5355 109.36C57.7009 109.348 57.8651 109.396 57.9968 109.495L64.9665 114.763L64.0554 114.845L94.9996 80.8264L95.0621 81.7747L91.2707 78.5623C91.2033 78.5054 91.1479 78.4359 91.1078 78.3578C91.0677 78.2798 91.0436 78.1947 91.0369 78.1074C91.0302 78.0201 91.041 77.9324 91.0688 77.8493C91.0965 77.7662 91.1407 77.6893 91.1986 77.623C91.2764 77.5342 91.3763 77.4669 91.4885 77.4278L116.106 69.0363C116.275 68.9789 116.46 68.9899 116.621 69.067C116.782 69.1441 116.905 69.281 116.963 69.4476C116.998 69.5491 117.009 69.6575 116.993 69.7636L113.282 94.112C113.264 94.2296 113.214 94.3403 113.138 94.4325C113.062 94.5248 112.962 94.5952 112.849 94.6365C112.736 94.6778 112.613 94.6884 112.495 94.6673C112.376 94.6461 112.265 94.594 112.174 94.5163L108.93 91.7515L109.871 91.6943C106.699 95.2285 103.518 98.7542 100.327 102.271C97.1359 105.789 93.9428 109.304 90.7477 112.816C84.3524 119.838 77.944 126.848 71.5224 133.848L70.9207 134.504L70.6201 134.831L70.5787 134.872L70.5232 134.928L70.4114 135.038C70.375 135.076 70.3319 135.107 70.2921 135.141L70.1679 135.24C69.6561 135.62 69.0328 135.826 68.3921 135.826C67.7514 135.826 67.1281 135.62 66.6162 135.24L66.5541 135.195L66.5102 135.161L66.422 135.092L66.2464 134.955L65.8949 134.68L64.4869 133.581L61.6744 131.382L60.9704 130.832L60.6189 130.557L60.4433 130.419L60.4213 130.402C60.4143 130.397 60.4114 130.396 60.4064 130.392L60.3791 130.373L60.3253 130.332C60.1762 130.238 60.0088 130.175 59.8337 130.148C59.6575 130.121 59.4773 130.133 59.3062 130.182C59.2639 130.193 59.2224 130.207 59.1819 130.223C59.1611 130.23 59.1408 130.239 59.1215 130.25C59.1016 130.259 59.0801 130.269 59.0614 130.278L59.0047 130.312C58.9851 130.322 58.9663 130.334 58.9484 130.347C58.931 130.36 58.9128 130.373 58.895 130.388C58.8859 130.394 58.8763 130.399 58.8676 130.407L58.8432 130.429L58.7927 130.473C58.7861 130.477 58.7712 130.493 58.7579 130.505L58.7165 130.544L58.5562 130.698L58.2432 131.007L56.9595 132.244L54.3921 134.719L49.2577 139.665L38.9757 149.544C37.2568 151.185 35.5644 152.852 33.7916 154.441C32.9068 155.235 32.0066 156.015 31.0909 156.779C30.6321 157.161 30.1675 157.536 29.697 157.905C29.2262 158.273 28.7512 158.64 28.2597 158.988C28.2484 158.996 28.2343 159.001 28.2199 159C28.2055 158.999 28.1921 158.993 28.182 158.983C28.172 158.972 28.1662 158.959 28.1657 158.945C28.1652 158.931 28.1701 158.917 28.1794 158.906C28.5409 158.427 28.9194 157.967 29.3012 157.507C29.683 157.047 30.0726 156.598 30.4668 156.152C31.2553 155.26 32.061 154.385 32.8839 153.528C34.5242 151.807 36.2443 150.167 37.9384 148.501L48.1322 138.532L53.2334 133.552L55.7864 131.064L57.0614 129.823L57.3806 129.512L57.54 129.356L57.5815 129.316C57.5947 129.302 57.6059 129.291 57.6278 129.272L57.7442 129.168L57.8034 129.116C57.8233 129.1 57.8448 129.085 57.8655 129.069L57.9922 128.976C58.0337 128.944 58.08 128.919 58.1243 128.892C58.1686 128.864 58.2142 128.837 58.2597 128.81L58.4014 128.741C58.4483 128.718 58.4964 128.697 58.5455 128.679C58.6426 128.639 58.742 128.605 58.8432 128.576C59.248 128.459 59.6738 128.429 60.0913 128.49C60.5096 128.551 60.9099 128.699 61.2657 128.924L61.3945 129.014L61.4582 129.06L61.4885 129.082L61.5108 129.099L61.6868 129.235L62.0396 129.509L62.7436 130.056L65.5627 132.247L66.9707 133.342L67.3231 133.616L67.4991 133.753L67.5873 133.821L67.6312 133.856C67.6436 133.864 67.6506 133.868 67.6601 133.875C67.8008 133.978 67.962 134.051 68.133 134.088C68.3047 134.125 68.4827 134.124 68.654 134.085C68.8246 134.049 68.9853 133.976 69.1252 133.873C69.1418 133.858 69.1583 133.845 69.1753 133.832C69.1929 133.82 69.2094 133.806 69.2246 133.791C69.2399 133.775 69.2552 133.76 69.271 133.744L69.2946 133.722L69.331 133.681L69.6317 133.354L70.2329 132.697C76.6418 125.688 83.0645 118.691 89.5012 111.706C92.7199 108.211 95.9422 104.721 99.1683 101.236C102.394 97.7509 105.629 94.2727 108.871 90.8012L108.876 90.7963C108.995 90.6696 109.159 90.5932 109.333 90.5834C109.508 90.5736 109.68 90.631 109.812 90.7436L113.056 93.5088L111.949 93.9127L115.66 69.5644L116.547 70.2917L91.9312 78.6848L92.1502 77.552L95.9417 80.7643C96.0091 80.8212 96.0644 80.8907 96.1046 80.9688C96.1447 81.0468 96.1688 81.1319 96.1755 81.2192C96.1822 81.3065 96.1713 81.3942 96.1436 81.4773C96.1158 81.5604 96.0717 81.6373 96.0137 81.7036L96.0042 81.7142L65.06 115.733C64.9465 115.858 64.7899 115.935 64.6211 115.951C64.4524 115.966 64.2839 115.919 64.149 115.818L57.179 110.551L58.0796 110.479C54.9076 113.862 51.7179 117.228 48.5103 120.577C45.3079 123.932 42.097 127.278 38.8776 130.617C35.6581 133.955 32.4326 137.288 29.201 140.616L26.776 143.11L25.5627 144.357C25.1569 144.771 24.7487 145.183 24.3382 145.593C23.5169 146.412 22.6842 147.221 21.84 148.019C20.9931 148.815 20.1393 149.603 19.2502 150.36C19.2217 150.384 19.1853 150.396 19.148 150.396C19.1107 150.395 19.075 150.38 19.0478 150.355C19.0206 150.33 19.0038 150.295 19.0006 150.259C18.9973 150.222 19.0079 150.185 19.0303 150.156Z" fill="#0F156D"/>
<path d="M12.7934 109.928C12.7934 109.928 20.1299 100.781 32.3566 104.105C44.5834 107.428 25.9097 118.652 25.9097 118.652L12.7934 109.928Z" fill="#F9A429"/>
<g opacity="0.3">
<path d="M12.7934 109.928C12.7934 109.928 20.1299 100.781 32.3566 104.105C44.5834 107.428 25.9097 118.652 25.9097 118.652L12.7934 109.928Z" fill="#03036B"/>
</g>
<path d="M25.9097 119.588C25.7256 119.588 25.5457 119.533 25.3925 119.431L12.2739 110.704C12.1661 110.632 12.0745 110.539 12.0048 110.43C11.935 110.321 11.8888 110.199 11.8689 110.071C11.849 109.943 11.856 109.813 11.8893 109.688C11.9226 109.563 11.9815 109.447 12.0624 109.346C12.1423 109.247 14.0513 106.894 17.5336 104.956C19.5374 103.832 21.7229 103.066 23.9915 102.692C26.7866 102.239 29.684 102.412 32.6026 103.208C35.5333 104.004 37.1492 105.35 37.4084 107.207C37.59 108.505 37.0636 109.981 35.8482 111.597C34.9541 112.784 33.6709 114.074 32.0343 115.431C30.2468 116.898 28.3621 118.242 26.393 119.456C26.2469 119.543 26.0799 119.589 25.9097 119.588ZM14.2208 109.756L25.9264 117.546C26.8458 116.963 28.8829 115.618 30.8534 113.983C34.0967 111.291 35.7666 108.975 35.5551 107.463C35.4086 106.414 34.2495 105.587 32.1107 105.005C27.2837 103.694 22.6865 104.225 18.4462 106.585C16.8992 107.445 15.4775 108.512 14.2208 109.756Z" fill="#0F156D"/>
<path d="M78.448 97.2357C75.6851 118.536 56.3367 126.843 50.5276 128.873C49.3034 129.302 48.1848 129.985 47.2463 130.878C45.1161 132.911 43.1462 135.201 41.1706 137.36C36.4119 142.555 31.6211 146.994 24.5007 145.243C13.6835 142.586 7.16011 135.716 9.01277 130.47C9.24167 129.798 9.62545 129.188 10.1333 128.691C12.9956 125.917 18.9829 127.847 18.9829 127.847C19.2452 126.679 19.6005 125.533 20.0454 124.42C23.2767 116.363 30.2098 112.56 30.2098 112.56C24.923 107.898 23.9496 102.432 24.5938 97.663C25.4804 91.0971 29.434 85.8582 29.434 85.8582C29.4196 85.8319 29.4047 85.8084 29.3903 85.7821C28.851 84.8873 28.3804 83.9532 27.9824 82.9877C25.2816 76.3954 27.775 71.6377 29.8265 69.1354C30.9149 67.8078 31.878 67.1136 31.878 67.1136C40.304 70.1967 47.767 72.2184 54.3432 73.4464C59.5294 74.4201 64.1697 74.9017 68.2916 75.0243C89.2933 75.6663 97.128 67.1136 97.128 67.1136C97.295 67.5019 97.4552 67.8861 97.6084 68.266C97.7343 68.5838 97.8572 68.896 97.971 69.2053V69.211C107.887 95.7134 78.448 97.2357 78.448 97.2357Z" fill="#F9A429"/>
<path d="M41.1717 137.36C36.4131 142.557 31.62 146.992 24.5001 145.242C13.6824 142.585 7.16126 135.716 9.01392 130.47C10.8666 125.224 18.9806 127.847 18.9806 127.847C19.243 126.678 19.5984 125.531 20.0437 124.419C22.9721 128.236 29.7236 135.209 41.1717 137.36Z" fill="white"/>
<path d="M49.0306 105.334C37.7675 109.225 24.1323 101.884 31.2459 88.3668C38.3594 74.8496 51.959 73.7425 51.959 73.7425C51.959 73.7425 52.9009 73.1366 54.3415 72.4092C59.5277 73.3828 64.1651 73.8639 68.2911 73.9848C68.5135 74.6807 68.6649 75.3972 68.7427 76.1234C70.1495 88.4041 60.2948 101.44 49.0306 105.334Z" fill="white"/>
<g opacity="0.3">
<path d="M47.879 111.672C39.3007 106.993 30.2075 112.562 30.2075 112.562C24.9207 107.9 23.9473 102.434 24.5915 97.6647C25.1262 100.049 26.0971 102.314 27.4555 104.348C29.0852 106.786 31.9774 108.038 34.8943 107.681C44.3317 106.525 47.7848 111.532 47.879 111.672Z" fill="#03036B"/>
</g>
<g opacity="0.3">
<path d="M78.448 97.2357C75.6851 118.536 56.3367 126.843 50.5276 128.873C49.3034 129.302 48.1848 129.985 47.2463 130.878C45.1161 132.911 43.1462 135.201 41.1706 137.36C36.4119 142.555 31.6211 146.994 24.5007 145.243C13.6835 142.586 7.16011 135.716 9.01277 130.47C9.24167 129.798 9.62545 129.188 10.1333 128.691C10.5902 131.03 12.5072 136.683 20.5672 140.374C29.3742 144.408 35.6885 137.098 42.2889 129.921C44.3802 127.649 47.007 125.932 49.9317 124.927C52.1358 124.167 54.2982 123.292 56.4097 122.306C58.1675 121.482 59.2542 119.66 59.0823 117.731C58.8295 114.889 59.4932 110.5 64.7679 107.153C71.8935 102.629 75.5851 100.538 73.1336 96.9093C72.4906 95.9574 73.1629 94.6693 74.3122 94.6046C81.9642 94.1761 100.155 90.8067 97.6084 68.2671C108.584 95.6784 78.448 97.2357 78.448 97.2357Z" fill="#03036B"/>
</g>
<g opacity="0.3">
<path d="M98.0653 71.459C93.7048 79.1595 79.9334 87.7529 49.0639 79.5535C49.0639 79.5535 37.0762 76.4642 29.8242 69.1371C30.9126 67.8095 31.8757 67.1153 31.8757 67.1153C40.3017 70.1984 47.7647 72.2202 54.3409 73.4481C59.5271 74.4218 64.1674 74.9035 68.2893 75.026C89.291 75.6681 97.1257 67.1153 97.1257 67.1153C97.2927 67.5037 97.4529 67.8878 97.6061 68.2677C97.732 68.5856 97.8549 68.8977 97.9687 69.207V69.2127C98.0273 69.9739 98.0595 70.7265 98.0653 71.459Z" fill="#03036B"/>
</g>
<g opacity="0.3">
<path d="M40.9896 77.1646C35.8471 78.0713 29.7184 85.6526 29.7184 85.6526L29.388 85.7838C28.8487 84.889 28.378 83.9549 27.9801 82.9894C34.7966 76.6509 40.9896 77.1646 40.9896 77.1646Z" fill="#03036B"/>
</g>
<path d="M83.1779 74.5197C83.1112 74.5982 83.0561 74.6635 82.9946 74.7322L82.8153 74.9321C82.6963 75.0655 82.5745 75.1944 82.4515 75.3227C82.2067 75.5793 81.9577 75.8305 81.7045 76.0764C81.1961 76.5678 80.672 77.0415 80.1322 77.4974C79.5925 77.9533 79.0383 78.3924 78.4698 78.8147C77.8997 79.2347 77.3157 79.6356 76.7177 80.0174L76.2672 80.3038L75.8075 80.5753C75.6557 80.6669 75.5 80.7528 75.3477 80.8399C75.1955 80.9269 75.0386 81.0151 74.88 81.0959C74.254 81.4362 73.6098 81.7421 72.9503 82.0123C72.7848 82.0793 72.6164 82.1406 72.4504 82.2042C72.2843 82.2677 72.1113 82.3187 71.9424 82.376C71.8579 82.404 71.7734 82.4332 71.6878 82.4579L71.4292 82.53C71.2568 82.577 71.0844 82.6234 70.912 82.6652C70.7396 82.707 70.5615 82.7414 70.3862 82.7746C70.211 82.8078 70.0323 82.8319 69.8564 82.8594C69.502 82.9093 69.1449 82.9372 68.787 82.943C68.745 82.9442 68.7039 82.9311 68.6703 82.9061C68.6367 82.881 68.6125 82.8453 68.6018 82.8048C68.5911 82.7644 68.5944 82.7215 68.6112 82.6831C68.6281 82.6448 68.6574 82.6132 68.6945 82.5936L68.7014 82.5902C69.3237 82.2643 69.9351 81.9693 70.5333 81.6503C70.6833 81.5736 70.8304 81.4877 70.9793 81.4098L71.2022 81.2918C71.2752 81.2494 71.3488 81.2082 71.4223 81.1675L71.8625 80.9235C72.0085 80.8399 72.1498 80.7517 72.2992 80.6732C72.4486 80.5948 72.5866 80.5014 72.7325 80.4195C72.8785 80.3376 73.0198 80.2528 73.1647 80.1635L73.5945 79.904L74.0186 79.6343C74.5812 79.27 75.1363 78.8943 75.6793 78.4991C76.2223 78.1039 76.7568 77.6973 77.2832 77.2803C77.8095 76.8634 78.3256 76.4309 78.8347 75.9922C79.3438 75.5535 79.8472 75.1062 80.342 74.6509C80.5885 74.4218 80.8362 74.1927 81.0781 73.9636L81.4396 73.6199L81.7844 73.2809L81.8068 73.2597C81.9791 73.0937 82.2087 72.9999 82.4484 72.9976C82.688 72.9954 82.9194 73.0848 83.0949 73.2475C83.2704 73.4102 83.3765 73.6338 83.3916 73.8721C83.4066 74.1105 83.3293 74.3456 83.1756 74.5289L83.1779 74.5197Z" fill="#0F156D"/>
<path d="M28.6818 85.3015C28.7392 85.2259 28.7858 85.1664 28.8375 85.1022L28.9892 84.9155C29.09 84.7926 29.1923 84.6717 29.2961 84.553C29.5035 84.3147 29.7121 84.0799 29.9282 83.8519C30.0356 83.7374 30.1437 83.6228 30.2534 83.5083C30.3632 83.3937 30.4718 83.2832 30.5827 83.1721C30.8057 82.9518 31.0313 82.7345 31.2596 82.5203C31.7153 82.0902 32.1906 81.6812 32.6733 81.282C33.156 80.8829 33.6576 80.5054 34.1674 80.1406C34.4214 79.9567 34.6817 79.7815 34.9414 79.6062C35.2011 79.431 35.4684 79.2666 35.739 79.1074C36.2757 78.7832 36.8222 78.4773 37.3871 78.2007C38.514 77.6537 39.719 77.2419 40.9626 77.0793C40.9829 77.0768 41.0034 77.0814 41.0208 77.0922C41.0381 77.103 41.0513 77.1194 41.058 77.1387C41.0647 77.1579 41.0646 77.1789 41.0577 77.1981C41.0508 77.2173 41.0375 77.2336 41.02 77.2442C40.4856 77.5621 39.9569 77.8559 39.4432 78.1732C38.9295 78.4905 38.4215 78.8032 37.9261 79.1377C36.929 79.7917 35.9768 80.5113 35.0759 81.2918C34.1725 82.0678 33.3152 82.8955 32.494 83.7546C32.289 83.9695 32.0869 84.1872 31.8877 84.4075C31.6872 84.6268 31.4889 84.8473 31.2953 85.0713C31.1016 85.2952 30.908 85.5192 30.7206 85.7466L30.4419 86.0868L30.3063 86.2586L30.1799 86.4195L30.1655 86.4373C30.0123 86.6282 29.7901 86.7515 29.5466 86.7807C29.3031 86.8099 29.0578 86.7426 28.8636 86.5933C28.6694 86.444 28.5417 86.2247 28.5082 85.9826C28.4746 85.7404 28.5378 85.4948 28.6841 85.2987L28.6818 85.3015Z" fill="#0F156D"/>
<path d="M78.4491 98.1676C78.1692 98.1475 77.8888 98.1063 77.609 98.0622C77.3291 98.0181 77.0481 97.9614 76.7682 97.9007C76.4884 97.8399 76.2074 97.7758 75.9275 97.691C75.7873 97.6481 75.6471 97.6023 75.5069 97.5479C75.3634 97.4947 75.2232 97.4333 75.0868 97.364C75.0698 97.3553 75.0546 97.3433 75.0422 97.3287C75.0298 97.3141 75.0204 97.2973 75.0146 97.2791C75.0088 97.2608 75.0066 97.2417 75.0083 97.2226C75.0099 97.2036 75.0153 97.1851 75.0242 97.1681C75.0379 97.1413 75.0599 97.1194 75.0868 97.1057C75.2231 97.0363 75.3633 96.9751 75.5069 96.9224C75.6471 96.8651 75.7873 96.8216 75.9275 96.7787C76.2074 96.6939 76.4878 96.6309 76.7682 96.569C77.0487 96.5072 77.3285 96.4545 77.609 96.4075C77.8894 96.3606 78.1692 96.3222 78.4491 96.3021C78.6939 96.2906 78.9335 96.375 79.1167 96.5373C79.2999 96.6996 79.4121 96.9268 79.4294 97.1705C79.4467 97.4142 79.3676 97.6549 79.2091 97.8412C79.0506 98.0275 78.8253 98.1447 78.5812 98.1676C78.5372 98.1701 78.4931 98.1701 78.4491 98.1676Z" fill="#0F156D"/>
<path d="M29.746 111.751L29.8236 111.708L29.8943 111.671L30.0316 111.6C30.123 111.554 30.2138 111.508 30.3046 111.465C30.4856 111.376 30.6672 111.293 30.8505 111.212C31.216 111.05 31.5843 110.899 31.9556 110.759C32.1417 110.689 32.3274 110.62 32.5153 110.555L32.7963 110.457L33.079 110.365C33.1732 110.335 33.2675 110.304 33.3623 110.275L33.6496 110.191C33.8387 110.134 34.0306 110.081 34.2243 110.03C35.7568 109.612 37.3306 109.364 38.9174 109.288C39.3133 109.266 39.7116 109.267 40.1075 109.267L40.7028 109.29L40.8517 109.296L41.0005 109.307L41.297 109.331L41.5935 109.355C41.6924 109.363 41.7906 109.379 41.8895 109.39C42.086 109.416 42.2831 109.438 42.4791 109.466L43.0652 109.568C43.2606 109.599 43.4525 109.65 43.6456 109.693C43.8387 109.736 44.0312 109.781 44.2202 109.841L44.7874 110.013C44.8817 110.042 44.973 110.08 45.0661 110.113L45.3431 110.217L45.6184 110.323C45.7092 110.361 45.7988 110.404 45.8884 110.444C46.067 110.526 46.2449 110.609 46.4223 110.693C46.5947 110.787 46.7671 110.881 46.9395 110.979L47.194 111.124C47.2768 111.176 47.3578 111.231 47.4388 111.286C47.602 111.393 47.7628 111.503 47.921 111.615C47.9343 111.625 47.9436 111.639 47.9473 111.655C47.9511 111.671 47.9489 111.688 47.9414 111.703C47.9338 111.718 47.9212 111.729 47.9059 111.735C47.8906 111.742 47.8736 111.742 47.8578 111.737C46.3953 111.247 44.946 110.869 43.4669 110.701C43.1003 110.647 42.729 110.626 42.3607 110.593C42.1762 110.582 41.9906 110.578 41.8056 110.57C41.7136 110.57 41.6211 110.561 41.5286 110.562H41.251H40.9735H40.835L40.6965 110.569L40.1426 110.595C39.7736 110.628 39.4053 110.653 39.0387 110.7C37.57 110.885 36.1228 111.211 34.7173 111.674C34.5415 111.731 34.3656 111.788 34.1915 111.85L33.93 111.942C33.8427 111.972 33.7576 112.006 33.6703 112.038L33.4106 112.134L33.1525 112.235C32.9801 112.301 32.8078 112.373 32.64 112.443C32.3003 112.587 31.9624 112.733 31.6315 112.891C31.5481 112.929 31.4665 112.969 31.3844 113.01C31.3022 113.05 31.2206 113.089 31.1396 113.129C31.0585 113.17 30.9787 113.211 30.8994 113.252L30.7844 113.314L30.6798 113.371L30.6551 113.385C30.5475 113.444 30.4292 113.481 30.3071 113.495C30.185 113.508 30.0614 113.497 29.9434 113.463C29.8254 113.429 29.7152 113.372 29.6193 113.296C29.5234 113.219 29.4435 113.125 29.3843 113.017C29.3251 112.91 29.2876 112.792 29.2741 112.67C29.2605 112.549 29.2712 112.425 29.3054 112.308C29.3396 112.19 29.3968 112.081 29.4736 111.985C29.5504 111.889 29.6453 111.81 29.7529 111.751H29.746Z" fill="#0F156D"/>
<path d="M27.5698 146.564C26.4597 146.56 25.3543 146.421 24.2777 146.151C20.6643 145.263 17.317 143.855 14.5983 142.08C11.9722 140.364 9.98334 138.349 8.84669 136.251C7.71003 134.153 7.46753 132.053 8.13183 130.165C9.03287 127.613 11.3016 126.264 14.692 126.264C16.1177 126.264 17.4457 126.506 18.3002 126.705C18.8798 124.553 19.7608 122.493 20.9171 120.586C22.0099 118.789 23.315 117.13 24.8046 115.643C25.992 114.448 27.2904 113.367 28.6824 112.416C26.1826 109.943 24.5662 107.09 23.8714 103.914C23.2542 101.097 23.3651 98.0376 24.2013 94.8233C25.3327 90.4705 27.4641 87.0633 28.3175 85.813C26.8102 83.1543 25.989 80.5192 25.8741 77.9733C25.7721 75.7945 26.2055 73.6237 27.1366 71.6497C28.722 68.2643 31.2211 66.4378 31.3269 66.3605C31.451 66.2708 31.5953 66.213 31.7472 66.1921C31.899 66.1712 32.0537 66.1879 32.1975 66.2408C57.1027 75.3554 73.2612 74.9229 82.4314 72.9544C87.5963 71.8462 91.1293 70.148 93.1842 68.9132C95.4069 67.581 96.4246 66.4962 96.4344 66.4853C96.5399 66.3704 96.6726 66.2836 96.8204 66.233C96.9682 66.1824 97.1264 66.1696 97.2805 66.1957C97.4346 66.2218 97.5796 66.286 97.7024 66.3824C97.8251 66.4788 97.9216 66.6044 97.9831 66.7476C101.748 75.4768 101.929 82.6698 98.5198 88.132C97.1803 90.2787 95.2817 92.1412 92.8768 93.675C90.9804 94.8841 88.7606 95.8886 86.2867 96.6613C84.0023 97.3723 81.6527 97.856 79.2726 98.1051C76.0942 119.345 56.7464 127.689 50.8379 129.756C49.738 130.137 48.7335 130.749 47.8928 131.552C46.3033 133.069 44.7753 134.764 43.2956 136.403C40.5833 139.412 38.0209 142.254 35.0288 144.199C32.6009 145.778 30.1368 146.564 27.5698 146.564ZM14.6977 128.132C12.7376 128.132 10.6407 128.674 9.89542 130.784C9.40869 132.163 9.61442 133.746 10.4913 135.366C12.6043 139.264 18.0583 142.704 24.7248 144.342C32.0119 146.133 36.8176 140.803 41.9067 135.159C43.4071 133.495 44.9587 131.774 46.5987 130.208C47.6323 129.221 48.8671 128.468 50.219 127.999C55.943 125.998 74.83 117.855 77.5222 97.1206C77.5502 96.9041 77.6535 96.7043 77.8142 96.556C77.9749 96.4076 78.1827 96.3203 78.4014 96.309C78.4347 96.309 81.8016 96.1177 85.7741 94.8703C89.3726 93.7403 94.2306 91.4825 96.9361 87.1429C99.8438 82.4785 99.7857 76.2786 96.7683 68.7007C94.942 70.1898 90.6339 73.0701 83.0273 74.7368C77.0067 76.0541 70.1322 76.3439 62.5952 75.5925C53.3583 74.6715 43.0853 72.1766 32.0538 68.1766C30.6811 69.383 29.5734 70.8591 28.8002 72.5123C26.9871 76.4499 27.4693 80.7821 30.2333 85.3875C30.3284 85.5467 30.3736 85.7306 30.3634 85.9157C30.3532 86.1007 30.2879 86.2785 30.1759 86.4264C30.1477 86.4636 27.3026 90.2861 25.9988 95.3474C24.2915 101.978 25.9154 107.536 30.8258 111.867C30.9383 111.966 31.0252 112.091 31.0792 112.23C31.1333 112.37 31.1528 112.52 31.1363 112.669C31.1197 112.817 31.0675 112.96 30.984 113.084C30.9006 113.208 30.7884 113.311 30.6568 113.382C30.6362 113.394 28.4824 114.594 26.0867 117.007C23.8961 119.213 21.0436 122.921 19.8926 128.057C19.8641 128.184 19.8094 128.303 19.7321 128.408C19.6547 128.512 19.5563 128.599 19.4433 128.663C19.3302 128.728 19.2048 128.768 19.0753 128.781C18.9458 128.795 18.8149 128.781 18.691 128.741C18.6559 128.726 16.7527 128.129 14.6989 128.129L14.6977 128.132Z" fill="#0F156D"/>
<path d="M76.516 125.201C74.9708 126.52 73.1103 127.419 71.1143 127.811C71.07 127.821 71.0264 127.829 70.9827 127.835C63.2066 129.284 60.4172 124.081 60.4172 124.081C62.0969 123.378 64.3714 121.307 64.3714 121.307C62.9836 120.613 61.9538 119.618 61.2746 118.465C59.0415 114.694 60.4758 109.216 65.1115 106.979C65.9648 106.561 66.8607 106.237 67.7836 106.01C73.2508 104.689 78.9197 107.889 80.4736 113.284C81.7229 117.632 79.9495 122.313 76.516 125.201Z" fill="#F9A429"/>
<path d="M76.5177 125.201C74.9716 126.519 73.1115 127.418 71.116 127.812C63.2434 129.344 60.4196 124.082 60.4196 124.082C62.1004 123.376 64.3737 121.306 64.3737 121.306C62.9859 120.613 61.9567 119.618 61.2769 118.465C61.2769 118.465 64.0025 120.371 69.3387 116.106C74.1352 112.271 82.2584 116.933 76.5177 125.201Z" fill="white"/>
<g opacity="0.3">
<path d="M70.9821 127.835C63.206 129.285 60.4167 124.081 60.4167 124.081C62.0964 123.378 64.3708 121.307 64.3708 121.307C68.9772 121.307 71.6901 116.733 74.1398 116.987C74.1427 116.987 79.1502 123.654 70.9821 127.835Z" fill="#03036B"/>
</g>
<g opacity="0.6">
<path d="M61.7746 119.199C60.6419 115.728 62.1808 111.444 66.0902 109.556C66.9098 109.155 67.7704 108.844 68.6571 108.626C73.91 107.357 79.3565 110.431 80.85 115.614C80.8534 115.626 80.8563 115.64 80.8603 115.653C80.8237 114.85 80.6936 114.055 80.4724 113.283C78.9209 107.889 73.2497 104.692 67.7825 106.009C66.8595 106.235 65.9637 106.56 65.1104 106.977C60.4747 109.215 59.0404 114.693 61.2735 118.464C61.4251 118.719 61.5924 118.964 61.7746 119.199Z" fill="white"/>
</g>
<path d="M64.8736 120.519C64.8518 120.505 64.8598 120.51 64.857 120.508C64.8541 120.506 64.857 120.508 64.8604 120.508L64.8765 120.515L64.9225 120.534C64.9601 120.549 64.9984 120.562 65.0374 120.573C65.1216 120.599 65.2071 120.62 65.2937 120.636C65.4796 120.668 65.6685 120.679 65.8569 120.67C66.2713 120.644 66.6781 120.547 67.0596 120.384C67.48 120.203 67.8794 119.977 68.2508 119.711C68.6447 119.427 69.0176 119.116 69.3668 118.78C69.7639 118.394 70.1811 118.03 70.6167 117.688C70.7253 117.601 70.8419 117.516 70.9551 117.435C71.0683 117.353 71.1884 117.271 71.3114 117.194C71.5585 117.033 71.8164 116.89 72.0832 116.764L72.2952 116.676C72.3688 116.649 72.4423 116.622 72.5164 116.597C72.5906 116.571 72.6699 116.552 72.7503 116.535C72.8309 116.516 72.9124 116.501 72.9945 116.491L73.1204 116.477L73.2503 116.472H73.3152L73.3819 116.476C73.4261 116.476 73.4704 116.481 73.5146 116.486C73.6959 116.508 73.8727 116.557 74.0387 116.633C74.1993 116.71 74.3455 116.815 74.4708 116.941C74.5838 117.06 74.6792 117.193 74.7541 117.338C74.884 117.602 74.9571 117.891 74.9685 118.185C74.9695 118.202 74.9651 118.219 74.9558 118.234C74.9465 118.248 74.9328 118.26 74.9167 118.266C74.9005 118.272 74.8828 118.274 74.8659 118.269C74.8491 118.265 74.8341 118.255 74.8231 118.242C74.666 118.043 74.4878 117.861 74.2915 117.7C74.2066 117.636 74.1144 117.582 74.0168 117.539C73.9326 117.505 73.844 117.483 73.7537 117.475C73.6686 117.471 73.5835 117.477 73.4997 117.491L73.4342 117.507L73.4014 117.514L73.3681 117.524L73.3014 117.544L73.233 117.571C73.1888 117.586 73.1405 117.61 73.0951 117.628C73.0497 117.646 73.0014 117.675 72.9549 117.697L72.8124 117.776L72.6699 117.865C72.4729 117.992 72.2847 118.132 72.1067 118.284C71.9228 118.438 71.7418 118.605 71.5654 118.778C71.212 119.128 70.8758 119.498 70.5414 119.888C70.1684 120.321 69.7606 120.724 69.322 121.091C68.8611 121.476 68.3547 121.803 67.8141 122.065C67.2332 122.344 66.6043 122.511 65.9609 122.557C65.6213 122.577 65.2804 122.556 64.946 122.494C64.7725 122.462 64.6017 122.416 64.4352 122.358C64.3501 122.329 64.2628 122.295 64.1772 122.256C64.1329 122.237 64.0904 122.217 64.0433 122.192C64.0203 122.181 63.9979 122.169 63.9714 122.154L63.9318 122.132C63.914 122.121 63.9082 122.118 63.8743 122.095C63.7682 122.03 63.676 121.945 63.6032 121.845C63.5304 121.744 63.4785 121.63 63.4504 121.509C63.4223 121.389 63.4187 121.264 63.4398 121.141C63.4608 121.019 63.5061 120.902 63.5729 120.798C63.6398 120.693 63.7269 120.603 63.8292 120.533C63.9314 120.462 64.0468 120.412 64.1685 120.387C64.2902 120.361 64.4158 120.36 64.538 120.383C64.6601 120.407 64.7764 120.454 64.88 120.523L64.8736 120.519Z" fill="#0F156D"/>
<path d="M68.3709 129.022C65.5695 129.022 63.5732 128.149 62.2929 127.297C60.4293 126.057 59.6254 124.582 59.592 124.52C59.5305 124.406 59.4936 124.28 59.4836 124.151C59.4737 124.022 59.4909 123.892 59.5341 123.77C59.5774 123.648 59.6458 123.536 59.7349 123.441C59.824 123.347 59.9319 123.272 60.0518 123.221C60.9212 122.857 62.0056 122.054 62.7727 121.435C60.5597 119.862 59.284 117.374 59.3013 114.552C59.3147 112.85 59.7948 111.185 60.6896 109.736C61.6529 108.178 63.0447 106.929 64.6995 106.137C65.6126 105.693 66.5706 105.348 67.5572 105.106C70.4416 104.408 73.4848 104.843 76.0568 106.319C78.6657 107.808 80.5511 110.188 81.3666 113.024C82.2728 116.174 81.7407 119.692 79.9075 122.676C77.9664 125.835 74.8254 128.041 71.2878 128.729C70.3272 128.92 69.3504 129.018 68.3709 129.022ZM61.8084 124.409C62.2749 124.945 62.8144 125.412 63.4111 125.798C65.4299 127.106 67.9606 127.476 70.9338 126.898C73.9565 126.31 76.6464 124.416 78.3146 121.701C79.8748 119.162 80.3328 116.187 79.5708 113.537C78.175 108.682 72.9848 105.713 68.0014 106.918C67.1442 107.129 66.3118 107.429 65.5184 107.815C62.8572 109.101 61.193 111.686 61.1752 114.563C61.1591 117.127 62.5101 119.335 64.7891 120.471C64.925 120.539 65.0423 120.638 65.131 120.761C65.2196 120.884 65.2768 121.027 65.2978 121.177C65.3187 121.326 65.3027 121.479 65.2511 121.622C65.1995 121.764 65.114 121.892 65.0018 121.994C64.9225 122.066 63.3623 123.483 61.8084 124.409Z" fill="#0F156D"/>
<path d="M29.0365 126.661C32.8392 122.304 31.3674 114.823 25.7492 109.952C20.1311 105.081 12.494 104.665 8.6913 109.021C4.88865 113.378 6.36042 120.859 11.9786 125.73C17.5968 130.601 25.2339 131.018 29.0365 126.661Z" fill="white"/>
<g opacity="0.3">
<path d="M25.7442 109.962C25.2562 109.539 24.7447 109.143 24.2122 108.778C28.1422 113.521 28.826 119.673 25.5178 123.462C22.0509 127.435 15.4005 127.435 9.99196 123.712C10.5951 124.44 11.2574 125.117 11.9722 125.736C17.5899 130.608 25.227 131.025 29.03 126.669C32.833 122.313 31.3619 114.834 25.7442 109.962Z" fill="#03036B"/>
</g>
<path d="M21.8676 130.617C21.6243 130.617 21.3786 130.61 21.1303 130.596C17.7014 130.409 14.2311 128.935 11.3579 126.442C8.48466 123.949 6.53833 120.729 5.87806 117.37C5.20055 113.926 5.94759 110.746 7.98012 108.417C10.0126 106.089 13.0698 104.912 16.586 105.104C20.0144 105.291 23.4852 106.765 26.3585 109.258C29.2317 111.751 31.1775 114.972 31.8383 118.33C32.5153 121.775 31.7688 124.954 29.7357 127.283C27.8462 129.447 25.073 130.617 21.8676 130.617ZM15.8603 106.946C13.2985 106.946 10.97 107.833 9.39145 109.641C5.93265 113.603 7.36582 120.509 12.5853 125.035C15.146 127.256 18.2169 128.57 21.2321 128.734C24.1599 128.895 26.678 127.944 28.3238 126.059C29.9696 124.173 30.5649 121.556 30.0012 118.689C29.4208 115.735 27.6905 112.886 25.1293 110.665C22.2929 108.205 18.9116 106.946 15.8603 106.946Z" fill="#0F156D"/>
<path d="M100.686 49.6365C100.686 49.6365 102.918 57.4784 101.17 64.7511C100.873 65.9447 100.415 67.0924 99.807 68.1623C95.3851 76.0907 81.3206 85.0008 49.5943 76.8044C49.5943 76.8044 22.7411 70.0758 24.2179 52.4629C24.534 48.6439 26.1844 44.3152 29.7254 39.4348C29.7254 39.4348 30.9143 29.8798 36.5332 17.7183C42.1521 5.55672 47.59 0.28637 51.0183 1.02406C54.4467 1.76175 58.7404 7.41297 61.6958 17.1667C61.6958 17.1667 70.2799 16.3116 78.3537 21.2601C78.3537 21.2601 92.9371 5.36199 100.416 9.78182C107.894 14.2017 102.084 42.5064 100.686 49.6365Z" fill="#F9A429"/>
<path d="M99.807 68.1623C95.3851 76.0907 81.3206 85.0009 49.5944 76.8044C49.5944 76.8044 22.7411 70.0758 24.2179 52.463C25.3672 49.4417 26.9125 46.4085 28.71 45.4079C32.028 43.5614 35.6546 43.9034 39.942 48.1193C42.0607 50.2023 45.4805 50.5821 47.4124 49.5065C50.7753 47.6342 54.3484 45.1582 59.1053 46.4526C62.9773 47.5076 65.8247 49.9183 67.9135 52.6245C70.5632 56.0569 75.4196 56.9074 79.1347 54.6657C82.4067 52.6892 86.5183 51.2711 90.7466 52.5116C98.1417 54.676 99.7053 62.1422 99.807 68.1623Z" fill="white"/>
<g opacity="0.3">
<path d="M76.6068 20.283C71.8493 17.8466 67.1423 17.2446 64.3266 17.1329C67.3722 17.4136 71.7671 18.3048 76.0132 20.9079C76.0132 20.9079 76.2246 20.6759 76.6068 20.283Z" fill="#03036B"/>
</g>
<g opacity="0.3">
<path d="M100.416 9.78182C98.7525 8.79899 96.7378 8.82248 94.6116 9.45077C95.3532 9.52774 96.0697 9.76188 96.7131 10.1375C103.732 14.2841 98.2785 40.8398 96.9671 47.5288C96.9671 47.5288 99.0611 54.8868 97.4205 61.7098C97.1427 62.8297 96.7127 63.9064 96.1425 64.9103C91.9935 72.349 78.7979 80.7099 49.0318 73.0186C49.0318 73.0186 23.8381 66.7053 25.2236 50.1789C25.3822 48.2653 25.9022 46.2138 26.8544 44.0213C25.2552 47.0752 24.4311 49.8856 24.2179 52.4629C22.7411 70.0758 49.5921 76.8044 49.5921 76.8044C81.3183 85.0026 95.3828 76.0907 99.8047 68.1623C100.413 67.0924 100.871 65.9447 101.167 64.7511C102.916 57.4773 100.684 49.6365 100.684 49.6365C102.084 42.5064 107.897 14.2039 100.416 9.78182Z" fill="#03036B"/>
</g>
<g opacity="0.3">
<path d="M65.2908 54.2848C63.8312 55.7224 62.9032 56.4538 60.5833 55.8622C58.4663 55.3221 59.3904 52.2224 59.3904 52.2224L57.0343 51.7545L54.6783 51.2865C54.6783 51.2865 54.3392 54.5025 52.1762 54.192C49.8058 53.8518 49.23 52.8215 48.4359 50.936C48.4359 50.936 46.7263 54.6737 50.1765 56.3307C53.4439 57.9 55.7235 57.7407 56.8533 52.6497C55.9379 57.7831 57.9819 58.802 61.6039 58.6016C65.4311 58.3902 65.2908 54.2848 65.2908 54.2848Z" fill="#03036B"/>
</g>
<path d="M51.6648 56.4366C51.6648 56.4366 51.6895 65.7087 54.1312 66.3691C56.5729 67.0294 61.1493 58.4108 61.1493 58.4108C61.1493 58.4108 56.9607 58.6325 56.624 53.5735C56.624 53.5735 55.7069 57.6107 51.6648 56.4366Z" fill="#03036B"/>
<path d="M52.4262 63.5741C52.4262 63.5741 53.6755 57.9773 59.207 61.6692C59.207 61.6692 55.8166 66.8181 53.972 66.3083C52.1274 65.7986 52.4262 63.5741 52.4262 63.5741Z" fill="#EF6583"/>
<path d="M54.4139 67.2396C54.2443 67.2397 54.0754 67.2174 53.9117 67.1732C52.502 66.7917 51.6251 64.9126 51.1534 61.2602C50.9548 59.6597 50.8466 58.0493 50.8293 56.4366C50.8292 56.307 50.8595 56.1791 50.9176 56.0631C50.9758 55.9472 51.0602 55.8463 51.1643 55.7685C51.2683 55.6907 51.3891 55.6381 51.5171 55.6149C51.645 55.5917 51.7767 55.5985 51.9015 55.6348C52.8675 55.9154 53.6864 55.8639 54.334 55.4904C55.4534 54.8404 55.8063 53.3994 55.8097 53.3851C55.8547 53.1896 55.9688 53.0168 56.1311 52.8983C56.2934 52.7797 56.4931 52.7234 56.6937 52.7395C56.8942 52.7556 57.0823 52.8432 57.2234 52.9861C57.3646 53.129 57.4494 53.3178 57.4624 53.5179C57.5819 55.3083 58.2365 56.5305 59.4087 57.152C59.9323 57.4274 60.5148 57.5732 61.1068 57.5769C61.2549 57.5691 61.4024 57.6006 61.5343 57.6681C61.6662 57.7357 61.7778 57.8369 61.8577 57.9614C61.9375 58.0859 61.9828 58.2294 61.9889 58.377C61.995 58.5247 61.9617 58.6714 61.8924 58.802C61.0891 60.2866 60.2057 61.7266 59.2461 63.1159C57.2889 65.9103 55.7362 67.2396 54.4139 67.2396ZM52.5279 57.4567C52.5612 58.3438 52.6377 59.6949 52.8152 61.0598C53.2508 64.4023 53.9852 65.4618 54.3507 65.5604C54.68 65.6497 55.839 65.0558 57.8606 62.1686C58.6462 61.0466 59.3461 59.8885 59.8144 59.0815C59.3995 58.9773 58.9988 58.8234 58.6209 58.6233C57.8083 58.1932 56.8688 57.4085 56.2964 55.9887C55.9839 56.3598 55.6112 56.6759 55.1937 56.924C54.4087 57.3845 53.5157 57.5603 52.5279 57.4589V57.4567Z" fill="#03036B"/>
<path d="M62.5003 51.1107C62.6532 49.8908 61.389 49.0099 60.1822 48.4549C58.8627 47.849 57.4184 47.5619 55.9666 47.617C54.6392 47.6685 53.133 47.9984 52.806 49.184C52.3785 50.7241 54.5558 52.2865 55.9183 53.0941C56.5813 53.4873 57.3596 53.6419 58.1232 53.5322C59.6903 53.3072 62.3021 52.6966 62.5003 51.1107Z" fill="#03036B"/>
<path d="M59.5909 49.8043C59.5403 50.0546 58.3238 50.0236 56.8734 49.7356C55.423 49.4475 54.2875 49.0105 54.3375 48.7619C54.3875 48.5133 55.6017 48.5425 57.0544 48.8312C58.5071 49.1199 59.6386 49.554 59.5909 49.8043Z" fill="white"/>
<path d="M61.2522 59.2751C60.7647 59.2721 60.2787 59.2215 59.8012 59.1239C58.2755 58.8209 57.1578 58.093 56.4872 56.9572C55.2316 54.8415 56.0712 52.1187 56.1074 52.0036C56.1815 51.7918 56.3354 51.617 56.5364 51.5162C56.7375 51.4153 56.97 51.3964 57.1849 51.4633C57.3997 51.5303 57.58 51.6778 57.6877 51.8749C57.7953 52.0719 57.8219 52.3029 57.7618 52.5191C57.7509 52.554 57.1228 54.6382 57.9836 56.0815C58.4014 56.7814 59.107 57.2213 60.1403 57.4263C61.362 57.6691 62.3406 57.534 63.0491 57.0254C64.0835 56.2808 64.272 54.9509 64.2737 54.9377C64.3019 54.7099 64.4197 54.5025 64.6013 54.3613C64.7829 54.2201 65.0134 54.1565 65.242 54.1846C65.4706 54.2127 65.6786 54.3302 65.8203 54.5111C65.9621 54.6921 66.0258 54.9218 65.9976 55.1497C65.9873 55.2344 65.7212 57.2362 64.0668 58.4269C63.2801 58.9922 62.3383 59.2751 61.2522 59.2751Z" fill="#03036B"/>
<path d="M52.9968 57.4498C52.6026 57.448 52.2096 57.4073 51.8234 57.3284C50.1673 56.9996 48.9737 56.2602 48.2773 55.1319C47.2429 53.4578 47.7503 51.5729 47.7722 51.4933C47.7995 51.3853 47.8483 51.2839 47.9155 51.1949C47.9828 51.106 48.0672 51.0314 48.1638 50.9754C48.2604 50.9195 48.3673 50.8833 48.4781 50.8691C48.589 50.8549 48.7015 50.863 48.8092 50.8927C48.9169 50.9225 49.0175 50.9734 49.1051 51.0425C49.1928 51.1116 49.2657 51.1975 49.3196 51.295C49.3734 51.3926 49.4072 51.4999 49.4189 51.6107C49.4305 51.7215 49.4199 51.8334 49.3875 51.94C49.3875 51.948 49.0576 53.223 49.7122 54.2682C50.1564 54.9784 50.9764 55.4566 52.151 55.6903C53.1503 55.8885 53.9439 55.7568 54.5771 55.286C55.8856 54.3123 56.0982 52.2092 56.0999 52.188C56.1228 51.9697 56.231 51.7691 56.401 51.6295C56.5711 51.49 56.7894 51.4228 57.0088 51.4425C57.2282 51.4621 57.431 51.567 57.5734 51.7345C57.7158 51.902 57.7864 52.1186 57.7699 52.3375C57.7595 52.4521 57.4963 55.1943 55.5862 56.6193C54.8472 57.172 53.9789 57.4498 52.9968 57.4498Z" fill="#03036B"/>
<path d="M69.5559 49.8816C69.509 49.7263 69.4737 49.5678 69.4501 49.4074C69.4392 49.3283 69.4295 49.2493 69.4214 49.1697C69.4134 49.0901 69.4111 49.0105 69.4065 48.9303C69.3942 48.6057 69.4159 48.2807 69.4714 47.9606C69.5865 47.2714 69.862 46.6186 70.2759 46.0546C70.505 45.7511 70.7745 45.4802 71.077 45.2493C71.1551 45.192 71.2315 45.1302 71.3149 45.0775L71.5648 44.924C71.7364 44.8306 71.9138 44.7482 72.0958 44.6771C72.2761 44.6064 72.4608 44.5473 72.6486 44.5001C72.7411 44.4778 72.8342 44.4606 72.9273 44.4429L73.0681 44.4171C73.1147 44.4102 73.1606 44.4062 73.2072 44.4005C73.2997 44.3902 73.3922 44.3793 73.4853 44.3707C73.5784 44.3621 73.668 44.3644 73.76 44.3621C73.9394 44.3574 74.119 44.3626 74.2979 44.3776L74.4306 44.3862C74.4754 44.3896 74.5208 44.397 74.5662 44.4033L74.8375 44.4429C74.9295 44.4574 75.0208 44.4765 75.111 44.5001C75.2024 44.523 75.2932 44.5425 75.3839 44.5689C75.4747 44.5952 75.5673 44.6261 75.6581 44.6594C75.7034 44.6754 75.7483 44.6897 75.7937 44.7075L75.9287 44.7647C76.0184 44.8043 76.108 44.8432 76.1953 44.8879C76.2827 44.9326 76.3677 44.9847 76.4557 45.0339C76.7977 45.2407 77.1075 45.4964 77.3751 45.7928C77.6323 46.0823 77.8479 46.4059 78.0158 46.7544C78.3125 47.3926 78.4574 48.0903 78.4393 48.7934C78.4333 49.1185 78.3948 49.4421 78.3244 49.7596C78.2912 49.9161 78.2498 50.0708 78.2003 50.223C78.1739 50.2986 78.1486 50.3742 78.1181 50.4521L78.0716 50.5666L78.0181 50.6811C77.9918 50.7392 77.9491 50.7885 77.8954 50.8231C77.8416 50.8577 77.779 50.876 77.715 50.876C77.651 50.876 77.5884 50.8577 77.5346 50.8231C77.4809 50.7885 77.4383 50.7392 77.4119 50.6811L77.3762 50.6021C77.3642 50.5758 77.3544 50.5391 77.3435 50.5065L77.3113 50.4051L77.2464 50.2046C77.2033 50.0712 77.1579 49.9406 77.1125 49.8123C77.0194 49.5563 76.9234 49.3106 76.8177 49.0798C76.7184 48.8584 76.6048 48.6438 76.4775 48.4372C76.3659 48.2518 76.2368 48.0774 76.0919 47.9165C75.9651 47.7772 75.8243 47.6511 75.6718 47.5402C75.6339 47.5162 75.5971 47.4921 75.5627 47.4664C75.5282 47.4406 75.4857 47.424 75.4477 47.4022C75.4107 47.3807 75.3723 47.3615 75.3328 47.3449C75.2944 47.3248 75.2549 47.3068 75.2144 47.2911C75.1731 47.2756 75.1328 47.259 75.0926 47.2418C75.0524 47.2247 75.0058 47.2166 74.9639 47.2012L74.9001 47.1788C74.8783 47.172 74.8541 47.1685 74.8317 47.1628C74.7857 47.1525 74.7403 47.1405 74.6949 47.1273C74.6495 47.1141 74.5984 47.1113 74.5501 47.1015C74.5019 47.0918 74.4559 47.0798 74.403 47.0763L74.249 47.0586C74.2232 47.0586 74.1979 47.0511 74.1714 47.0488L74.0904 47.0443C73.983 47.0385 73.8726 47.0271 73.7715 47.0294C73.7203 47.0294 73.6675 47.0294 73.6169 47.0294C73.5663 47.0294 73.5181 47.0345 73.4681 47.0362C73.4434 47.0362 73.4181 47.0362 73.3934 47.0362L73.3221 47.0448C73.2744 47.0494 73.2256 47.0517 73.1784 47.0574C73.0882 47.0763 72.9917 47.082 72.9049 47.1067C72.8181 47.1313 72.7279 47.1519 72.6389 47.1754C72.5963 47.1909 72.5532 47.2058 72.509 47.2207C72.4869 47.2275 72.4653 47.2361 72.4446 47.2464L72.3803 47.2728C72.199 47.3513 72.0258 47.4472 71.8631 47.5591C71.5183 47.7957 71.1821 48.1319 70.8597 48.5368C70.6983 48.7396 70.542 48.9583 70.3851 49.1897C70.2282 49.4211 70.0782 49.6697 69.9254 49.9177L69.9156 49.9337C69.8951 49.9665 69.8655 49.9927 69.8305 50.0092C69.7955 50.0258 69.7564 50.032 69.718 50.0271C69.6795 50.0222 69.6433 50.0065 69.6135 49.9817C69.5838 49.9569 69.5618 49.9242 69.5501 49.8873L69.5559 49.8816Z" fill="#0F156D"/>
<path d="M54.5535 32.809C55.2026 31.6708 54.5047 30.0547 52.9949 29.1995C51.485 28.3443 49.7349 28.5738 49.0859 29.712C48.4368 30.8503 49.1347 32.4663 50.6445 33.3215C52.1544 34.1767 53.9045 33.9473 54.5535 32.809Z" fill="white"/>
<path d="M41.3924 26.074C44.5007 24.3632 48.0698 22.7429 53.4922 20.4038C54.6944 19.8855 54.6989 18.9222 54.6742 18.2538C54.5553 15.1707 52.2958 10.035 49.9621 8.16154C46.4987 5.37917 41.4062 18.767 39.6087 24.4273C39.268 25.5047 40.3977 26.6209 41.3924 26.074Z" fill="#FEC7D7"/>
<path d="M95.0984 38.5952C93.0612 35.2412 90.5322 31.7223 86.6217 26.4898C85.7546 25.33 86.2827 24.4022 86.6792 23.7744C88.502 20.8792 93.5175 17.1919 96.793 16.6765C101.66 15.9107 99.1318 31.5677 97.7222 37.9927C97.4538 39.2178 95.75 39.6679 95.0984 38.5952Z" fill="#FEC7D7"/>
<path d="M74.6134 38.3804C76.331 38.1248 77.5662 36.868 77.3722 35.5731C77.1783 34.2782 75.6287 33.4356 73.9111 33.6912C72.1935 33.9467 70.9583 35.2036 71.1522 36.4985C71.3461 37.7934 72.8958 38.6359 74.6134 38.3804Z" fill="white"/>
<g opacity="0.6">
<path d="M100.416 9.78182C92.9371 5.36198 78.3537 21.2601 78.3537 21.2601C72.113 17.4353 63.364 16.8597 60.712 16.8947C60.8235 17.2234 60.9953 17.7887 61.1597 18.3351C61.258 18.6633 61.4574 18.9525 61.7296 19.1615C62.0019 19.3706 62.3332 19.489 62.6768 19.5001C65.3132 19.5848 71.9608 20.1518 78.0658 23.5453C78.3589 23.709 78.698 23.7717 79.0305 23.7236C79.363 23.6756 79.6703 23.5195 79.9047 23.2796C83.2049 19.9004 95.6276 7.89521 102.106 11.4989C101.639 10.7601 101.08 10.1747 100.416 9.78182Z" fill="white"/>
</g>
<g opacity="0.6">
<path d="M51.0183 1.02406C47.59 0.286367 42.1521 5.55557 36.5332 17.716C30.9143 29.8764 29.7253 39.4325 29.7253 39.4325C26.1844 44.3129 24.534 48.6416 24.2179 52.4629C23.6956 58.6943 26.7199 63.5621 30.8453 67.2534C27.6888 63.8169 25.589 59.5214 26.0315 54.2465C26.3481 50.4274 28.1882 44.8839 31.7286 40.0036C31.7286 40.0036 32.0377 37.4331 33.2715 33.07C33.3361 33.1039 33.4033 33.1325 33.4726 33.1553C34.7748 33.5694 36.4573 31.9463 37.2314 29.5299C38.0054 27.1135 37.5762 24.8179 36.2752 24.4039C36.2637 24.4004 36.2522 24.3998 36.2407 24.3964C36.859 22.85 37.5555 21.2143 38.3468 19.5012C43.9657 7.33736 49.4036 2.0716 52.8319 2.80642C53.61 2.97309 54.4323 3.39577 55.2742 4.06015C53.8105 2.33907 52.3503 1.30871 51.0183 1.02406Z" fill="white"/>
</g>
<path d="M72.3481 81.018C66.1017 81.018 58.5209 80.1016 49.357 77.7322C49.1024 77.6681 44.1915 76.4149 38.641 73.5896C35.3471 71.9137 32.5187 70.0306 30.2345 67.9933C27.3371 65.4086 25.3075 62.5638 24.2007 59.5368C21.944 53.3604 23.4939 46.4738 28.8076 39.0671C28.9099 38.3535 29.261 36.1519 30.0931 32.8982C31.0154 29.2928 32.7302 23.6627 35.6632 17.3151C38.3468 11.504 41.1907 6.86199 43.8858 3.89463C46.5573 0.950748 49.0927 -0.364835 51.2189 0.0910657C53.2238 0.521193 55.3351 2.27893 57.3245 5.17527C59.2542 7.98456 60.9988 11.775 62.3894 16.1719C63.9696 16.1257 65.551 16.2065 67.1182 16.4136C69.934 16.775 74.0812 17.7017 78.1813 20.0499C79.3674 18.8174 82.3762 15.8116 86.004 13.1026C88.7399 11.0585 91.258 9.6163 93.4882 8.81561C96.4459 7.75318 98.9416 7.80358 100.906 8.96395C101.946 9.57907 102.803 10.5888 103.454 11.9657C104.016 13.1575 104.442 14.6638 104.718 16.4422C105.182 19.4451 105.242 23.3466 104.896 28.039C104.281 36.3495 102.579 45.0047 101.76 49.1645L101.673 49.6073C102.066 51.1712 102.355 52.7592 102.538 54.361C102.857 57.0557 103.04 61.0855 102.104 64.9796C101.075 69.2671 97.7624 73.3559 93.0175 76.1978C88.8295 78.699 82.2716 81.018 72.3481 81.018ZM50.3626 1.91238C47.567 1.91238 42.6377 6.79212 37.4055 18.1152C31.9216 29.9835 30.689 39.456 30.6775 39.55C30.658 39.7095 30.5987 39.8617 30.5051 39.9927C25.4735 46.9286 23.9599 53.2837 26.0056 58.8822C28.2795 65.1056 34.607 69.3885 39.5145 71.8834C44.9018 74.6245 49.7805 75.8634 49.8294 75.8754H49.8363C72.9193 81.8393 85.5219 78.4453 92.0303 74.5472C98.1457 70.8817 99.8082 66.3175 100.239 64.5243C101.905 57.5895 99.7875 49.9698 99.7662 49.8936C99.7249 49.7494 99.7184 49.5975 99.7472 49.4503C99.7856 49.2464 99.829 49.0257 99.8777 48.7882C100.689 44.6645 102.377 36.0866 102.981 27.8907C103.317 23.342 103.263 19.586 102.82 16.7257C102.322 13.5018 101.349 11.441 99.9282 10.602C96.524 8.59052 91.1149 11.6719 87.1757 14.6112C82.7159 17.9388 79.0979 21.8626 79.0617 21.9021C78.9111 22.0663 78.7078 22.173 78.4868 22.2038C78.2658 22.2347 78.0409 22.1877 77.8509 22.0711C73.8456 19.6175 69.7024 18.6719 66.9326 18.3111C63.9088 17.917 61.8113 18.1135 61.7906 18.1152C61.5695 18.1368 61.3476 18.0813 61.1629 17.9581C60.9782 17.835 60.842 17.6519 60.7775 17.4399C57.7877 7.58135 53.6203 2.56015 50.8155 1.95877C50.6666 1.92734 50.5148 1.91179 50.3626 1.91238Z" fill="#0F156D"/>
<path d="M49.1404 35.7521C46.5102 34.7384 43.3198 36.6439 42.0147 40.0082C40.7097 43.3724 41.7849 46.9217 44.4122 47.936C47.0395 48.9503 50.2328 47.0443 51.5378 43.68C52.8428 40.3157 51.77 36.7659 49.1404 35.7521Z" fill="#000072"/>
<path d="M48.5606 37.1519C47.6164 37.2246 46.9297 38.3008 47.0268 39.5574C47.1239 40.814 47.9681 41.7705 48.9122 41.6977C49.8564 41.625 50.5431 40.5523 50.446 39.2922C50.3489 38.0322 49.5047 37.0797 48.5606 37.1519Z" fill="white"/>
<path d="M43.6686 43.7894C43.1905 43.94 42.9664 44.5775 43.1681 45.2126C43.3698 45.8478 43.9203 46.2436 44.3984 46.0906C44.8765 45.9377 45.1012 45.3026 44.8995 44.6668C44.6978 44.0311 44.1467 43.6387 43.6686 43.7894Z" fill="#B199C5"/>
</svg>
