<svg width="36" height="36" viewBox="0 0 36 36" fill="none" xmlns="http://www.w3.org/2000/svg">
<g filter="url(#filter0_b_20_5422)">
<path fill-rule="evenodd" clip-rule="evenodd" d="M22.1712 30.3007C25.6359 25.8826 30.0001 19.4639 30.0001 15.163C30.0001 8.03137 24.6275 2.25 18.0001 2.25C11.3726 2.25 6.00006 8.03137 6.00006 15.163C6.00006 19.4639 10.3642 25.8826 13.8289 30.3007C15.6364 32.6057 16.5402 33.7582 18.0001 33.7582C19.4599 33.7582 20.3637 32.6057 22.1712 30.3007Z" fill="#28D03B" fill-opacity="0.35"/>
<path d="M22.368 30.455C24.104 28.2412 26.0697 25.5209 27.6025 22.811C29.1298 20.1109 30.2501 17.3825 30.2501 15.163C30.2501 7.91088 24.7825 2 18.0001 2C11.2176 2 5.75006 7.91088 5.75006 15.163C5.75006 17.3825 6.87035 20.1109 8.39763 22.811C9.93043 25.5209 11.8961 28.2412 13.6321 30.455L13.6473 30.4743C14.5382 31.6104 15.2267 32.4884 15.8768 33.0789C16.5412 33.6824 17.1893 34.0082 18.0001 34.0082C18.8108 34.0082 19.459 33.6824 20.1234 33.0789C20.7734 32.4884 21.4619 31.6104 22.3529 30.4743L22.368 30.455Z" stroke="url(#paint0_linear_20_5422)" stroke-width="0.5" stroke-linecap="round"/>
</g>
<g filter="url(#filter1_d_20_5422)">
<path d="M23.376 13.4559C23.7659 12.9721 23.6897 12.2639 23.2059 11.874C22.7221 11.4842 22.0139 11.5604 21.624 12.0442L18.5918 15.8074C17.9692 16.5801 17.5763 17.0633 17.2494 17.3686C17.0957 17.5121 16.9976 17.576 16.9412 17.6042C16.8992 17.6252 16.8842 17.6251 16.8761 17.625H16.874C16.8659 17.6251 16.8509 17.6252 16.8089 17.6042C16.7525 17.576 16.6544 17.5121 16.5007 17.3686C16.1738 17.0633 15.7809 16.5801 15.1583 15.8074L14.376 14.8365C13.9862 14.3527 13.278 14.2766 12.7942 14.6664C12.3104 15.0562 12.2342 15.7645 12.624 16.2483L13.4551 17.2797L13.4551 17.2797C14.0139 17.9733 14.5069 18.5852 14.965 19.013C15.4569 19.4724 16.0684 19.875 16.875 19.875C17.6816 19.875 18.2932 19.4724 18.7851 19.013C19.2432 18.5852 19.7361 17.9733 20.2949 17.2797L23.376 13.4559Z" fill="url(#paint1_linear_20_5422)"/>
</g>
<defs>
<filter id="filter0_b_20_5422" x="-18.4999" y="-22.25" width="73" height="80.5082" filterUnits="userSpaceOnUse" color-interpolation-filters="sRGB">
<feFlood flood-opacity="0" result="BackgroundImageFix"/>
<feGaussianBlur in="BackgroundImageFix" stdDeviation="12"/>
<feComposite in2="SourceAlpha" operator="in" result="effect1_backgroundBlur_20_5422"/>
<feBlend mode="normal" in="SourceGraphic" in2="effect1_backgroundBlur_20_5422" result="shape"/>
</filter>
<filter id="filter1_d_20_5422" x="9.11917" y="8.36917" width="24.2734" height="21.2733" filterUnits="userSpaceOnUse" color-interpolation-filters="sRGB">
<feFlood flood-opacity="0" result="BackgroundImageFix"/>
<feColorMatrix in="SourceAlpha" type="matrix" values="0 0 0 0 0 0 0 0 0 0 0 0 0 0 0 0 0 0 127 0" result="hardAlpha"/>
<feOffset dx="3.25583" dy="3.25583"/>
<feGaussianBlur stdDeviation="3.25583"/>
<feColorMatrix type="matrix" values="0 0 0 0 0.152941 0 0 0 0 0.784314 0 0 0 0 0.235294 0 0 0 0.5 0"/>
<feBlend mode="normal" in2="BackgroundImageFix" result="effect1_dropShadow_20_5422"/>
<feBlend mode="normal" in="SourceGraphic" in2="effect1_dropShadow_20_5422" result="shape"/>
</filter>
<linearGradient id="paint0_linear_20_5422" x1="6.00006" y1="2.25" x2="36.3832" y2="25.3696" gradientUnits="userSpaceOnUse">
<stop stop-color="white" stop-opacity="0.25"/>
<stop offset="1" stop-color="white" stop-opacity="0"/>
</linearGradient>
<linearGradient id="paint1_linear_20_5422" x1="18.0948" y1="21.6327" x2="29.0201" y2="7.02873" gradientUnits="userSpaceOnUse">
<stop stop-color="white"/>
<stop offset="1" stop-color="white" stop-opacity="0.2"/>
</linearGradient>
</defs>
</svg>
