<svg width="39" height="37" viewBox="0 0 39 37" fill="none" xmlns="http://www.w3.org/2000/svg">
<circle cx="28.1667" cy="26.1667" r="10.8333" fill="url(#paint0_linear_20_11841)"/>
<g clip-path="url(#clip0_20_11841)">
<g filter="url(#filter0_b_20_11841)">
<path fill-rule="evenodd" clip-rule="evenodd" d="M7.31043 4.43486C7.46231 4.32452 7.61936 4.22301 7.78257 4.12961C7.83499 4.24638 7.90915 4.35576 8.00503 4.45164C9.86917 6.3157 11.3324 7.77659 12.6222 8.80893C13.928 9.85405 15.1509 10.5401 16.5598 10.7632C17.4207 10.8995 18.2976 10.8995 19.1584 10.7632C20.528 10.5463 21.7215 9.89212 22.9865 8.89591C24.2353 7.91241 25.6373 6.52621 27.4021 4.76269C27.4587 4.70611 27.5077 4.64482 27.5492 4.58008C28.0829 4.9958 28.5559 5.4847 28.954 6.03265C30.3333 7.93112 30.3333 10.6393 30.3333 16.0555V18.9444C30.3333 24.3607 30.3333 27.0688 28.954 28.9673C28.5085 29.5805 27.9693 30.1196 27.3562 30.5651C25.4577 31.9444 22.7496 31.9444 17.3333 31.9444C11.917 31.9444 9.20891 31.9444 7.31043 30.5651C6.69731 30.1196 6.15811 29.5805 5.71265 28.9673C4.33333 27.0688 4.33333 24.3607 4.33333 18.9444V16.0555C4.33333 10.6393 4.33333 7.93112 5.71265 6.03265C6.15811 5.41952 6.69731 4.88033 7.31043 4.43486Z" fill="#28D03B" fill-opacity="0.35"/>
<path d="M17.3333 3.05554C21.2332 3.05554 23.7291 3.05554 25.5296 3.57045C23.9114 5.18449 22.7009 6.36295 21.646 7.19373C20.5344 8.06913 19.6823 8.48655 18.8195 8.62322C18.1832 8.72399 17.535 8.72399 16.8988 8.62322C16.0111 8.48262 15.1351 8.04501 13.9761 7.11735C12.8969 6.2536 11.6552 5.03505 9.99064 3.37285C11.7126 3.05554 14.0146 3.05554 17.3333 3.05554Z" fill="#28D03B" fill-opacity="0.35"/>
<path d="M8.01063 4.02722L7.8977 3.77569L7.6584 3.91263C7.48738 4.0105 7.32272 4.11692 7.16349 4.23261C6.52914 4.69349 5.97128 5.25135 5.5104 5.8857C4.78461 6.88466 4.43192 8.08534 4.2572 9.69799C4.08333 11.3028 4.08333 13.3449 4.08333 16.0396V16.0555V18.9444V18.9603C4.08333 21.655 4.08333 23.6972 4.2572 25.302C4.43192 26.9146 4.78461 28.1153 5.5104 29.1143C5.97128 29.7486 6.52914 30.3065 7.16349 30.7674C8.16245 31.4931 9.36313 31.8458 10.9758 32.0206C12.5806 32.1944 14.6227 32.1944 17.3174 32.1944H17.3333H17.3492C20.0439 32.1944 22.0861 32.1944 23.6909 32.0206C25.3035 31.8458 26.5042 31.4931 27.5032 30.7674C28.1375 30.3065 28.6954 29.7486 29.1563 29.1143C29.882 28.1153 30.2347 26.9146 30.4095 25.302C30.5833 23.6972 30.5833 21.655 30.5833 18.9603V18.9444V16.0555V16.0396C30.5833 13.3449 30.5833 11.3028 30.4095 9.69799C30.2347 8.08534 29.882 6.88466 29.1563 5.8857C28.7444 5.31878 28.255 4.81296 27.7029 4.38285L27.4866 4.21441L27.3387 4.44521C27.3069 4.49488 27.2692 4.54208 27.2254 4.58585L27.4021 4.76269L27.2254 4.58585C25.4575 6.3524 24.0667 7.727 22.8318 8.69951C21.5845 9.68178 20.4304 10.3086 19.1193 10.5163C18.2844 10.6485 17.4339 10.6485 16.599 10.5163C15.2502 10.3027 14.0673 9.64531 12.7784 8.61375C11.5018 7.592 10.0496 6.1426 8.1818 4.27486C8.10772 4.20078 8.05081 4.11671 8.01063 4.02722ZM25.7062 3.74746L26.0074 3.44705L25.5984 3.33008C23.7641 2.80552 21.2392 2.80553 17.3868 2.80554L17.3333 2.80554H17.3022C14.0104 2.80554 11.6898 2.80554 9.94533 3.12699L9.47703 3.21328L9.81399 3.54975C11.4762 5.20953 12.7279 6.43855 13.8199 7.31253C14.9959 8.25374 15.9119 8.72002 16.8597 8.87014C17.5218 8.97502 18.1964 8.97502 18.8586 8.87014C19.7799 8.72421 20.6714 8.27948 21.8006 7.39014C22.8691 6.54869 24.09 5.35941 25.7062 3.74746Z" stroke="url(#paint1_linear_20_11841)" stroke-width="0.5" stroke-linecap="round"/>
</g>
<g filter="url(#filter1_d_20_11841)">
<path fill-rule="evenodd" clip-rule="evenodd" d="M14.4444 16.4166C13.8461 16.4166 13.3611 16.9017 13.3611 17.5C13.3611 18.0983 13.8461 18.5833 14.4444 18.5833H20.2222C20.8205 18.5833 21.3055 18.0983 21.3055 17.5C21.3055 16.9017 20.8205 16.4166 20.2222 16.4166H14.4444ZM11.5555 22.1944C10.9572 22.1944 10.4722 22.6794 10.4722 23.2777C10.4722 23.876 10.9572 24.3611 11.5555 24.3611H23.1111C23.7094 24.3611 24.1944 23.876 24.1944 23.2777C24.1944 22.6794 23.7094 22.1944 23.1111 22.1944H11.5555Z" fill="url(#paint2_linear_20_11841)"/>
</g>
</g>
<defs>
<filter id="filter0_b_20_11841" x="-20.1667" y="-21.4445" width="75" height="77.8889" filterUnits="userSpaceOnUse" color-interpolation-filters="sRGB">
<feFlood flood-opacity="0" result="BackgroundImageFix"/>
<feGaussianBlur in="BackgroundImageFix" stdDeviation="12"/>
<feComposite in2="SourceAlpha" operator="in" result="effect1_backgroundBlur_20_11841"/>
<feBlend mode="normal" in="SourceGraphic" in2="effect1_backgroundBlur_20_11841" result="shape"/>
</filter>
<filter id="filter1_d_20_11841" x="7.21638" y="13.1608" width="26.7455" height="20.9678" filterUnits="userSpaceOnUse" color-interpolation-filters="sRGB">
<feFlood flood-opacity="0" result="BackgroundImageFix"/>
<feColorMatrix in="SourceAlpha" type="matrix" values="0 0 0 0 0 0 0 0 0 0 0 0 0 0 0 0 0 0 127 0" result="hardAlpha"/>
<feOffset dx="3.25583" dy="3.25583"/>
<feGaussianBlur stdDeviation="3.25583"/>
<feColorMatrix type="matrix" values="0 0 0 0 0.152941 0 0 0 0 0.784314 0 0 0 0 0.235294 0 0 0 0.5 0"/>
<feBlend mode="normal" in2="BackgroundImageFix" result="effect1_dropShadow_20_11841"/>
<feBlend mode="normal" in="SourceGraphic" in2="effect1_dropShadow_20_11841" result="shape"/>
</filter>
<linearGradient id="paint0_linear_20_11841" x1="17.3333" y1="37" x2="39.4617" y2="15.8156" gradientUnits="userSpaceOnUse">
<stop stop-color="#209440"/>
<stop offset="1" stop-color="#2EFF36"/>
</linearGradient>
<linearGradient id="paint1_linear_20_11841" x1="4.33333" y1="3.05554" x2="33.0741" y2="28.896" gradientUnits="userSpaceOnUse">
<stop stop-color="white" stop-opacity="0.25"/>
<stop offset="1" stop-color="white" stop-opacity="0"/>
</linearGradient>
<linearGradient id="paint2_linear_20_11841" x1="17.4489" y1="26.0536" x2="27.053" y2="9.79234" gradientUnits="userSpaceOnUse">
<stop stop-color="white"/>
<stop offset="1" stop-color="white" stop-opacity="0.2"/>
</linearGradient>
<clipPath id="clip0_20_11841">
<rect width="34.6667" height="34.6667" fill="white" transform="translate(0 0.166626)"/>
</clipPath>
</defs>
</svg>
