<svg width="35" height="34" viewBox="0 0 35 34" fill="none" xmlns="http://www.w3.org/2000/svg">
<path d="M20.3201 4.66663C21.4679 4.66663 21.976 4.66763 22.3949 4.70514C27.0526 5.12216 30.744 8.81352 31.161 13.4713C31.1985 13.8902 31.1995 14.3982 31.1995 15.546V16.866C31.1995 17.4182 31.6472 17.866 32.1995 17.866C32.7518 17.866 33.1995 17.4182 33.1995 16.866V15.4788C33.1995 14.4162 33.1996 13.8124 33.153 13.2929C32.6497 7.67149 28.1947 3.21641 22.5732 2.71311C22.0537 2.6666 21.4499 2.66661 20.3873 2.66663H19.0002C18.4479 2.66663 18.0002 3.11434 18.0002 3.66663C18.0002 4.21891 18.4479 4.66663 19.0002 4.66663L20.3201 4.66663Z" fill="url(#paint0_linear_20_5447)"/>
<path d="M12.4825 6.36703C11.0797 5.07805 8.9235 5.07805 7.52072 6.36703C7.46327 6.41981 7.40195 6.48115 7.32232 6.5608L6.12564 7.75747C4.92149 8.96162 4.416 10.6975 4.78542 12.3599C6.88138 21.7917 14.2474 29.1578 23.6792 31.2537C25.3416 31.6231 27.0775 31.1176 28.2817 29.9135L29.4782 28.7169C29.5579 28.6372 29.6193 28.5759 29.6721 28.5184C30.9611 27.1156 30.9611 24.9594 29.6721 23.5566C29.6193 23.4992 29.5579 23.4378 29.4782 23.3581L27.5192 21.3991C26.1591 20.039 24.105 19.65 22.3417 20.4186C21.3323 20.8586 20.1563 20.6359 19.3777 19.8572L16.1819 16.6615C15.4032 15.8828 15.1805 14.7069 15.6206 13.6974C16.3892 11.9341 16.0002 9.88008 14.64 8.51994L12.6809 6.56083C12.6013 6.48117 12.5399 6.41982 12.4825 6.36703Z" fill="url(#paint1_linear_20_5447)"/>
<path d="M19.9429 7.38067C19.3906 7.38067 18.9429 7.82839 18.9429 8.38067C18.9429 8.93296 19.3906 9.38067 19.9429 9.38067H20.6971C20.8134 9.38067 20.861 9.3807 20.8998 9.38125C23.9659 9.42517 26.4408 11.9001 26.4847 14.9662C26.4853 15.005 26.4853 15.0526 26.4853 15.1689V15.9231C26.4853 16.4754 26.933 16.9231 27.4853 16.9231C28.0376 16.9231 28.4853 16.4754 28.4853 15.9231V15.1592C28.4853 15.0556 28.4853 14.9926 28.4845 14.9375C28.4251 10.7893 25.0767 7.44087 20.9285 7.38146C20.8734 7.38067 20.8104 7.38067 20.7067 7.38067H19.9429Z" fill="url(#paint2_linear_20_5447)"/>
<g filter="url(#filter0_b_20_5447)">
<path d="M18.4026 3.89588C19.6222 3.89588 20.162 3.89694 20.6071 3.9368C25.5559 4.37988 29.478 8.30195 29.9211 13.2508C29.9609 13.6959 29.962 14.2357 29.962 15.4552V16.8577C29.962 17.4445 30.4377 17.9202 31.0245 17.9202C31.6113 17.9202 32.087 17.4445 32.087 16.8577V15.3838C32.087 14.2548 32.087 13.6133 32.0376 13.0613C31.5028 7.08855 26.7693 2.35502 20.7966 1.82026C20.2446 1.77084 19.603 1.77085 18.474 1.77087H17.0002C16.4134 1.77087 15.9377 2.24657 15.9377 2.83338C15.9377 3.42018 16.4134 3.89588 17.0002 3.89588L18.4026 3.89588Z" fill="#29ACD6" fill-opacity="0.35"/>
<path d="M10.0752 5.70255C8.58469 4.33301 6.29372 4.33301 4.80327 5.70255C4.74223 5.75863 4.67707 5.8238 4.59246 5.90843L3.321 7.1799C2.04159 8.45931 1.5045 10.3037 1.89701 12.07C4.12396 22.0913 11.9504 29.9177 21.9717 32.1446C23.738 32.5372 25.5823 32.0001 26.8618 30.7207L28.1331 29.4493C28.2178 29.3647 28.283 29.2995 28.3391 29.2384C29.7086 27.7479 29.7086 25.457 28.3391 23.9665C28.283 23.9054 28.2178 23.8402 28.1331 23.7556L26.0516 21.6741C24.6065 20.229 22.4241 19.8157 20.5506 20.6323C19.478 21.0998 18.2286 20.8632 17.4013 20.0359L14.0058 16.6404C13.1784 15.8131 12.9418 14.5636 13.4093 13.4911C14.226 11.6176 13.8127 9.43517 12.3675 7.99002L10.286 5.90846C10.2014 5.82382 10.1362 5.75864 10.0752 5.70255Z" fill="#29ACD6" fill-opacity="0.35"/>
<path d="M18.0018 6.77955C17.415 6.77955 16.9393 7.25525 16.9393 7.84205C16.9393 8.42885 17.415 8.90455 18.0018 8.90455H18.8032C18.9268 8.90455 18.9774 8.90458 19.0186 8.90517C22.2763 8.95182 24.9059 11.5814 24.9525 14.8392C24.9531 14.8804 24.9532 14.9309 24.9532 15.0545V15.8559C24.9532 16.4427 25.4289 16.9184 26.0157 16.9184C26.6025 16.9184 27.0782 16.4427 27.0782 15.8559V15.0443C27.0782 14.9342 27.0782 14.8672 27.0773 14.8087C27.0142 10.4012 23.4565 6.84351 19.049 6.78038C18.9905 6.77955 18.9235 6.77955 18.8134 6.77955H18.0018Z" fill="#29ACD6" fill-opacity="0.35"/>
<path d="M10.2443 5.51846L10.0859 5.69083L10.2443 5.51846C8.6582 4.06104 6.22022 4.06104 4.63411 5.51846L4.80327 5.70255L4.63411 5.51846C4.56916 5.57815 4.50079 5.64653 4.41871 5.72863L4.41569 5.73165L4.41567 5.73167L3.14422 7.00312C1.80437 8.34297 1.24191 10.2745 1.65296 12.1242C3.90097 22.2403 11.8014 30.1407 21.9175 32.3887C23.7672 32.7997 25.6987 32.2373 27.0385 30.8974L28.3098 29.6261L28.3099 29.6261L28.3129 29.6231C28.395 29.5409 28.4635 29.4725 28.5232 29.4075C29.9806 27.8214 29.9806 25.3835 28.5232 23.7974C28.4634 23.7323 28.395 23.6639 28.3127 23.5816L28.3099 23.5788L28.3098 23.5788L26.2284 21.4973C24.7106 19.9795 22.4184 19.5454 20.4507 20.4031C19.4724 20.8296 18.3327 20.6138 17.578 19.8591L14.1826 16.4636C13.4279 15.709 13.2121 14.5693 13.6385 13.591C14.4962 11.6233 14.0621 9.33107 12.5443 7.81325L10.4628 5.73171L10.4628 5.73169L10.4598 5.72869C10.3777 5.64656 10.3093 5.57816 10.2443 5.51846ZM18.4026 4.14588C19.6277 4.14588 20.1536 4.1472 20.5848 4.1858C25.4132 4.6181 29.2398 8.4447 29.6721 13.2731C29.7107 13.7043 29.712 14.2301 29.712 15.4552V16.8577C29.712 17.5825 30.2996 18.1702 31.0245 18.1702C31.7494 18.1702 32.337 17.5825 32.337 16.8577V15.3838V15.3679C32.337 14.2535 32.337 13.6021 32.2866 13.039C31.7411 6.94579 26.9121 2.1168 20.8189 1.57126C20.2557 1.52084 19.6043 1.52085 18.4897 1.52087L18.474 1.52087H17.0002C16.2753 1.52087 15.6877 2.1085 15.6877 2.83338C15.6877 3.55825 16.2753 4.14588 17.0002 4.14588L18.4026 4.14588ZM18.0018 6.52955C17.2769 6.52955 16.6893 7.11717 16.6893 7.84205C16.6893 8.56692 17.2769 9.15455 18.0018 9.15455H18.8032C18.9277 9.15455 18.976 9.15458 19.015 9.15514C22.1374 9.19986 24.6578 11.7203 24.7026 14.8427C24.7031 14.8817 24.7032 14.93 24.7032 15.0545V15.8559C24.7032 16.5808 25.2908 17.1684 26.0157 17.1684C26.7405 17.1684 27.3282 16.5808 27.3282 15.8559V15.0443V15.0421C27.3282 14.934 27.3282 14.8654 27.3273 14.8052C27.2622 10.2624 23.5954 6.59547 19.0526 6.53041C18.9923 6.52955 18.9238 6.52955 18.8157 6.52955H18.8134H18.0018Z" stroke="url(#paint3_linear_20_5447)" stroke-width="0.5" stroke-linecap="round"/>
</g>
<defs>
<filter id="filter0_b_20_5447" x="-22.7291" y="-22.7291" width="79.3161" height="79.4999" filterUnits="userSpaceOnUse" color-interpolation-filters="sRGB">
<feFlood flood-opacity="0" result="BackgroundImageFix"/>
<feGaussianBlur in="BackgroundImageFix" stdDeviation="12"/>
<feComposite in2="SourceAlpha" operator="in" result="effect1_backgroundBlur_20_5447"/>
<feBlend mode="normal" in="SourceGraphic" in2="effect1_backgroundBlur_20_5447" result="shape"/>
</filter>
<linearGradient id="paint0_linear_20_5447" x1="4.66672" y1="31.3724" x2="33.9759" y2="3.48253" gradientUnits="userSpaceOnUse">
<stop stop-color="#207894"/>
<stop offset="1" stop-color="#2ECDFF"/>
</linearGradient>
<linearGradient id="paint1_linear_20_5447" x1="4.66672" y1="31.3724" x2="33.9759" y2="3.48253" gradientUnits="userSpaceOnUse">
<stop stop-color="#207894"/>
<stop offset="1" stop-color="#2ECDFF"/>
</linearGradient>
<linearGradient id="paint2_linear_20_5447" x1="4.66672" y1="31.3724" x2="33.9759" y2="3.48253" gradientUnits="userSpaceOnUse">
<stop stop-color="#207894"/>
<stop offset="1" stop-color="#2ECDFF"/>
</linearGradient>
<linearGradient id="paint3_linear_20_5447" x1="1.77089" y1="1.77087" x2="32.2855" y2="32.0709" gradientUnits="userSpaceOnUse">
<stop stop-color="white" stop-opacity="0.25"/>
<stop offset="1" stop-color="white" stop-opacity="0"/>
</linearGradient>
</defs>
</svg>
