<svg width="32" height="32" viewBox="0 0 32 32" fill="none" xmlns="http://www.w3.org/2000/svg">
<g clip-path="url(#clip0_20_5366)">
<path d="M16.0001 32C24.8367 32 32.0001 24.8366 32.0001 16C32.0001 7.16344 24.8367 0 16.0001 0C7.16357 0 0.00012207 7.16344 0.00012207 16C0.00012207 24.8366 7.16357 32 16.0001 32Z" fill="url(#paint0_linear_20_5366)"/>
<path d="M10.8306 17.1696L12.7289 22.4237C12.7289 22.4237 12.9662 22.9153 13.2204 22.9153C13.4745 22.9153 17.2544 18.983 17.2544 18.983L21.4577 10.8644L10.8984 15.8133L10.8306 17.1696Z" fill="#C8DAEA"/>
<path d="M13.3476 18.5171L12.9832 22.3899C12.9832 22.3899 12.8307 23.5766 14.0171 22.3899C15.2035 21.2032 16.3391 20.2882 16.3391 20.2882" fill="#A9C6D8"/>
<path d="M10.8649 17.357L6.9601 16.0847C6.9601 16.0847 6.49344 15.8954 6.6437 15.4661C6.67464 15.3775 6.73704 15.3022 6.9237 15.1727C7.7889 14.5697 22.9378 9.12475 22.9378 9.12475C22.9378 9.12475 23.3656 8.98061 23.6178 9.07648C23.6802 9.0958 23.7364 9.13135 23.7806 9.17949C23.8247 9.22763 23.8553 9.28664 23.8692 9.35048C23.8964 9.46324 23.9078 9.57924 23.903 9.69515C23.9018 9.79541 23.8897 9.88835 23.8805 10.0341C23.7882 11.5227 21.0272 22.6331 21.0272 22.6331C21.0272 22.6331 20.862 23.2833 20.2701 23.3055C20.1247 23.3102 19.9797 23.2856 19.844 23.2331C19.7083 23.1806 19.5845 23.1013 19.4801 22.9999C18.3186 22.0009 14.3042 19.303 13.4172 18.7097C13.3972 18.696 13.3803 18.6783 13.3678 18.6576C13.3552 18.6369 13.3472 18.6137 13.3444 18.5897C13.332 18.5271 13.4 18.4497 13.4 18.4497C13.4 18.4497 20.3901 12.2363 20.5761 11.5841C20.5905 11.5335 20.5361 11.5086 20.463 11.5307C19.9988 11.7015 11.9505 16.7841 11.0622 17.345C10.9983 17.3644 10.9307 17.3685 10.8649 17.357Z" fill="white"/>
</g>
<defs>
<linearGradient id="paint0_linear_20_5366" x1="16.0001" y1="32" x2="16.0001" y2="0" gradientUnits="userSpaceOnUse">
<stop stop-color="#1D93D2"/>
<stop offset="1" stop-color="#38B0E3"/>
</linearGradient>
<clipPath id="clip0_20_5366">
<rect width="32" height="32" fill="white"/>
</clipPath>
</defs>
</svg>
