<svg width="38" height="38" viewBox="0 0 38 38" fill="none" xmlns="http://www.w3.org/2000/svg">
<g filter="url(#filter0_bd_8_17037)">
<path d="M35 18C35 29.0457 30.0457 34 19 34C7.95431 34 3 29.0457 3 18C3 6.95431 7.95431 2 19 2C30.0457 2 35 6.95431 35 18Z" fill="url(#paint0_linear_8_17037)"/>
</g>
<g clip-path="url(#clip0_8_17037)">
<path fill-rule="evenodd" clip-rule="evenodd" d="M13.7457 20.5544V16.6016C13.7457 15.4803 13.1837 14.948 12.24 14.948C11.4554 14.948 10.7768 15.4464 10.4799 15.9447C10.289 15.3218 9.81185 14.948 9.05902 14.948C8.27434 14.948 7.59577 15.469 7.38366 15.7974V15.084H6.03703V20.5544H7.38366V16.8735C7.58516 16.5677 7.97747 16.2279 8.44398 16.2279C8.99538 16.2279 9.20743 16.5903 9.20743 17.1V20.5544H10.5647V16.8621C10.7556 16.5677 11.1479 16.2279 11.625 16.2279C12.1764 16.2279 12.3884 16.5903 12.3884 17.1L12.3885 20.5544H13.7457ZM17.4463 20.6903C15.7604 20.6903 14.7424 19.3764 14.7424 17.8135C14.7424 16.2618 15.7603 14.9481 17.4463 14.9481C19.1428 14.9481 20.1608 16.2619 20.1608 17.8135C20.1608 19.3764 19.1429 20.6903 17.4463 20.6903ZM17.4463 19.4105C18.2839 19.4105 18.7611 18.6743 18.7611 17.8135C18.7611 16.9641 18.284 16.2279 17.4463 16.2279C16.6086 16.2279 16.1421 16.9641 16.1421 17.8135C16.1421 18.6743 16.6086 19.4105 17.4463 19.4105ZM25.9609 20.5544V16.6922C25.9609 15.6276 25.4201 14.948 24.2961 14.948C23.4585 14.948 22.8329 15.3784 22.5042 15.7974V15.084H21.1575V20.5544H22.5042V16.8735C22.7268 16.545 23.1404 16.2279 23.6705 16.2279C24.2431 16.2279 24.6142 16.4884 24.6142 17.2472V20.5544H25.9609ZM29.672 20.6903C27.9861 20.6903 26.9682 19.3764 26.9682 17.8135C26.9682 16.2618 27.9861 14.9481 29.672 14.9481C31.3686 14.9481 32.3865 16.2619 32.3865 17.8135C32.3865 19.3764 31.3686 20.6903 29.672 20.6903ZM29.672 19.4105C30.5097 19.4105 30.9869 18.6743 30.9869 17.8135C30.9869 16.9641 30.5097 16.2279 29.672 16.2279C28.8343 16.2279 28.3678 16.9641 28.3678 17.8135C28.3678 18.6743 28.8344 19.4105 29.672 19.4105ZM34.7298 18.7988C34.9525 19.1499 35.4509 19.4104 35.8856 19.4104C36.6703 19.4104 37.1898 18.7761 37.1898 17.8248C37.1898 16.8734 36.6703 16.2278 35.8856 16.2278C35.4509 16.2278 34.9525 16.4996 34.7298 16.8621V18.7988ZM34.7298 20.5544H33.3832V13H34.7298V15.7862C35.1328 15.2312 35.7053 14.948 36.3098 14.948C37.614 14.948 38.5789 16.0353 38.5789 17.8248C38.5789 19.6482 37.6034 20.6902 36.3098 20.6902C35.6948 20.6902 35.1328 20.3957 34.7298 19.8521V20.5544ZM44.0185 20.5544H42.6718V19.9881C42.3219 20.4298 41.7175 20.6903 41.0495 20.6903C40.233 20.6903 39.2682 20.1013 39.2682 18.8781C39.2682 17.5983 40.2331 17.1113 41.0495 17.1113C41.7281 17.1113 42.3325 17.3492 42.6718 17.7795V17.0433C42.6718 16.4884 42.2265 16.1259 41.5479 16.1259C40.9965 16.1259 40.4876 16.3412 40.0528 16.7715L39.5438 15.8088C40.1694 15.2199 40.9752 14.9481 41.7811 14.9481C42.9475 14.9481 44.0184 15.4464 44.0184 17.0207L44.0185 20.5544ZM41.5903 19.7162C42.025 19.7162 42.4492 19.5576 42.6718 19.2405V18.561C42.4492 18.2439 42.025 18.0853 41.5903 18.0853C41.0601 18.0853 40.6253 18.3798 40.6253 18.9121C40.6253 19.4217 41.0601 19.7162 41.5903 19.7162ZM50.1578 20.5544V16.6922C50.1578 15.6276 49.617 14.948 48.4931 14.948C47.6554 14.948 47.0298 15.3784 46.7011 15.7974V15.084H45.3545V20.5544H46.7011V16.8735C46.9238 16.545 47.3373 16.2279 47.8675 16.2279C48.4401 16.2279 48.8112 16.4884 48.8112 17.2472V20.5544H50.1578ZM56.4987 20.5544L54.4098 17.5643L56.4351 15.084H54.7809L52.8405 17.519V13H51.4938V20.5544H52.8405V19.1499L53.4555 18.4478L54.8128 20.5544H56.4987Z" fill="white"/>
</g>
<defs>
<filter id="filter0_bd_8_17037" x="-17" y="-18" width="72" height="72" filterUnits="userSpaceOnUse" color-interpolation-filters="sRGB">
<feFlood flood-opacity="0" result="BackgroundImageFix"/>
<feGaussianBlur in="BackgroundImageFix" stdDeviation="10"/>
<feComposite in2="SourceAlpha" operator="in" result="effect1_backgroundBlur_8_17037"/>
<feColorMatrix in="SourceAlpha" type="matrix" values="0 0 0 0 0 0 0 0 0 0 0 0 0 0 0 0 0 0 127 0" result="hardAlpha"/>
<feOffset dy="1"/>
<feGaussianBlur stdDeviation="1.5"/>
<feComposite in2="hardAlpha" operator="out"/>
<feColorMatrix type="matrix" values="0 0 0 0 0 0 0 0 0 0 0 0 0 0 0 0 0 0 0.06 0"/>
<feBlend mode="normal" in2="effect1_backgroundBlur_8_17037" result="effect2_dropShadow_8_17037"/>
<feBlend mode="normal" in="SourceGraphic" in2="effect2_dropShadow_8_17037" result="shape"/>
</filter>
<linearGradient id="paint0_linear_8_17037" x1="-6.8" y1="-8.4" x2="53.4" y2="48.8" gradientUnits="userSpaceOnUse">
<stop stop-color="#282828"/>
<stop offset="1" stop-color="#151515"/>
</linearGradient>
<clipPath id="clip0_8_17037">
<rect width="28" height="8" fill="white" transform="translate(5 14)"/>
</clipPath>
</defs>
</svg>
