<svg width="159" height="26" viewBox="0 0 159 26" fill="none" xmlns="http://www.w3.org/2000/svg">
<path d="M2.1891 22.5365L0.514534 21.7977L11.0544 0.0653328L12.7044 0.877987L2.1891 22.5365ZM14.502 22.5365L12.8275 21.7977L23.3674 0.0653328L25.0173 0.877987L14.502 22.5365Z" fill="#4CCEAC"/>
<path d="M40.3004 19.3474C39.8571 19.6429 39.3194 19.8728 38.6874 20.0369C38.0553 20.2011 37.4356 20.2832 36.8281 20.2832C35.4327 20.2832 34.3573 19.9179 33.6021 19.1873C32.8469 18.4568 32.4693 17.5169 32.4693 16.3677V8.63515H29.4896V7.03446H32.4693V4.09167L34.5379 3.84541V7.03446H39.0198L38.7736 8.63515H34.5379V16.3431C34.5379 17.0654 34.7267 17.6154 35.1043 17.993C35.4901 18.3706 36.1263 18.5594 37.0128 18.5594C37.4971 18.5594 37.9445 18.5019 38.3549 18.387C38.7654 18.2721 39.1471 18.1243 39.5 17.9437L40.3004 19.3474ZM49.7102 6.76358C50.9332 6.76358 51.9552 7.04267 52.7761 7.60086C53.6052 8.15084 54.2249 8.93066 54.6353 9.94032C55.054 10.95 55.2633 12.1402 55.2633 13.5111C55.2633 14.8327 55.0499 16.0024 54.623 17.0203C54.1962 18.0381 53.5682 18.8385 52.7391 19.4213C51.9183 19.9959 50.9004 20.2832 49.6855 20.2832C48.4707 20.2832 47.4487 20.0041 46.6196 19.4459C45.7905 18.8877 45.1626 18.1038 44.7357 17.0941C44.3171 16.0763 44.1078 14.8901 44.1078 13.5357C44.1078 12.1977 44.3212 11.0198 44.748 10.0019C45.1749 8.98401 45.8028 8.19188 46.6319 7.62549C47.4692 7.05088 48.4953 6.76358 49.7102 6.76358ZM49.7102 8.45045C48.5938 8.45045 47.7483 8.86499 47.1737 9.69406C46.6073 10.5149 46.3241 11.7955 46.3241 13.5357C46.3241 15.2431 46.6032 16.5113 47.1614 17.3404C47.7278 18.1695 48.5692 18.584 49.6855 18.584C50.8019 18.584 51.6392 18.1695 52.1974 17.3404C52.7638 16.5113 53.047 15.2349 53.047 13.5111C53.047 11.7873 52.7679 10.5149 52.2097 9.69406C51.6515 8.86499 50.8183 8.45045 49.7102 8.45045ZM65.338 6.76358C66.4872 6.76358 67.4025 7.04267 68.0838 7.60086C68.7733 8.15905 69.2699 8.94707 69.5736 9.96494C69.8774 10.9746 70.0292 12.1567 70.0292 13.5111C70.0292 14.8162 69.8445 15.9819 69.4751 17.008C69.114 18.0258 68.564 18.8262 67.8252 19.409C67.0864 19.9918 66.1547 20.2832 65.0302 20.2832C63.6101 20.2832 62.4691 19.7825 61.6072 18.781V24.9621L59.5386 25.2207V7.03446H61.2993L61.4717 8.84447C61.9478 8.17957 62.5142 7.66653 63.1709 7.30535C63.8358 6.94417 64.5582 6.76358 65.338 6.76358ZM64.8455 8.42583C64.1313 8.42583 63.4993 8.64336 62.9493 9.07841C62.4075 9.50526 61.9601 9.98136 61.6072 10.5067V16.9341C61.9437 17.4348 62.3665 17.8329 62.8754 18.1284C63.3925 18.4157 63.9589 18.5594 64.5746 18.5594C65.6499 18.5594 66.4585 18.149 67.0002 17.3281C67.542 16.5072 67.8129 15.2308 67.8129 13.4988C67.8129 12.366 67.7062 11.4261 67.4928 10.6791C67.2793 9.9239 66.9551 9.36161 66.52 8.99222C66.085 8.61462 65.5268 8.42583 64.8455 8.42583ZM78.7125 18.5717C79.7058 18.5717 80.4897 18.387 81.0643 18.0176C81.6471 17.64 81.9385 17.1393 81.9385 16.5154C81.9385 16.1214 81.8647 15.7808 81.7169 15.4935C81.5774 15.2062 81.286 14.9476 80.8427 14.7177C80.3994 14.4879 79.7181 14.2581 78.7987 14.0282C77.904 13.8066 77.1242 13.5521 76.4593 13.2648C75.8026 12.9693 75.2895 12.5876 74.9202 12.1197C74.559 11.6518 74.3784 11.0444 74.3784 10.2974C74.3784 9.56683 74.5836 8.93887 74.994 8.41351C75.4127 7.87995 75.9914 7.47362 76.7302 7.19453C77.4689 6.90723 78.3267 6.76358 79.3036 6.76358C80.3461 6.76358 81.2531 6.90312 82.0247 7.18222C82.8045 7.4531 83.4653 7.78966 84.0071 8.19188L83.096 9.59556C82.6034 9.259 82.0617 8.98401 81.4706 8.77059C80.8796 8.54896 80.1655 8.43814 79.3282 8.43814C78.3103 8.43814 77.588 8.59821 77.1611 8.91834C76.7343 9.23027 76.5208 9.6366 76.5208 10.1373C76.5208 10.5149 76.6234 10.831 76.8287 11.0854C77.0421 11.3317 77.3992 11.5574 77.8999 11.7626C78.4006 11.9596 79.0901 12.1772 79.9685 12.4152C80.814 12.6369 81.5486 12.9036 82.1725 13.2156C82.8045 13.5275 83.2971 13.9379 83.65 14.4469C84.003 14.9558 84.1795 15.6125 84.1795 16.4169C84.1795 17.3363 83.9168 18.0833 83.3915 18.6579C82.8661 19.2243 82.1848 19.6388 81.3475 19.9015C80.5184 20.156 79.6401 20.2832 78.7125 20.2832C77.5387 20.2832 76.5373 20.1149 75.7082 19.7784C74.8873 19.4336 74.1978 19.0191 73.6396 18.5348L74.8217 17.168C75.3306 17.5867 75.9134 17.9273 76.5701 18.19C77.235 18.4445 77.9491 18.5717 78.7125 18.5717ZM90.6957 14.2499C90.7368 15.2513 90.9297 16.0722 91.2744 16.7124C91.6192 17.3445 92.0748 17.8124 92.6412 18.1161C93.2076 18.4116 93.8232 18.5594 94.4881 18.5594C95.153 18.5594 95.7523 18.4609 96.2858 18.2639C96.8276 18.0669 97.3817 17.7755 97.9481 17.3897L98.9208 18.7564C98.3133 19.2325 97.6197 19.606 96.8399 19.8769C96.0683 20.1478 95.2762 20.2832 94.4635 20.2832C93.2076 20.2832 92.1363 20 91.2498 19.4336C90.3633 18.8672 89.6861 18.0792 89.2182 17.0695C88.7585 16.0516 88.5287 14.8737 88.5287 13.5357C88.5287 12.2223 88.7626 11.0567 89.2305 10.0388C89.6984 9.02095 90.3551 8.22061 91.2006 7.6378C92.0461 7.05498 93.0434 6.76358 94.1926 6.76358C95.2844 6.76358 96.2242 7.02215 97.0123 7.53929C97.8003 8.04823 98.4036 8.7788 98.8223 9.731C99.2491 10.675 99.4626 11.8037 99.4626 13.1171C99.4626 13.3387 99.4584 13.548 99.4502 13.745C99.442 13.9338 99.4297 14.1021 99.4133 14.2499H90.6957ZM94.2172 8.46277C93.2568 8.46277 92.4524 8.80342 91.8039 9.48474C91.1636 10.1661 90.7983 11.2209 90.708 12.6492H97.4679C97.4432 11.2619 97.1395 10.2194 96.5567 9.52168C95.9739 8.81574 95.1941 8.46277 94.2172 8.46277ZM108.885 1.81377V16.7986C108.885 17.4389 109.082 17.8945 109.476 18.1654C109.878 18.428 110.395 18.5594 111.027 18.5594C111.421 18.5594 111.795 18.5183 112.148 18.4363C112.501 18.3542 112.854 18.2434 113.207 18.1038L113.761 19.6183C113.408 19.7907 112.968 19.9425 112.443 20.0739C111.926 20.2134 111.339 20.2832 110.682 20.2832C109.533 20.2832 108.601 19.9672 107.887 19.3351C107.173 18.6948 106.816 17.8124 106.816 16.6878V3.45139H102.839V1.81377H108.885ZM123.651 1.81377V16.7986C123.651 17.4389 123.848 17.8945 124.242 18.1654C124.644 18.428 125.161 18.5594 125.793 18.5594C126.187 18.5594 126.561 18.5183 126.914 18.4363C127.266 18.3542 127.619 18.2434 127.972 18.1038L128.527 19.6183C128.174 19.7907 127.734 19.9425 127.209 20.0739C126.692 20.2134 126.105 20.2832 125.448 20.2832C124.299 20.2832 123.367 19.9672 122.653 19.3351C121.939 18.6948 121.582 17.8124 121.582 16.6878V3.45139H117.605V1.81377H123.651ZM134.993 14.2499C135.035 15.2513 135.227 16.0722 135.572 16.7124C135.917 17.3445 136.373 17.8124 136.939 18.1161C137.505 18.4116 138.121 18.5594 138.786 18.5594C139.451 18.5594 140.05 18.4609 140.584 18.2639C141.125 18.0669 141.679 17.7755 142.246 17.3897L143.219 18.7564C142.611 19.2325 141.917 19.606 141.138 19.8769C140.366 20.1478 139.574 20.2832 138.761 20.2832C137.505 20.2832 136.434 20 135.548 19.4336C134.661 18.8672 133.984 18.0792 133.516 17.0695C133.056 16.0516 132.826 14.8737 132.826 13.5357C132.826 12.2223 133.06 11.0567 133.528 10.0388C133.996 9.02095 134.653 8.22061 135.498 7.6378C136.344 7.05498 137.341 6.76358 138.49 6.76358C139.582 6.76358 140.522 7.02215 141.31 7.53929C142.098 8.04823 142.701 8.7788 143.12 9.731C143.547 10.675 143.76 11.8037 143.76 13.1171C143.76 13.3387 143.756 13.548 143.748 13.745C143.74 13.9338 143.727 14.1021 143.711 14.2499H134.993ZM138.515 8.46277C137.555 8.46277 136.75 8.80342 136.102 9.48474C135.461 10.1661 135.096 11.2209 135.006 12.6492H141.766C141.741 11.2619 141.437 10.2194 140.854 9.52168C140.272 8.81574 139.492 8.46277 138.515 8.46277ZM148.257 20V18.4116H150.277V8.62283H148.257V7.03446H151.853L152.234 10.1004C152.735 9.03327 153.342 8.2083 154.057 7.62549C154.771 7.04267 155.715 6.75126 156.889 6.75126C157.25 6.75126 157.57 6.78 157.849 6.83746C158.136 6.88671 158.428 6.95238 158.723 7.03446L158.12 8.88141C157.849 8.80753 157.603 8.75417 157.381 8.72134C157.16 8.68029 156.905 8.65977 156.618 8.65977C155.624 8.65977 154.771 9.01274 154.057 9.71869C153.342 10.4246 152.772 11.4918 152.345 12.9201V18.4116H154.98V20H148.257ZM156.729 11.4179V8.59821L156.938 7.03446H158.723L158.428 11.4179H156.729Z" fill="white"/>
</svg>
