<svg width="101" height="20" viewBox="0 0 101 20" fill="none" xmlns="http://www.w3.org/2000/svg">
<path d="M8.06156 3.31445C7.46829 3.14448 6.84884 3.05949 6.20322 3.05949C5.55759 3.05949 5.03412 3.2389 4.63278 3.59773C4.2489 3.93768 4.05696 4.42871 4.05696 5.07082C4.05696 5.69405 4.20528 6.18508 4.50191 6.54391C4.79855 6.90274 5.3831 7.21435 6.25557 7.47875L8.58504 8.2153C9.84139 8.6119 10.836 9.23513 11.5689 10.085C12.3192 10.916 12.6943 12.1435 12.6943 13.7677C12.6943 15.6941 12.0487 17.2144 10.7575 18.3286C9.48368 19.4429 7.8958 20 5.99382 20C4.94687 20 3.86501 19.8584 2.74826 19.5751C1.64896 19.2729 0.732869 18.8574 0 18.3286C0 18.2153 0 17.9981 0 17.6771C0 17.356 0.0610724 16.8083 0.183217 16.034C0.305362 15.2597 0.479855 14.627 0.706696 14.136H3.19322C3.47241 14.7214 3.63817 15.5052 3.69052 16.4873C4.30125 16.7705 5.00794 16.9122 5.81061 16.9122C6.63072 16.9122 7.30252 16.7044 7.826 16.289C8.34948 15.8735 8.61122 15.2786 8.61122 14.5042C8.61122 14.1454 8.58504 13.8527 8.53269 13.6261C8.48035 13.3805 8.31458 13.1256 8.03539 12.8612C7.77365 12.5779 7.38977 12.3513 6.88374 12.1813L4.18783 11.3314C1.44829 10.4816 0.0785217 8.59301 0.0785217 5.66572C0.0785217 3.94712 0.654348 2.5779 1.806 1.55807C2.95765 0.519358 4.45829 0 6.30791 0C8.17498 0 9.99843 0.453258 11.7783 1.35977C11.7783 1.47309 11.7783 1.69027 11.7783 2.01133C11.7783 2.33239 11.7172 2.88008 11.595 3.65439C11.4729 4.42871 11.2984 5.06138 11.0716 5.55241H8.58504C8.28841 5.09915 8.11391 4.35316 8.06156 3.31445Z" fill="url(#paint0_radial_54_2187)"/>
<path d="M24.9259 9.17847L22.7273 19.915H18.6966L14.5087 3.54108C13.7933 3.25779 13.3135 2.93673 13.0692 2.5779L13.3309 0.226628H19.3771L19.6388 2.5779C19.3422 2.95562 18.871 3.26723 18.2254 3.51275L20.0838 11.8697C20.363 13.0784 20.5811 14.2776 20.7381 15.4674L20.7905 15.949H21.1569C21.1744 14.8348 21.3401 13.4939 21.6542 11.9263L24.0099 0.424929H28.0145L30.3701 11.8697C30.6493 13.2483 30.8412 14.4476 30.9459 15.4674L30.9983 15.9773H31.3647C31.3996 14.8253 31.609 13.475 31.9929 11.9263L34.0606 3.62606C33.3278 3.34278 32.8217 2.99339 32.5426 2.5779L32.8043 0.226628H38.5887L38.8505 2.5779C38.5189 3.03116 37.9344 3.39943 37.0968 3.68272L32.6996 19.915H28.5903L26.4702 9.2068C26.2259 7.92257 26.0427 6.66667 25.9206 5.43909L25.8682 4.87252H25.5018C25.432 6.17564 25.24 7.61095 24.9259 9.17847Z" fill="url(#paint1_radial_54_2187)"/>
<path d="M47.2509 0.0849847L52.4595 16.4306C53.1923 16.7139 53.7071 17.0444 54.0037 17.4221L53.742 19.7734H47.6173L47.3556 17.4221C47.5649 17.1199 47.9837 16.8366 48.6119 16.5722L47.9052 14.1926H42.6704L42.0161 16.4873C42.6268 16.7517 43.0805 17.0633 43.3771 17.4221L43.1154 19.7734H37.1477L36.886 17.4221C37.2001 16.9877 37.7846 16.6289 38.6396 16.3456L43.665 0.0849847H47.2509ZM45.0784 4.05099C45.0784 5.20302 44.8603 6.54391 44.4241 8.07365L43.4033 11.5864H47.1462L46.1516 8.13031C45.7502 6.80831 45.5234 5.60906 45.471 4.53258L45.4449 4.05099H45.0784Z" fill="url(#paint2_radial_54_2187)"/>
<path d="M61.1369 12.9745H59.9591V16.3173C61.2329 16.6195 62.0268 16.9877 62.3409 17.4221L62.0792 19.7734H55.0122L54.7505 17.4221C54.9773 17.101 55.4572 16.7894 56.1901 16.4873V3.54108C55.4746 3.25779 54.9948 2.93673 54.7505 2.5779L55.0122 0.226628H61.9483C64.3738 0.2644 66.1798 0.745986 67.3663 1.67139C68.5703 2.5779 69.1723 4.20208 69.1723 6.54391C69.1723 10.831 66.4939 12.9745 61.1369 12.9745ZM61.5295 3.31445H59.9591V9.88669H61.7128C62.8993 9.88669 63.7805 9.63173 64.3563 9.12181C64.9496 8.6119 65.2462 7.73371 65.2462 6.48725C65.2462 5.22191 64.9234 4.38149 64.2778 3.96601C63.6496 3.53163 62.7335 3.31445 61.5295 3.31445Z" fill="url(#paint3_radial_54_2187)"/>
<path d="M77.01 12.9745H75.8322V16.3173C77.1059 16.6195 77.8999 16.9877 78.214 17.4221L77.9522 19.7734H70.8853L70.6235 17.4221C70.8504 17.101 71.3302 16.7894 72.0631 16.4873V3.54108C71.3477 3.25779 70.8678 2.93673 70.6235 2.5779L70.8853 0.226628H77.8214C80.2468 0.2644 82.0528 0.745986 83.2394 1.67139C84.4434 2.5779 85.0454 4.20208 85.0454 6.54391C85.0454 10.831 82.3669 12.9745 77.01 12.9745ZM77.4026 3.31445H75.8322V9.88669H77.5858C78.7724 9.88669 79.6535 9.63173 80.2294 9.12181C80.8226 8.6119 81.1193 7.73371 81.1193 6.48725C81.1193 5.22191 80.7965 4.38149 80.1508 3.96601C79.5227 3.53163 78.6066 3.31445 77.4026 3.31445Z" fill="url(#paint4_radial_54_2187)"/>
<path d="M96.3149 19.7734H90.1902L89.9284 17.4221C90.1553 17.101 90.6351 16.7894 91.368 16.4873V13.2295L87.1017 3.62606C86.2815 3.32389 85.7232 2.9745 85.4265 2.5779L85.6621 0.368271V0.339942L85.6883 0.226628H91.813L92.0747 2.5779C91.8653 2.89896 91.464 3.18225 90.8707 3.42776L91.7606 5.60907C92.2666 6.85552 92.7029 8.09254 93.0693 9.32011L93.2525 9.88669H93.6451C94.0116 8.50803 94.4914 7.08215 95.0847 5.60907L95.9223 3.54108C95.2243 3.2389 94.7532 2.91785 94.5089 2.5779L94.7706 0.226628H100.738L101 2.5779C100.651 3.01227 100.075 3.3711 99.2725 3.65439L95.137 13.2295V16.4873C95.835 16.7894 96.3149 17.101 96.5766 17.4221L96.3149 19.7734Z" fill="url(#paint5_radial_54_2187)"/>
<defs>
<radialGradient id="paint0_radial_54_2187" cx="0" cy="0" r="1" gradientUnits="userSpaceOnUse" gradientTransform="translate(-9.59917 -3.99999) rotate(12.58) scale(130.852 257.204)">
<stop stop-color="#5BA5E9"/>
<stop offset="1" stop-color="#D16EFF"/>
</radialGradient>
<radialGradient id="paint1_radial_54_2187" cx="0" cy="0" r="1" gradientUnits="userSpaceOnUse" gradientTransform="translate(-9.59917 -3.99999) rotate(12.58) scale(130.852 257.204)">
<stop stop-color="#5BA5E9"/>
<stop offset="1" stop-color="#D16EFF"/>
</radialGradient>
<radialGradient id="paint2_radial_54_2187" cx="0" cy="0" r="1" gradientUnits="userSpaceOnUse" gradientTransform="translate(-9.59917 -3.99999) rotate(12.58) scale(130.852 257.204)">
<stop stop-color="#5BA5E9"/>
<stop offset="1" stop-color="#D16EFF"/>
</radialGradient>
<radialGradient id="paint3_radial_54_2187" cx="0" cy="0" r="1" gradientUnits="userSpaceOnUse" gradientTransform="translate(-9.59917 -3.99999) rotate(12.58) scale(130.852 257.204)">
<stop stop-color="#5BA5E9"/>
<stop offset="1" stop-color="#D16EFF"/>
</radialGradient>
<radialGradient id="paint4_radial_54_2187" cx="0" cy="0" r="1" gradientUnits="userSpaceOnUse" gradientTransform="translate(-9.59917 -3.99999) rotate(12.58) scale(130.852 257.204)">
<stop stop-color="#5BA5E9"/>
<stop offset="1" stop-color="#D16EFF"/>
</radialGradient>
<radialGradient id="paint5_radial_54_2187" cx="0" cy="0" r="1" gradientUnits="userSpaceOnUse" gradientTransform="translate(-9.59917 -3.99999) rotate(12.58) scale(130.852 257.204)">
<stop stop-color="#5BA5E9"/>
<stop offset="1" stop-color="#D16EFF"/>
</radialGradient>
</defs>
</svg>
