<svg width="343" height="32" viewBox="0 0 343 32" fill="none" xmlns="http://www.w3.org/2000/svg">
<path d="M2.19064 28.1429L0.11572 27.2275L13.1755 0.299263L15.2199 1.30621L2.19064 28.1429ZM17.4474 28.1429L15.3725 27.2275L28.4323 0.299263L30.4767 1.30621L17.4474 28.1429Z" fill="#4CCEAC"/>
<path d="M49.4137 24.1914C48.8645 24.5576 48.1983 24.8423 47.4151 25.0458C46.6319 25.2492 45.864 25.3509 45.1113 25.3509C43.3822 25.3509 42.0498 24.8983 41.114 23.9931C40.1783 23.0878 39.7104 21.9232 39.7104 20.4992V10.918H36.0183V8.9346H39.7104V5.28823L42.2736 4.9831V8.9346H47.827L47.5219 10.918H42.2736V20.4687C42.2736 21.3638 42.5075 22.0453 42.9754 22.5131C43.4534 22.981 44.2417 23.215 45.3402 23.215C45.9403 23.215 46.4946 23.1438 47.0032 23.0014C47.5117 22.859 47.9847 22.6759 48.422 22.4521L49.4137 24.1914ZM61.0733 8.59895C62.5888 8.59895 63.8551 8.94478 64.8722 9.63642C65.8995 10.3179 66.6674 11.2841 67.176 12.5352C67.6947 13.7863 67.9541 15.2611 67.9541 16.9597C67.9541 18.5972 67.6896 20.0466 67.1607 21.3079C66.6318 22.5691 65.8537 23.5608 64.8264 24.2829C63.8093 24.9949 62.5481 25.3509 61.0427 25.3509C59.5374 25.3509 58.2711 25.0051 57.2438 24.3134C56.2165 23.6218 55.4384 22.6505 54.9095 21.3994C54.3908 20.1382 54.1314 18.6684 54.1314 16.9902C54.1314 15.3323 54.3959 13.8727 54.9248 12.6115C55.4537 11.3503 56.2318 10.3687 57.2591 9.66693C58.2965 8.95495 59.5679 8.59895 61.0733 8.59895ZM61.0733 10.6891C59.69 10.6891 58.6423 11.2028 57.9304 12.2301C57.2285 13.2472 56.8776 14.8339 56.8776 16.9902C56.8776 19.1058 57.2235 20.6772 57.9151 21.7045C58.6169 22.7318 59.6595 23.2455 61.0427 23.2455C62.426 23.2455 63.4635 22.7318 64.1551 21.7045C64.8569 20.6772 65.2078 19.0956 65.2078 16.9597C65.2078 14.8237 64.862 13.2472 64.1704 12.2301C63.4787 11.2028 62.4464 10.6891 61.0733 10.6891ZM80.4375 8.59895C81.8614 8.59895 82.9955 8.94478 83.8397 9.63642C84.6941 10.3281 85.3095 11.3045 85.6858 12.5657C86.0621 13.8168 86.2503 15.2814 86.2503 16.9597C86.2503 18.5769 86.0214 20.0212 85.5637 21.2926C85.1162 22.5538 84.4347 23.5455 83.5193 24.2677C82.6039 24.9898 81.4495 25.3509 80.056 25.3509C78.2964 25.3509 76.8826 24.7305 75.8146 23.4896V31.1485L73.2515 31.4689V8.9346H75.4332L75.6468 11.1774C76.2367 10.3535 76.9386 9.71779 77.7523 9.27025C78.5761 8.82272 79.4712 8.59895 80.4375 8.59895ZM79.8272 10.6586C78.9423 10.6586 78.1591 10.9282 77.4776 11.4672C76.8063 11.9961 76.252 12.5861 75.8146 13.237V21.2011C76.2317 21.8215 76.7555 22.3148 77.3861 22.681C78.0269 23.037 78.7287 23.215 79.4915 23.215C80.824 23.215 81.8258 22.7064 82.4971 21.6893C83.1684 20.6722 83.5041 19.0905 83.5041 16.9444C83.5041 15.5408 83.3718 14.3762 83.1074 13.4506C82.8429 12.5149 82.4412 11.8181 81.9021 11.3604C81.363 10.8926 80.6714 10.6586 79.8272 10.6586ZM97.0097 23.2302C98.2404 23.2302 99.2117 23.0014 99.9237 22.5437C100.646 22.0758 101.007 21.4553 101.007 20.6823C101.007 20.1941 100.915 19.772 100.732 19.416C100.559 19.06 100.198 18.7396 99.6491 18.4548C99.0998 18.17 98.2556 17.8853 97.1165 17.6005C96.0078 17.3258 95.0415 17.0105 94.2177 16.6545C93.404 16.2884 92.7683 15.8154 92.3106 15.2357C91.863 14.6559 91.6393 13.9032 91.6393 12.9777C91.6393 12.0724 91.8935 11.2943 92.4021 10.6434C92.9208 9.98224 93.6379 9.47876 94.5533 9.13294C95.4687 8.77695 96.5316 8.59895 97.742 8.59895C99.0337 8.59895 100.158 8.77187 101.114 9.11769C102.08 9.45334 102.899 9.87035 103.57 10.3687L102.441 12.108C101.831 11.691 101.159 11.3503 100.427 11.0858C99.6948 10.8112 98.81 10.6739 97.7725 10.6739C96.5113 10.6739 95.6162 10.8722 95.0873 11.2689C94.5584 11.6554 94.2939 12.1589 94.2939 12.7793C94.2939 13.2472 94.4211 13.6388 94.6754 13.9541C94.9398 14.2592 95.3823 14.5389 96.0027 14.7932C96.6231 15.0373 97.4775 15.3069 98.5658 15.6018C99.6135 15.8764 100.524 16.207 101.297 16.5935C102.08 16.98 102.69 17.4886 103.128 18.1192C103.565 18.7498 103.784 19.5635 103.784 20.5603C103.784 21.6994 103.458 22.625 102.807 23.337C102.156 24.0388 101.312 24.5525 100.275 24.8779C99.2473 25.1933 98.159 25.3509 97.0097 25.3509C95.5552 25.3509 94.3143 25.1424 93.287 24.7254C92.2699 24.2982 91.4155 23.7845 90.7239 23.1844L92.1885 21.4909C92.8191 22.0097 93.5413 22.4318 94.355 22.7573C95.1788 23.0726 96.0637 23.2302 97.0097 23.2302ZM111.858 17.8751C111.909 19.116 112.148 20.1331 112.575 20.9264C113.002 21.7096 113.567 22.2894 114.268 22.6657C114.97 23.0319 115.733 23.215 116.557 23.215C117.381 23.215 118.123 23.0929 118.784 22.8488C119.456 22.6047 120.142 22.2436 120.844 21.7656L122.049 23.4591C121.297 24.049 120.437 24.5118 119.471 24.8474C118.515 25.1831 117.533 25.3509 116.526 25.3509C114.97 25.3509 113.643 25 112.544 24.2982C111.446 23.5964 110.607 22.6199 110.027 21.3689C109.457 20.1077 109.173 18.6481 109.173 16.9902C109.173 15.3628 109.463 13.9185 110.042 12.6573C110.622 11.396 111.436 10.4043 112.483 9.68219C113.531 8.96003 114.767 8.59895 116.191 8.59895C117.544 8.59895 118.708 8.91935 119.685 9.56013C120.661 10.1907 121.409 11.096 121.927 12.2758C122.456 13.4455 122.721 14.8441 122.721 16.4715C122.721 16.7461 122.716 17.0054 122.705 17.2496C122.695 17.4835 122.68 17.692 122.66 17.8751H111.858ZM116.221 10.7044C115.031 10.7044 114.034 11.1265 113.231 11.9707C112.438 12.8149 111.985 14.1219 111.873 15.8917H120.249C120.219 14.1728 119.842 12.881 119.12 12.0165C118.398 11.1418 117.432 10.7044 116.221 10.7044ZM134.395 2.46573V21.0332C134.395 21.8266 134.64 22.3911 135.128 22.7267C135.626 23.0522 136.267 23.215 137.05 23.215C137.538 23.215 138.001 23.1641 138.439 23.0624C138.876 22.9607 139.313 22.8234 139.751 22.6505L140.437 24.527C140 24.7406 139.456 24.9288 138.805 25.0915C138.164 25.2645 137.437 25.3509 136.623 25.3509C135.199 25.3509 134.045 24.9593 133.16 24.1761C132.275 23.3828 131.832 22.2894 131.832 20.8959V4.49488H126.904V2.46573H134.395ZM152.692 2.46573V21.0332C152.692 21.8266 152.936 22.3911 153.424 22.7267C153.922 23.0522 154.563 23.215 155.346 23.215C155.835 23.215 156.297 23.1641 156.735 23.0624C157.172 22.9607 157.609 22.8234 158.047 22.6505L158.733 24.527C158.296 24.7406 157.752 24.9288 157.101 25.0915C156.46 25.2645 155.733 25.3509 154.919 25.3509C153.495 25.3509 152.341 24.9593 151.456 24.1761C150.571 23.3828 150.129 22.2894 150.129 20.8959V4.49488H145.201V2.46573H152.692ZM166.747 17.8751C166.797 19.116 167.036 20.1331 167.464 20.9264C167.891 21.7096 168.455 22.2894 169.157 22.6657C169.859 23.0319 170.622 23.215 171.446 23.215C172.269 23.215 173.012 23.0929 173.673 22.8488C174.344 22.6047 175.031 22.2436 175.733 21.7656L176.938 23.4591C176.185 24.049 175.326 24.5118 174.36 24.8474C173.404 25.1831 172.422 25.3509 171.415 25.3509C169.859 25.3509 168.532 25 167.433 24.2982C166.335 23.5964 165.495 22.6199 164.916 21.3689C164.346 20.1077 164.061 18.6481 164.061 16.9902C164.061 15.3628 164.351 13.9185 164.931 12.6573C165.511 11.396 166.324 10.4043 167.372 9.68219C168.42 8.96003 169.655 8.59895 171.079 8.59895C172.432 8.59895 173.597 8.91935 174.573 9.56013C175.55 10.1907 176.297 11.096 176.816 12.2758C177.345 13.4455 177.609 14.8441 177.609 16.4715C177.609 16.7461 177.604 17.0054 177.594 17.2496C177.584 17.4835 177.569 17.692 177.548 17.8751H166.747ZM171.11 10.7044C169.92 10.7044 168.923 11.1265 168.12 11.9707C167.326 12.8149 166.874 14.1219 166.762 15.8917H175.138C175.107 14.1728 174.731 12.881 174.009 12.0165C173.287 11.1418 172.32 10.7044 171.11 10.7044ZM183.181 25V23.0319H185.684V10.9027H183.181V8.9346H187.636L188.109 12.7335C188.73 11.4113 189.482 10.3891 190.367 9.66693C191.252 8.94478 192.422 8.5837 193.876 8.5837C194.324 8.5837 194.721 8.6193 195.066 8.6905C195.422 8.75152 195.784 8.83289 196.15 8.9346L195.402 11.2231C195.066 11.1316 194.761 11.0655 194.487 11.0248C194.212 10.9739 193.897 10.9485 193.541 10.9485C192.31 10.9485 191.252 11.3859 190.367 12.2606C189.482 13.1353 188.776 14.4576 188.247 16.2273V23.0319H191.512V25H183.181ZM193.678 14.366V10.8722L193.937 8.9346H196.15L195.784 14.366H193.678ZM204.712 22.6505C204.712 22.1521 204.829 21.7045 205.063 21.3079C205.297 20.901 205.612 20.5806 206.009 20.3467C206.416 20.1026 206.873 19.9805 207.382 19.9805C207.901 19.9805 208.364 20.1026 208.77 20.3467C209.177 20.5806 209.498 20.901 209.732 21.3079C209.965 21.7045 210.082 22.1521 210.082 22.6505C210.082 23.1488 209.965 23.6065 209.732 24.0236C209.498 24.4304 209.177 24.7559 208.77 25C208.364 25.2339 207.901 25.3509 207.382 25.3509C206.873 25.3509 206.416 25.2339 206.009 25C205.612 24.7559 205.297 24.4304 205.063 24.0236C204.829 23.6065 204.712 23.1488 204.712 22.6505ZM232.376 24.1914C231.827 24.5576 231.161 24.8423 230.377 25.0458C229.594 25.2492 228.826 25.3509 228.074 25.3509C226.344 25.3509 225.012 24.8983 224.076 23.9931C223.141 23.0878 222.673 21.9232 222.673 20.4992V10.918H218.981V8.9346H222.673V5.28823L225.236 4.9831V8.9346H230.789L230.484 10.918H225.236V20.4687C225.236 21.3638 225.47 22.0453 225.938 22.5131C226.416 22.981 227.204 23.215 228.302 23.215C228.902 23.215 229.457 23.1438 229.965 23.0014C230.474 22.859 230.947 22.6759 231.384 22.4521L232.376 24.1914ZM238.07 25V23.0319H240.572V10.9027H238.07V8.9346H242.525L242.998 12.7335C243.618 11.4113 244.371 10.3891 245.256 9.66693C246.141 8.94478 247.311 8.5837 248.765 8.5837C249.213 8.5837 249.609 8.6193 249.955 8.6905C250.311 8.75152 250.672 8.83289 251.038 8.9346L250.291 11.2231C249.955 11.1316 249.65 11.0655 249.375 11.0248C249.101 10.9739 248.785 10.9485 248.429 10.9485C247.199 10.9485 246.141 11.3859 245.256 12.2606C244.371 13.1353 243.664 14.4576 243.135 16.2273V23.0319H246.4V25H238.07ZM248.567 14.366V10.8722L248.826 8.9346H251.038L250.672 14.366H248.567ZM267.717 21.4909C267.717 22.1317 267.824 22.5996 268.038 22.8946C268.251 23.1895 268.582 23.4082 269.029 23.5506L268.404 25.3509C267.712 25.2594 267.107 25.0407 266.588 24.6949C266.07 24.3389 265.693 23.8049 265.459 23.0929C264.88 23.8354 264.157 24.3999 263.293 24.7864C262.428 25.1627 261.472 25.3509 260.425 25.3509C258.818 25.3509 257.551 24.8983 256.626 23.9931C255.7 23.0878 255.237 21.8876 255.237 20.3925C255.237 18.7345 255.883 17.4631 257.175 16.5783C258.467 15.6934 260.333 15.2509 262.774 15.2509H265.139V13.9083C265.139 12.7488 264.798 11.93 264.117 11.452C263.445 10.9638 262.51 10.7196 261.31 10.7196C260.781 10.7196 260.16 10.7858 259.448 10.918C258.736 11.04 257.963 11.2485 257.129 11.5435L256.458 9.6059C257.444 9.23974 258.37 8.98037 259.235 8.82781C260.099 8.67524 260.923 8.59895 261.706 8.59895C263.71 8.59895 265.21 9.06683 266.207 10.0026C267.214 10.9282 267.717 12.1894 267.717 13.7863V21.4909ZM261.081 23.398C261.874 23.398 262.632 23.1997 263.354 22.803C264.076 22.3962 264.671 21.8368 265.139 21.1248V16.9902H262.82C261.05 16.9902 259.799 17.2953 259.067 17.9056C258.345 18.5159 257.984 19.3346 257.984 20.3619C257.984 21.3587 258.238 22.1165 258.746 22.6352C259.265 23.1438 260.043 23.398 261.081 23.398ZM282.642 8.9346V22.9708H287.173V25H275.12V22.9708H280.079V10.9638H275.273V8.9346H282.642ZM280.597 1.41301C281.167 1.41301 281.62 1.58592 281.955 1.93174C282.301 2.27756 282.474 2.69966 282.474 3.19805C282.474 3.71678 282.301 4.15415 281.955 4.51014C281.62 4.85596 281.167 5.02887 280.597 5.02887C280.058 5.02887 279.616 4.85596 279.27 4.51014C278.924 4.15415 278.751 3.71678 278.751 3.19805C278.751 2.69966 278.924 2.27756 279.27 1.93174C279.616 1.58592 280.058 1.41301 280.597 1.41301ZM292.806 25V8.9346H294.988L295.186 11.1621C295.837 10.3382 296.651 9.70761 297.627 9.27025C298.614 8.82272 299.57 8.59895 300.496 8.59895C302.072 8.59895 303.216 9.01597 303.928 9.85001C304.651 10.684 305.012 11.8436 305.012 13.3286V25H302.448V15.2204C302.448 14.1219 302.387 13.237 302.265 12.5657C302.143 11.8842 301.889 11.3909 301.503 11.0858C301.116 10.7705 300.516 10.6129 299.702 10.6129C299.072 10.6129 298.477 10.7502 297.917 11.0248C297.368 11.2994 296.875 11.6452 296.437 12.0622C296.01 12.4691 295.654 12.881 295.369 13.298V25H292.806ZM313.116 17.8751C313.167 19.116 313.406 20.1331 313.833 20.9264C314.261 21.7096 314.825 22.2894 315.527 22.6657C316.229 23.0319 316.992 23.215 317.815 23.215C318.639 23.215 319.382 23.0929 320.043 22.8488C320.714 22.6047 321.401 22.2436 322.103 21.7656L323.308 23.4591C322.555 24.049 321.696 24.5118 320.729 24.8474C319.773 25.1831 318.792 25.3509 317.785 25.3509C316.229 25.3509 314.901 25 313.803 24.2982C312.704 23.5964 311.865 22.6199 311.285 21.3689C310.716 20.1077 310.431 18.6481 310.431 16.9902C310.431 15.3628 310.721 13.9185 311.301 12.6573C311.881 11.396 312.694 10.4043 313.742 9.68219C314.789 8.96003 316.025 8.59895 317.449 8.59895C318.802 8.59895 319.967 8.91935 320.943 9.56013C321.919 10.1907 322.667 11.096 323.186 12.2758C323.715 13.4455 323.979 14.8441 323.979 16.4715C323.979 16.7461 323.974 17.0054 323.964 17.2496C323.954 17.4835 323.938 17.692 323.918 17.8751H313.116ZM317.48 10.7044C316.29 10.7044 315.293 11.1265 314.489 11.9707C313.696 12.8149 313.243 14.1219 313.132 15.8917H321.508C321.477 14.1728 321.101 12.881 320.379 12.0165C319.656 11.1418 318.69 10.7044 317.48 10.7044ZM331.413 17.8751C331.463 19.116 331.702 20.1331 332.13 20.9264C332.557 21.7096 333.121 22.2894 333.823 22.6657C334.525 23.0319 335.288 23.215 336.112 23.215C336.935 23.215 337.678 23.0929 338.339 22.8488C339.01 22.6047 339.697 22.2436 340.399 21.7656L341.604 23.4591C340.851 24.049 339.992 24.5118 339.026 24.8474C338.07 25.1831 337.088 25.3509 336.081 25.3509C334.525 25.3509 333.198 25 332.099 24.2982C331.001 23.5964 330.161 22.6199 329.582 21.3689C329.012 20.1077 328.727 18.6481 328.727 16.9902C328.727 15.3628 329.017 13.9185 329.597 12.6573C330.177 11.396 330.99 10.4043 332.038 9.68219C333.086 8.96003 334.321 8.59895 335.745 8.59895C337.098 8.59895 338.263 8.91935 339.239 9.56013C340.216 10.1907 340.963 11.096 341.482 12.2758C342.011 13.4455 342.275 14.8441 342.275 16.4715C342.275 16.7461 342.27 17.0054 342.26 17.2496C342.25 17.4835 342.235 17.692 342.214 17.8751H331.413ZM335.776 10.7044C334.586 10.7044 333.589 11.1265 332.786 11.9707C331.992 12.8149 331.54 14.1219 331.428 15.8917H339.804C339.773 14.1728 339.397 12.881 338.675 12.0165C337.953 11.1418 336.986 10.7044 335.776 10.7044Z" fill="black"/>
</svg>
