<svg width="38" height="38" viewBox="0 0 38 38" fill="none" xmlns="http://www.w3.org/2000/svg">
<g clip-path="url(#clip0_8_26519)">
<path d="M30.9785 17.9958C30.9785 24.5905 25.6328 29.9361 19.0382 29.9361C12.4438 29.9361 7.09791 24.5905 7.09791 17.9958C7.09791 11.4013 12.4438 6.05554 19.0382 6.05554C25.6328 6.05554 30.9785 11.4013 30.9785 17.9958Z" fill="#1BA27A"/>
<path d="M24.6421 12.0765H13.3359V14.8061H17.6242V18.818H20.3538V14.8061H24.6421V12.0765Z" fill="white"/>
<path d="M19.0149 19.2454C15.4675 19.2454 12.5914 18.684 12.5914 17.9913C12.5914 17.2988 15.4673 16.7372 19.0149 16.7372C22.5624 16.7372 25.4383 17.2988 25.4383 17.9913C25.4383 18.684 22.5624 19.2454 19.0149 19.2454ZM26.2275 18.2004C26.2275 17.3073 22.9983 16.5833 19.0149 16.5833C15.0316 16.5833 11.8023 17.3073 11.8023 18.2004C11.8023 18.9869 14.3063 19.6422 17.6244 19.7874V25.5467H20.3537V19.7896C23.6973 19.649 26.2275 18.991 26.2275 18.2004Z" fill="white"/>
</g>
<g filter="url(#filter0_bd_8_26519)">
<path d="M35 18C35 29.0457 30.0457 34 19 34C7.95431 34 3 29.0457 3 18C3 6.95431 7.95431 2 19 2C30.0457 2 35 6.95431 35 18Z" fill="url(#paint0_linear_8_26519)" fill-opacity="0.33" shape-rendering="crispEdges"/>
<path d="M34.75 18C34.75 23.4911 33.5179 27.4128 30.9654 29.9654C28.4128 32.5179 24.4911 33.75 19 33.75C13.5089 33.75 9.58723 32.5179 7.03464 29.9654C4.48205 27.4128 3.25 23.4911 3.25 18C3.25 12.5089 4.48205 8.58723 7.03464 6.03464C9.58723 3.48205 13.5089 2.25 19 2.25C24.4911 2.25 28.4128 3.48205 30.9654 6.03464C33.5179 8.58723 34.75 12.5089 34.75 18Z" stroke="url(#paint1_linear_8_26519)" stroke-width="0.5" shape-rendering="crispEdges"/>
</g>
<g clip-path="url(#clip1_8_26519)">
<path d="M30.9785 17.9958C30.9785 24.5905 25.6328 29.9361 19.0382 29.9361C12.4438 29.9361 7.09791 24.5905 7.09791 17.9958C7.09791 11.4013 12.4438 6.05554 19.0382 6.05554C25.6328 6.05554 30.9785 11.4013 30.9785 17.9958Z" fill="#1BA27A"/>
<path d="M24.6421 12.0765H13.3359V14.8061H17.6242V18.818H20.3538V14.8061H24.6421V12.0765Z" fill="white"/>
<path d="M19.0149 19.2454C15.4675 19.2454 12.5914 18.684 12.5914 17.9913C12.5914 17.2988 15.4673 16.7372 19.0149 16.7372C22.5624 16.7372 25.4383 17.2988 25.4383 17.9913C25.4383 18.684 22.5624 19.2454 19.0149 19.2454ZM26.2275 18.2004C26.2275 17.3073 22.9983 16.5833 19.0149 16.5833C15.0316 16.5833 11.8023 17.3073 11.8023 18.2004C11.8023 18.9869 14.3063 19.6422 17.6244 19.7874V25.5467H20.3537V19.7896C23.6973 19.649 26.2275 18.991 26.2275 18.2004Z" fill="white"/>
</g>
<defs>
<filter id="filter0_bd_8_26519" x="-17" y="-18" width="72" height="72" filterUnits="userSpaceOnUse" color-interpolation-filters="sRGB">
<feFlood flood-opacity="0" result="BackgroundImageFix"/>
<feGaussianBlur in="BackgroundImageFix" stdDeviation="10"/>
<feComposite in2="SourceAlpha" operator="in" result="effect1_backgroundBlur_8_26519"/>
<feColorMatrix in="SourceAlpha" type="matrix" values="0 0 0 0 0 0 0 0 0 0 0 0 0 0 0 0 0 0 127 0" result="hardAlpha"/>
<feOffset dy="1"/>
<feGaussianBlur stdDeviation="1.5"/>
<feComposite in2="hardAlpha" operator="out"/>
<feColorMatrix type="matrix" values="0 0 0 0 0 0 0 0 0 0 0 0 0 0 0 0 0 0 0.06 0"/>
<feBlend mode="normal" in2="effect1_backgroundBlur_8_26519" result="effect2_dropShadow_8_26519"/>
<feBlend mode="normal" in="SourceGraphic" in2="effect2_dropShadow_8_26519" result="shape"/>
</filter>
<linearGradient id="paint0_linear_8_26519" x1="-6.8" y1="-8.4" x2="53.4" y2="48.8" gradientUnits="userSpaceOnUse">
<stop stop-color="#8A8FF2" stop-opacity="0.21"/>
<stop offset="1" stop-color="white" stop-opacity="0.2"/>
</linearGradient>
<linearGradient id="paint1_linear_8_26519" x1="57" y1="-18.6" x2="9.8" y2="25.2" gradientUnits="userSpaceOnUse">
<stop stop-color="#C7DDFE" stop-opacity="0.46"/>
<stop offset="1" stop-color="#CBC7FE" stop-opacity="0"/>
</linearGradient>
<clipPath id="clip0_8_26519">
<rect width="24" height="24" fill="white" transform="translate(7 6)"/>
</clipPath>
<clipPath id="clip1_8_26519">
<rect width="24" height="24" fill="white" transform="translate(7 6)"/>
</clipPath>
</defs>
</svg>
